<?xml version="1.0" standalone="no"?>
<!DOCTYPE svg PUBLIC "-//W3C//DTD SVG 1.1//EN" "http://www.w3.org/Graphics/SVG/1.1/DTD/svg11.dtd" >
<svg>
<metadata>
Created by FontForge 20090622 at Wed Mar 16 14:10:49 2016
 By deploy user
Copyright (c) 2012 by Jeremy Mickel. All rights reserved.
</metadata>
<defs>
<font id="Fort-Book" horiz-adv-x="625" >
  <font-face 
    font-family="Fort Book"
    font-weight="660"
    font-stretch="normal"
    units-per-em="1000"
    panose-1="1 0 0 0 0 0 0 0 0 0"
    ascent="750"
    descent="-250"
    x-height="487"
    cap-height="700"
    bbox="-102 -292 1422 949"
    underline-thickness="50"
    underline-position="-50"
    unicode-range="U+0020-U+EBA9"
  />
<missing-glyph horiz-adv-x="914" 
d="M110 0v700h694v-700h-694zM419 348l-241 275v-550zM496 348l240 -274v548zM238 643l220 -253l219 253h-439zM456 306l-216 -249h435z" />
    <glyph glyph-name="fi" unicode="fi" horiz-adv-x="629" 
d="M116 0v420h-90v67h90v59q0 172 156 172q45 0 79 -14l-14 -72q-31 12 -59 12q-39 0 -58.5 -23t-19.5 -80v-54h141v-67h-141v-420h-84zM448 487h86v-487h-86v487zM432 638q0 56 59 56t59 -56q0 -57 -59 -57t-59 57z" />
    <glyph glyph-name="fl" unicode="fl" horiz-adv-x="629" 
d="M116 0v420h-90v67h90v59q0 172 156 172q45 0 79 -14l-14 -72q-31 12 -59 12q-39 0 -58.5 -23t-19.5 -80v-54h141v-67h-141v-420h-84zM534 700v-700h-86v700h86z" />
    <glyph glyph-name=".notdef" horiz-adv-x="914" 
d="M110 0v700h694v-700h-694zM419 348l-241 275v-550zM496 348l240 -274v548zM238 643l220 -253l219 253h-439zM456 306l-216 -249h435z" />
    <glyph glyph-name=".null" horiz-adv-x="0" 
 />
    <glyph glyph-name="nonmarkingreturn" horiz-adv-x="333" 
 />
    <glyph glyph-name="space" unicode=" " horiz-adv-x="235" 
 />
    <glyph glyph-name="exclam" unicode="!" horiz-adv-x="227" 
d="M161 700l-12 -506h-71l-12 506h95zM55 52q0 57 59 57t59 -57q0 -27 -16 -42t-43 -15q-28 0 -43.5 15t-15.5 42z" />
    <glyph glyph-name="quotedbl" unicode="&#x22;" horiz-adv-x="309" 
d="M130 501h-67l-7 211h80zM184 501l-7 211h81l-8 -211h-66z" />
    <glyph glyph-name="numbersign" unicode="#" horiz-adv-x="724" 
d="M98 441l20 66h112l61 193h88l-61 -193h190l62 193h88l-62 -193h109l-19 -66h-111l-51 -163h119l-20 -66h-121l-66 -212h-88l66 212h-189l-66 -212h-89l67 212h-101l20 66h102l51 163h-111zM298 441l-52 -163h190l51 163h-189z" />
    <glyph glyph-name="dollar" unicode="$" horiz-adv-x="588" 
d="M264 -62v82q-146 11 -215 126l63 42q33 -46 68 -68.5t84 -27.5v231q-189 47 -189 188q0 73 47.5 117.5t141.5 51.5v86h71v-87q125 -10 184 -108l-66 -43q-41 70 -118 80v-223q107 -27 152.5 -67.5t45.5 -113.5q0 -84 -51.5 -130t-146.5 -54v-82h-71zM450 199
q0 43 -25.5 67t-89.5 41v-216q115 13 115 108zM155 515q0 -85 109 -113v207q-109 -9 -109 -94z" />
    <glyph glyph-name="percent" unicode="%" horiz-adv-x="1044" 
d="M827 418q88 0 129 -51.5t41 -162.5q0 -110 -41 -162t-129 -52q-89 0 -130.5 51t-41.5 163q0 111 41.5 162.5t130.5 51.5zM827 357q-51 0 -75.5 -34.5t-24.5 -119.5q0 -84 24.5 -118t74.5 -34t74.5 34.5t24.5 118.5t-24 118.5t-74 34.5zM215 711q88 0 129 -51.5t41 -162.5
q0 -110 -41 -162t-129 -52q-89 0 -130.5 51t-41.5 163q0 111 41.5 162.5t130.5 51.5zM215 650q-51 0 -75.5 -34.5t-24.5 -119.5q0 -84 24.5 -118t74.5 -34t74.5 34.5t24.5 118.5t-24 118.5t-74 34.5zM726 700l-338 -700h-81l339 700h80z" />
    <glyph glyph-name="ampersand" unicode="&#x26;" horiz-adv-x="708" 
d="M564 476h82q0 -211 -80 -337q44 -31 136 -90l-41 -61q-104 64 -143 92q-94 -92 -243 -92q-107 0 -173 46.5t-66 139.5q0 72 36 114t108 87q-75 99 -75 182q0 74 48 114.5t140 40.5q166 0 166 -132q0 -66 -40.5 -113.5t-126.5 -103.5q74 -80 210 -179q66 109 62 292z
M281 57q104 0 174 67q-147 107 -229 197q-52 -33 -78 -64.5t-26 -78.5q0 -56 42 -88.5t117 -32.5zM187 553q0 -62 59 -137q74 48 103 79.5t29 72.5q0 76 -89 76q-102 0 -102 -91z" />
    <glyph glyph-name="quotesingle" unicode="'" horiz-adv-x="187" 
d="M63 501l-7 211h80l-6 -211h-67z" />
    <glyph glyph-name="parenleft" unicode="(" horiz-adv-x="344" 
d="M305 -17l-6 -64q-129 13 -191.5 112t-62.5 291t62.5 291t191.5 112l6 -64q-92 -14 -136 -92t-44 -247t44 -247t136 -92z" />
    <glyph glyph-name="parenright" unicode=")" horiz-adv-x="344" 
d="M45 -81l-6 64q92 14 136 92t44 247t-44 247t-136 92l6 64q129 -13 191.5 -112t62.5 -291t-62.5 -291t-191.5 -112z" />
    <glyph glyph-name="asterisk" unicode="*" horiz-adv-x="417" 
d="M120 349l-57 45l91 109l-129 33l19 69l127 -44l-7 151h79l-9 -151l129 44l19 -68l-128 -34l90 -109l-57 -45l-84 116z" />
    <glyph glyph-name="plus" unicode="+" horiz-adv-x="506" 
d="M291 110h-75v164h-166v71h166v165h75v-165h165v-71h-165v-164z" />
    <glyph glyph-name="comma" unicode="," horiz-adv-x="230" 
d="M121 -2q-4 -1 -8 -1q-26 0 -41.5 15t-15.5 41q0 56 57 56q61 0 61 -83q0 -57 -26 -99.5t-76 -56.5l-17 39q60 20 66 89z" />
    <glyph glyph-name="hyphen" unicode="-" horiz-adv-x="431" 
d="M383 371v-72h-334v72h334z" />
    <glyph glyph-name="period" unicode="." horiz-adv-x="230" 
d="M56 52q0 57 60 57q58 0 58 -57q0 -27 -15.5 -42t-42.5 -15q-28 0 -44 15t-16 42z" />
    <glyph glyph-name="slash" unicode="/" horiz-adv-x="506" 
d="M501 700l-404 -700h-92l403 700h93z" />
    <glyph glyph-name="zero" unicode="0" horiz-adv-x="621" 
d="M310 612q126 0 188 -75t62 -238q0 -160 -62.5 -235.5t-187.5 -75.5t-187 75t-62 237q0 163 62 237.5t187 74.5zM310 542q-83 0 -123 -53.5t-40 -188.5q0 -134 40 -188t123 -54q84 0 124 53.5t40 188.5q0 133 -40 187.5t-124 54.5z" />
    <glyph glyph-name="one" unicode="1" horiz-adv-x="306" 
d="M218 0h-84v489l-88 -64l-37 69l155 106h54v-600z" />
    <glyph glyph-name="two" unicode="2" horiz-adv-x="514" 
d="M52 0v71l192 185q71 68 98.5 109.5t27.5 84.5q0 93 -113 93q-97 0 -147 -105l-62 44q62 130 215 130q93 0 142.5 -41t49.5 -114q0 -55 -36 -111t-121 -140l-140 -138l315 2v-70h-421z" />
    <glyph glyph-name="three" unicode="3" horiz-adv-x="584" 
d="M270 -113q-165 0 -231 119l62 49q52 -99 166 -99q81 0 124 36.5t43 108.5q0 60 -34 93t-101 33h-94v76h91q53 0 85 32t32 88q0 120 -144 120q-55 0 -91 -24.5t-65 -81.5l-62 47q35 66 89 97t137 31q105 0 163.5 -46.5t58.5 -139.5q0 -50 -24.5 -92t-70.5 -66
q56 -16 86 -58t30 -103q0 -100 -62.5 -160t-187.5 -60z" />
    <glyph glyph-name="four" unicode="4" horiz-adv-x="607" 
d="M35 83v57l222 460h86l-217 -448h277v326h84v-326h99v-69h-99v-183h-84v183h-368z" />
    <glyph glyph-name="five" unicode="5" horiz-adv-x="562" 
d="M172 526l-21 -221q61 40 149 40q98 0 162 -53.5t64 -165.5q0 -107 -66.5 -172.5t-185.5 -65.5q-167 0 -233 120l62 48q55 -100 171 -100q76 0 121 46t45 122q0 151 -162 151q-89 0 -162 -60l-49 26l35 359h387v-74h-317z" />
    <glyph glyph-name="six" unicode="6" horiz-adv-x="643" 
d="M350 -12q-126 0 -197.5 88.5t-71.5 271.5q0 364 273 364q159 0 216 -114l-65 -47q-48 91 -155 91q-86 0 -135 -68.5t-49 -233.5v-26q19 58 72 91.5t121 33.5q107 0 165.5 -57t58.5 -161q0 -107 -60 -170t-173 -63zM191 209q0 -68 41.5 -110t113.5 -42q69 0 110 39.5
t41 116.5q0 156 -153 156q-69 0 -111 -44.5t-42 -115.5z" />
    <glyph glyph-name="seven" unicode="7" horiz-adv-x="474" 
d="M155 -100q0 171 58.5 343.5t160.5 280.5h-340v76h445v-77q-109 -68 -174.5 -245.5t-66.5 -377.5h-83z" />
    <glyph glyph-name="eight" unicode="8" horiz-adv-x="620" 
d="M309 -12q-113 0 -176.5 54.5t-63.5 149.5q0 70 35 114t93 58q-49 18 -77.5 59t-28.5 101q0 93 56 140.5t162 47.5q107 0 163 -47.5t56 -139.5q0 -60 -28 -101.5t-77 -59.5q57 -15 92 -58.5t35 -113.5q0 -95 -63.5 -149.5t-177.5 -54.5zM466 195q0 64 -41.5 98.5
t-114.5 34.5q-74 0 -115.5 -34.5t-41.5 -98.5q0 -136 156 -136q76 0 116.5 34.5t40.5 101.5zM445 524q0 121 -136 121q-135 0 -135 -121q0 -58 34 -90.5t101 -32.5q68 0 102 33t34 90z" />
    <glyph glyph-name="nine" unicode="9" horiz-adv-x="642" 
d="M295 -112q-159 0 -216 114l65 47q48 -91 155 -91q86 0 135 68.5t49 233.5v26q-19 -60 -72 -95t-121 -35q-107 0 -165.5 58.5t-58.5 164.5q0 107 60 170t173 63q126 0 197.5 -88.5t71.5 -271.5q0 -364 -273 -364zM458 391q0 68 -41.5 110t-113.5 42q-69 0 -110 -40.5
t-41 -120.5q0 -156 153 -156q69 0 111 45.5t42 119.5z" />
    <glyph glyph-name="colon" unicode=":" horiz-adv-x="230" 
d="M56 52q0 57 60 57q58 0 58 -57q0 -27 -15.5 -42t-42.5 -15q-28 0 -44 15t-16 42zM56 429q0 57 60 57q58 0 58 -57q0 -27 -15.5 -42t-42.5 -15q-28 0 -44 15t-16 42z" />
    <glyph glyph-name="semicolon" unicode=";" horiz-adv-x="230" 
d="M121 -2q-4 -1 -8 -1q-26 0 -41.5 15t-15.5 41q0 56 57 56q61 0 61 -83q0 -57 -26 -99.5t-76 -56.5l-17 39q60 20 66 89zM57 429q0 57 60 57q58 0 58 -57q0 -27 -15.5 -42t-42.5 -15q-28 0 -44 15t-16 42z" />
    <glyph glyph-name="less" unicode="&#x3c;" horiz-adv-x="490" 
d="M361 524l42 -56l-219 -158l220 -157l-44 -60l-277 196v39z" />
    <glyph glyph-name="equal" unicode="=" horiz-adv-x="506" 
d="M456 273v-71h-406v71h406zM456 417v-71h-406v71h406z" />
    <glyph glyph-name="greater" unicode="&#x3e;" horiz-adv-x="490" 
d="M129 93l-42 56l220 158l-221 158l44 59l277 -196v-38z" />
    <glyph glyph-name="question" unicode="?" horiz-adv-x="507" 
d="M196 194v155h44q161 0 161 150q0 68 -41.5 103.5t-118.5 35.5q-61 0 -102 -25.5t-72 -88.5l-62 45q36 75 95.5 109t150.5 34q108 0 172.5 -55.5t64.5 -151.5q0 -95 -53 -149t-153 -61v-101h-86zM179 52q0 57 60 57q58 0 58 -57q0 -27 -15.5 -42t-42.5 -15q-28 0 -44 15
t-16 42z" />
    <glyph glyph-name="at" unicode="@" horiz-adv-x="818" 
d="M683 -2q-94 -99 -264 -99q-162 0 -254.5 93.5t-92.5 249.5t92.5 248.5t254.5 92.5q156 0 241 -84.5t85 -227.5q0 -89 -40 -139.5t-113 -50.5q-83 0 -98 65q-33 -73 -124 -73q-51 0 -83 26.5t-32 75.5t37 78t115 29h82q-1 50 -23 69.5t-68 19.5q-66 0 -96 -43l-32 35
q38 58 134 58q144 0 144 -140v-94q0 -66 58 -66q43 0 69.5 38.5t26.5 109.5q0 134 -76.5 204.5t-206.5 70.5q-139 0 -221 -78t-82 -224q0 -147 82 -225t222 -78q155 0 237 88zM383 121q46 0 75 31t30 84v1h-83q-91 0 -91 -60q0 -56 69 -56z" />
    <glyph glyph-name="A" unicode="A" horiz-adv-x="622" 
d="M518 0l-48 143h-321l-48 -143h-91l245 700h112l245 -700h-94zM308 619l-134 -401h270z" />
    <glyph glyph-name="B" unicode="B" horiz-adv-x="691" 
d="M110 0v700h293q206 0 206 -181q0 -57 -27 -97.5t-75 -58.5q59 -12 89.5 -58t30.5 -105q0 -200 -235 -200h-282zM400 319h-203v-245h200q142 0 142 127q0 118 -139 118zM403 626h-206v-230h202q62 0 92 32.5t30 83.5q0 114 -118 114z" />
    <glyph glyph-name="C" unicode="C" horiz-adv-x="699" 
d="M392 -12q-160 0 -237.5 85.5t-77.5 277.5t77.5 276.5t237.5 84.5q96 0 158 -31t97 -101l-70 -47q-28 59 -72 83t-113 24q-115 0 -170.5 -63t-55.5 -225t56 -227t170 -65q71 0 119.5 27t81.5 90l66 -45q-42 -76 -107.5 -110t-159.5 -34z" />
    <glyph glyph-name="D" unicode="D" horiz-adv-x="753" 
d="M199 76h171q106 0 162 63t56 212q0 147 -53 210t-158 63h-178v-548zM373 0h-263v700h264q155 0 229 -83t74 -263q0 -354 -304 -354z" />
    <glyph glyph-name="E" unicode="E" horiz-adv-x="666" 
d="M110 0v700h506v-76h-419v-233h367v-78h-367v-237h429v-76h-516z" />
    <glyph glyph-name="F" unicode="F" horiz-adv-x="614" 
d="M110 0v700h488v-76h-399v-236h358v-78h-358v-310h-89z" />
    <glyph glyph-name="G" unicode="G" horiz-adv-x="743" 
d="M377 -12q-300 0 -300 363q0 192 77.5 276.5t237.5 84.5q185 0 254 -128l-71 -48q-29 55 -72.5 79.5t-110.5 24.5q-77 0 -124 -23.5t-74.5 -88t-27.5 -177.5q0 -160 55 -225.5t167 -65.5q80 0 137.5 46.5t59.5 151.5v25h-191v70h273v-353h-74l-6 99q-29 -52 -85 -81.5
t-125 -29.5z" />
    <glyph glyph-name="H" unicode="H" horiz-adv-x="795" 
d="M596 0v313h-397v-313h-89v700h89v-309h397v309h89v-700h-89z" />
    <glyph glyph-name="I" unicode="I" horiz-adv-x="309" 
d="M110 0v700h89v-700h-89z" />
    <glyph glyph-name="J" unicode="J" horiz-adv-x="509" 
d="M174 -12q-92 0 -158 49l41 67q51 -42 124 -42q147 0 147 189v449h89v-442q0 -146 -64 -208t-179 -62z" />
    <glyph glyph-name="K" unicode="K" horiz-adv-x="641" 
d="M110 0v700h89v-389l319 389h106l-262 -313l277 -387h-106l-230 322l-104 -123v-199h-89z" />
    <glyph glyph-name="L" unicode="L" horiz-adv-x="633" 
d="M199 76h407v-76h-496v700h89v-624z" />
    <glyph glyph-name="M" unicode="M" horiz-adv-x="949" 
d="M439 0l-247 547l3 -547h-85v700h96l270 -599l268 599h95v-700h-86l4 547l-247 -547h-71z" />
    <glyph glyph-name="N" unicode="N" horiz-adv-x="783" 
d="M581 0l-388 569l3 -569h-86v700h90l389 -569l-2 569h86v-700h-92z" />
    <glyph glyph-name="O" unicode="O" horiz-adv-x="782" 
d="M77 351q0 189 77 275t237 86q165 0 240 -85t75 -276q0 -189 -77.5 -276t-237.5 -87q-162 0 -238 86.5t-76 276.5zM166 350q0 -160 55 -225t170 -65q116 0 171 64.5t55 227.5q0 159 -55.5 223.5t-170.5 64.5q-116 0 -170.5 -63.5t-54.5 -226.5z" />
    <glyph glyph-name="P" unicode="P" horiz-adv-x="672" 
d="M110 0v700h279q119 0 179.5 -57t60.5 -163q0 -116 -63.5 -175.5t-186.5 -59.5h-180v-245h-89zM390 624h-191v-303h190q72 0 111.5 39.5t39.5 116.5q0 147 -150 147z" />
    <glyph glyph-name="Q" unicode="Q" horiz-adv-x="779" 
d="M568 26l87 -118h-101l-66 90q-43 -10 -97 -10q-162 0 -238 86.5t-76 276.5q0 189 77 275t237 86q165 0 240 -85t75 -276q0 -249 -138 -325zM166 350q0 -160 55 -225t170 -65q25 0 48 3l-95 129h102l75 -103q97 59 97 263q0 159 -55.5 223.5t-171.5 64.5t-170.5 -63.5
t-54.5 -226.5z" />
    <glyph glyph-name="R" unicode="R" horiz-adv-x="676" 
d="M110 0v700h278q117 0 176 -54t59 -156q0 -163 -138 -210l150 -280h-98l-142 265h-196v-265h-89zM388 624h-189v-282h188q70 0 108.5 36.5t38.5 108.5q0 137 -146 137z" />
    <glyph glyph-name="S" unicode="S" horiz-adv-x="629" 
d="M552 588l-70 -44q-28 52 -69 75.5t-106 23.5q-158 0 -158 -111q0 -47 30.5 -79t103.5 -49l65 -15q115 -27 168 -74t53 -127q0 -98 -67 -149t-190 -51q-193 0 -274 136l70 44q40 -59 86 -85t116 -26q174 0 174 124q0 52 -31 78t-118 48l-65 16q-204 50 -204 205
q0 84 61.5 134t179.5 50q96 0 152 -30t93 -94z" />
    <glyph glyph-name="T" unicode="T" horiz-adv-x="571" 
d="M12 700h547v-76h-229v-624h-89v624h-229v76z" />
    <glyph glyph-name="U" unicode="U" horiz-adv-x="752" 
d="M571 271v429h89v-425q0 -140 -74.5 -213.5t-209.5 -73.5q-136 0 -210 73.5t-74 213.5v425h89v-429q0 -211 195 -211t195 211z" />
    <glyph glyph-name="V" unicode="V" horiz-adv-x="616" 
d="M7 700h94l208 -619l209 619h91l-245 -700h-112z" />
    <glyph glyph-name="W" unicode="W" horiz-adv-x="911" 
d="M413 698h87l158 -569l160 571h86l-205 -700h-85l-159 572l-158 -572h-86l-204 700h91l157 -575z" />
    <glyph glyph-name="X" unicode="X" horiz-adv-x="634" 
d="M517 0l-202 291l-203 -291h-99l252 358l-236 342h103l188 -275l186 275h99l-236 -340l252 -360h-104z" />
    <glyph glyph-name="Y" unicode="Y" horiz-adv-x="610" 
d="M261 280l-251 420h96l201 -346l200 346h93l-250 -420v-280h-89v280z" />
    <glyph glyph-name="Z" unicode="Z" horiz-adv-x="570" 
d="M20 0v67l423 558l-398 -1v76h504v-67l-426 -558l429 1v-76h-532z" />
    <glyph glyph-name="bracketleft" unicode="[" horiz-adv-x="339" 
d="M72 -105v821h224v-65h-146v-691h149v-65h-227z" />
    <glyph glyph-name="backslash" unicode="\" horiz-adv-x="511" 
d="M408 0l-403 700h89l403 -700h-89z" />
    <glyph glyph-name="bracketright" unicode="]" horiz-adv-x="339" 
d="M267 716v-821h-227v65h149v691h-146v65h224z" />
    <glyph glyph-name="asciicircum" unicode="^" horiz-adv-x="434" 
d="M175 700h85l149 -315v-2h-88l-104 231l-107 -231h-85v2z" />
    <glyph glyph-name="underscore" unicode="_" horiz-adv-x="480" 
d="M485 0v-66h-490v66h490z" />
    <glyph glyph-name="grave" unicode="`" horiz-adv-x="600" 
d="M275 574l-115 111v6h111l77 -113v-4h-73z" />
    <glyph glyph-name="a" unicode="a" horiz-adv-x="572" 
d="M228 -12q-75 0 -121.5 38.5t-46.5 107.5q0 74 51 118.5t163 44.5h126q-1 74 -32.5 103.5t-98.5 29.5q-93 0 -141 -65l-48 52q56 82 197 82q100 0 154.5 -46.5t54.5 -154.5v-298h-74l-7 89q-51 -101 -177 -101zM247 57q69 0 110.5 45.5t42.5 126.5v2h-125
q-69 0 -100 -22.5t-31 -71.5q0 -80 103 -80z" />
    <glyph glyph-name="b" unicode="b" horiz-adv-x="614" 
d="M179 700v-295q49 94 174 94q100 0 152 -64t52 -191q0 -124 -56 -190t-161 -66q-116 0 -165 91l-5 -79h-77v700h86zM179 242q0 -94 40 -139.5t108 -45.5q73 0 108.5 45t35.5 141q0 187 -141 187q-69 0 -110 -46.5t-41 -141.5z" />
    <glyph glyph-name="c" unicode="c" horiz-adv-x="532" 
d="M289 -12q-232 0 -232 256q0 255 233 255q141 0 200 -109l-62 -40q-41 80 -138 80q-78 0 -112.5 -42t-34.5 -145q0 -100 35.5 -143t110.5 -43q53 0 86 19.5t56 66.5l65 -34q-54 -121 -207 -121z" />
    <glyph glyph-name="d" unicode="d" horiz-adv-x="614" 
d="M442 0l-5 87q-48 -99 -175 -99q-100 0 -152.5 65.5t-52.5 190.5q0 124 55.5 189.5t160.5 65.5q110 0 162 -82v283h86v-700h-79zM435 245q0 93 -40.5 139t-108.5 46q-73 0 -108 -45.5t-35 -141.5q0 -186 142 -186q68 0 109 46.5t41 141.5z" />
    <glyph glyph-name="e" unicode="e" horiz-adv-x="547" 
d="M287 -12q-230 0 -230 255q0 125 59.5 190.5t172.5 65.5q104 0 156 -64t52 -171q0 -14 -2 -46h-353q4 -86 40.5 -123.5t106.5 -37.5q55 0 88 18.5t55 66.5l64 -33q-56 -121 -209 -121zM285 431q-65 0 -100 -34.5t-42 -112.5h269q-6 147 -127 147z" />
    <glyph glyph-name="f" unicode="f" horiz-adv-x="353" 
d="M26 487h90v59q0 172 156 172q45 0 79 -14l-14 -72q-31 12 -59 12q-39 0 -58.5 -23t-19.5 -80v-54h141v-67h-141v-420h-84v420h-90v67z" />
    <glyph glyph-name="g" unicode="g" horiz-adv-x="613" 
d="M520 487v-473q0 -117 -66 -173.5t-179 -56.5q-156 0 -210 115l62 44q24 -48 59.5 -68.5t88.5 -20.5q159 0 159 151v88q-47 -92 -170 -92q-99 0 -153 64t-54 186q0 121 53.5 184.5t154.5 63.5q124 0 172 -91l9 79h74zM434 253q0 91 -41 134.5t-109 43.5
q-72 0 -106.5 -43.5t-34.5 -135.5q0 -93 35 -137t106 -44q69 0 109.5 44.5t40.5 137.5z" />
    <glyph glyph-name="h" unicode="h" horiz-adv-x="630" 
d="M179 700v-307q50 106 185 106q180 0 180 -195v-304h-86v282q0 144 -120 144q-73 0 -115.5 -48t-43.5 -135v-243h-86v700h86z" />
    <glyph glyph-name="i" unicode="i" horiz-adv-x="276" 
d="M95 487h86v-487h-86v487zM79 638q0 56 59 56t59 -56q0 -57 -59 -57t-59 57z" />
    <glyph glyph-name="j" unicode="j" horiz-adv-x="276" 
d="M95 -33v520h86v-531q0 -172 -153 -172q-38 0 -77 13l14 72q28 -11 58 -11q36 0 54 24t18 85zM79 638q0 56 59 56t59 -56q0 -57 -59 -57t-59 57z" />
    <glyph glyph-name="k" unicode="k" horiz-adv-x="524" 
d="M93 0v700h86v-475l232 262h104l-201 -218l203 -269h-102l-156 211l-80 -85v-126h-86z" />
    <glyph glyph-name="l" unicode="l" horiz-adv-x="276" 
d="M181 700v-700h-86v700h86z" />
    <glyph glyph-name="m" unicode="m" horiz-adv-x="929" 
d="M93 0v487h74l9 -90q49 102 168 102q62 0 100 -32.5t50 -86.5q23 61 73 90t113 29q163 0 163 -191v-308h-86v286q0 74 -26 106.5t-77 32.5q-65 0 -103.5 -44.5t-40.5 -127.5v-253h-86v282q0 75 -27 109t-80 34q-63 0 -100 -44.5t-38 -129.5v-251h-86z" />
    <glyph glyph-name="n" unicode="n" horiz-adv-x="630" 
d="M93 487h75l9 -93q51 105 187 105q180 0 180 -195v-304h-86v284q0 74 -30 108t-90 34q-72 0 -114.5 -48t-44.5 -135v-243h-86v487z" />
    <glyph glyph-name="o" unicode="o" horiz-adv-x="586" 
d="M443 244q0 101 -36 143.5t-114 42.5q-79 0 -114.5 -42t-35.5 -144q0 -101 36 -144t114 -43t114 43t36 144zM57 245q0 254 236 254q120 0 178 -61t58 -193q0 -257 -236 -257q-117 0 -176.5 62t-59.5 195z" />
    <glyph glyph-name="p" unicode="p" horiz-adv-x="614" 
d="M93 487h74l9 -88q48 100 177 100q100 0 152 -65t52 -189t-56.5 -190.5t-161.5 -66.5q-111 0 -160 81v-256h-86v674zM179 243q0 -94 39.5 -140t107.5 -46q145 0 145 187q0 186 -141 186q-69 0 -110 -46t-41 -141z" />
    <glyph glyph-name="q" unicode="q" horiz-adv-x="614" 
d="M521 -186h-86v267q-52 -93 -174 -93q-99 0 -151.5 64.5t-52.5 190.5q0 124 56 190t160 66q115 0 164 -92l9 80h75v-673zM435 245q0 94 -40.5 139.5t-108.5 45.5q-73 0 -108 -45t-35 -141q0 -187 142 -187q69 0 109.5 46t40.5 142z" />
    <glyph glyph-name="r" unicode="r" horiz-adv-x="381" 
d="M93 0v487h74l9 -103q25 59 74 87.5t112 23.5v-82q-89 9 -135 -37.5t-48 -141.5v-234h-86z" />
    <glyph glyph-name="s" unicode="s" horiz-adv-x="511" 
d="M249 54q114 0 114 75q0 32 -22 48t-75 27l-44 9q-85 19 -122 55t-37 90q0 64 46.5 102.5t139.5 38.5q62 0 103.5 -19t73.5 -59l-55 -53q-27 34 -55 48.5t-73 14.5q-100 0 -100 -67q0 -58 89 -77l55 -12q87 -19 122 -53t35 -87q0 -64 -45.5 -105.5t-150.5 -41.5
q-148 0 -208 99l61 44q26 -42 60.5 -59.5t87.5 -17.5z" />
    <glyph glyph-name="t" unicode="t" horiz-adv-x="360" 
d="M17 487h86v143h84v-143h141v-67h-141v-255q0 -60 21 -81.5t61 -21.5q27 0 59 10l14 -70q-41 -14 -83 -14q-156 0 -156 174v258h-86v67z" />
    <glyph glyph-name="u" unicode="u" horiz-adv-x="626" 
d="M459 0l-7 86q-53 -98 -178 -98q-94 0 -141 52.5t-47 150.5v296h86v-284q0 -145 122 -145q71 0 111 46.5t42 133.5v249h86v-487h-74z" />
    <glyph glyph-name="v" unicode="v" horiz-adv-x="502" 
d="M7 487h91l155 -405l154 405h88l-196 -487h-95z" />
    <glyph glyph-name="w" unicode="w" horiz-adv-x="732" 
d="M324 484h89l115 -387l115 390h82l-155 -487h-91l-113 387l-111 -387h-91l-157 487h86l117 -389z" />
    <glyph glyph-name="x" unicode="x" horiz-adv-x="504" 
d="M19 487h102l134 -180l132 180h99l-184 -238l195 -249h-102l-145 190l-144 -190h-99l196 250z" />
    <glyph glyph-name="y" unicode="y" horiz-adv-x="502" 
d="M186 -65l20 56l-201 496h91l155 -406l155 406h89l-235 -580q-28 -68 -71 -95.5t-104 -27.5q-38 0 -78 13l14 72q35 -11 65 -11q71 0 100 77z" />
    <glyph glyph-name="z" unicode="z" horiz-adv-x="489" 
d="M40 0v64l297 354h-292v69h394v-65l-299 -353h307v-69h-407z" />
    <glyph glyph-name="braceleft" unicode="{" horiz-adv-x="347" 
d="M293 -82q-77 7 -115.5 41.5t-38.5 102.5q0 22 5 61t5 58q0 56 -25.5 82t-79.5 26h-35v65h35q54 0 79.5 26t25.5 82q0 19 -5 58t-5 62q0 67 38.5 101.5t115.5 41.5l6 -65q-41 -5 -61 -25t-20 -60q0 -20 4.5 -60.5t4.5 -61.5q0 -98 -87 -131q87 -34 87 -132q0 -21 -4.5 -61
t-4.5 -60q0 -41 20 -61t61 -25z" />
    <glyph glyph-name="bar" unicode="|" horiz-adv-x="297" 
d="M110 -65v831h78v-831h-78z" />
    <glyph glyph-name="braceright" unicode="}" horiz-adv-x="347" 
d="M52 -82l-6 65q41 5 61 25t20 61q0 20 -4.5 60t-4.5 61q0 98 87 132q-87 33 -87 131q0 21 4.5 61.5t4.5 60.5q0 40 -20 60t-61 25l6 65q77 -7 115.5 -41.5t38.5 -101.5q0 -23 -5 -62t-5 -58q0 -56 25.5 -82t79.5 -26h35v-65h-35q-54 0 -79.5 -26t-25.5 -82q0 -19 5 -58
t5 -61q0 -68 -38.5 -102.5t-115.5 -41.5z" />
    <glyph glyph-name="asciitilde" unicode="~" horiz-adv-x="532" 
d="M432 415l76 -10q-4 -66 -39.5 -100t-94.5 -34q-47 0 -121 38q-62 30 -90 30q-55 0 -61 -66l-76 10q4 67 40 100.5t96 33.5q47 0 121 -37q60 -29 88 -29q57 0 61 64z" />
    <glyph glyph-name="nbspace" unicode="&#xa0;" horiz-adv-x="176" 
 />
    <glyph glyph-name="exclamdown" unicode="&#xa1;" horiz-adv-x="227" 
d="M66 -202l12 506h71l12 -506h-95zM172 446q0 -57 -59 -57t-59 57q0 27 16 42t43 15q28 0 43.5 -15t15.5 -42z" />
    <glyph glyph-name="cent" unicode="&#xa2;" horiz-adv-x="549" 
d="M257 -62v77q-191 20 -191 242q0 221 191 241v80h71v-79q111 -10 161 -103l-62 -40q-31 61 -99 72v-345q71 8 107 80l65 -34q-47 -104 -172 -115v-76h-71zM152 256q0 -81 25.5 -121.5t79.5 -49.5v343q-55 -9 -80 -49t-25 -123z" />
    <glyph glyph-name="sterling" unicode="&#xa3;" horiz-adv-x="569" 
d="M34 0v69h38q34 0 43.5 26.5t7.5 86.5l-4 120h-85v68h83l-3 117q-3 112 52.5 168.5t161.5 56.5q134 0 193 -117l-66 -43q-42 91 -129 91q-130 0 -126 -157l4 -116h188v-68h-185l3 -124q2 -82 -23 -109h177q46 0 77 14t57 47l48 -48q-33 -44 -75 -63t-105 -19h-332z" />
    <glyph glyph-name="yen" unicode="&#xa5;" horiz-adv-x="610" 
d="M547 287v-68h-197v-219h-89v219h-197v68h193l-34 56h-159v68h119l-173 289h96l201 -346l200 346h93l-172 -289h119v-68h-160l-33 -56h193z" />
    <glyph glyph-name="brokenbar" unicode="&#xa6;" horiz-adv-x="297" 
d="M110 388v378h78v-378h-78zM110 -65v379h78v-379h-78z" />
    <glyph glyph-name="section" unicode="&#xa7;" horiz-adv-x="519" 
d="M260 -23q-140 0 -195 93l61 41q24 -38 55 -54t79 -16q108 0 108 74q0 29 -21.5 47.5t-76.5 30.5l-44 10q-149 36 -149 146q0 89 83 112q-68 39 -68 113q0 60 39 99t130 39q58 0 95 -16.5t68 -52.5l-54 -50q-24 30 -49 43t-63 13q-91 0 -91 -72q0 -58 85 -80l53 -13
q85 -22 121.5 -55t36.5 -89q0 -85 -86 -111q71 -36 71 -112q0 -59 -43 -99t-145 -41zM382 333q2 66 -100 84l-30 6q-48 8 -73 -13.5t-26 -55.5q-1 -27 19 -49.5t63 -30.5l30 -6q53 -10 84.5 7.5t32.5 57.5z" />
    <glyph glyph-name="dieresis" unicode="&#xa8;" horiz-adv-x="600" 
d="M159 637q0 56 60 56q59 0 59 -56q0 -57 -59 -57q-28 0 -44 15t-16 42zM332 637q0 56 60 56q59 0 59 -56q0 -57 -59 -57q-28 0 -44 15t-16 42z" />
    <glyph glyph-name="copyright" unicode="&#xa9;" horiz-adv-x="833" 
d="M72 350q0 156 91.5 248.5t253.5 92.5q161 0 252.5 -92.5t91.5 -248.5t-91.5 -249t-252.5 -93q-162 0 -253.5 93t-91.5 249zM116 350q0 -146 81.5 -224t219.5 -78t219.5 78t81.5 224t-81.5 224t-219.5 78t-219.5 -78t-81.5 -224zM421 176q-170 0 -170 177q0 179 170 179
q103 0 145 -77l-48 -31q-29 56 -97 56q-54 0 -79.5 -30.5t-25.5 -96.5t25.5 -94.5t79.5 -28.5q38 0 61 12.5t38 44.5l50 -26q-38 -85 -149 -85z" />
    <glyph glyph-name="ordfeminine" unicode="&#xaa;" horiz-adv-x="410" 
d="M163 348q-53 0 -86 28.5t-33 79.5t38 81t119 30h84q-1 50 -23 70t-68 20q-66 0 -100 -46l-36 42q42 59 143 59q151 0 151 -144v-209h-59l-5 58q-34 -69 -125 -69zM181 403q47 0 75.5 31t28.5 83v2h-85q-91 0 -91 -62q0 -54 72 -54z" />
    <glyph glyph-name="guillemotleft" unicode="&#xab;" horiz-adv-x="634" 
d="M247 0l-192 242v3l191 242h98l-192 -241l196 -246h-101zM466 0l-198 244v3l192 240h99l-194 -239l201 -248h-100z" />
    <glyph glyph-name="uni00AD" unicode="&#xad;" horiz-adv-x="410" 
d="M362 371v-72h-313v72h313z" />
    <glyph glyph-name="registered" unicode="&#xae;" horiz-adv-x="473" 
d="M48 525q0 85 50 136t139 51q88 0 138.5 -51t50.5 -136t-50.5 -136t-138.5 -51q-89 0 -139 51t-50 136zM78 525q0 -78 43.5 -120t115.5 -42t115 42t43 120q0 77 -43 119t-115 42t-115.5 -42t-43.5 -119zM165 437v184h78q33 0 51 -16t18 -43q0 -45 -37 -59l36 -66h-38
l-33 61h-41v-61h-34zM243 592h-44v-65h39q39 0 39 33q0 32 -34 32z" />
    <glyph glyph-name="macron" unicode="&#xaf;" horiz-adv-x="600" 
d="M431 660v-59h-254v59h254z" />
    <glyph glyph-name="degree" unicode="&#xb0;" horiz-adv-x="467" 
d="M52 531q0 83 48 132t135 49q85 0 133.5 -49t48.5 -132q0 -82 -48.5 -131.5t-133.5 -49.5q-86 0 -134.5 49.5t-48.5 131.5zM119 531q0 -60 31 -91.5t85 -31.5q52 0 83 32t31 91t-31 91t-83 32q-54 0 -85 -31.5t-31 -91.5z" />
    <glyph glyph-name="plusminus" unicode="&#xb1;" horiz-adv-x="506" 
d="M291 136h-75v151h-166v70h166v153h75v-153h165v-70h-165v-151zM456 71v-71h-406v71h406z" />
    <glyph glyph-name="twosuperior" unicode="&#xb2;" horiz-adv-x="370" 
d="M33 294v61l133 119q44 39 62 64t18 52q0 60 -72 60q-37 0 -59 -14.5t-39 -48.5l-50 37q45 88 155 88q65 0 101.5 -29.5t36.5 -85.5q0 -39 -23 -75t-79 -86l-85 -78l203 3v-67h-302z" />
    <glyph glyph-name="threesuperior" unicode="&#xb3;" horiz-adv-x="372" 
d="M177 284q-108 0 -152 74l51 39q32 -53 96 -53q87 0 87 68q0 62 -74 62h-53v60h52q30 0 46.5 15t16.5 43q0 59 -74 59q-33 0 -53.5 -12.5t-37.5 -42.5l-49 35q41 81 147 81q66 0 103 -29t37 -85q0 -61 -56 -92q66 -23 66 -93q0 -59 -38.5 -94t-114.5 -35z" />
    <glyph glyph-name="acute" unicode="&#xb4;" horiz-adv-x="600" 
d="M436 685l-114 -111h-73v4l76 113h111v-6z" />
    <glyph glyph-name="paragraph" unicode="&#xb6;" horiz-adv-x="660" 
d="M595 700v-700h-86v245h-73v-245h-87v245h-5q-126 0 -191 59.5t-65 175.5q0 106 62 163t184 57h261zM509 625h-73v-303h73v303zM174 477q0 -77 39.5 -116t111.5 -39h24v303h-25q-75 0 -112.5 -38t-37.5 -110z" />
    <glyph glyph-name="periodcentered" unicode="&#xb7;" horiz-adv-x="230" 
d="M56 337q0 57 60 57q58 0 58 -57q0 -27 -15.5 -42t-42.5 -15q-28 0 -44 15t-16 42z" />
    <glyph glyph-name="cedilla" unicode="&#xb8;" horiz-adv-x="600" 
d="M300 0h61l-17 -61h3q37 0 62 -22.5t25 -61.5q0 -44 -33 -68t-82 -24q-82 0 -118 59l42 40q29 -46 73 -46q54 0 54 39q0 19 -14.5 30.5t-39.5 11.5q-7 0 -23 -2l-16 15z" />
    <glyph glyph-name="onesuperior" unicode="&#xb9;" horiz-adv-x="225" 
d="M162 294h-72v320l-51 -32l-28 57l105 64h46v-409z" />
    <glyph glyph-name="ordmasculine" unicode="&#xba;" horiz-adv-x="424" 
d="M315 531q0 68 -25 98t-78 30t-78 -30t-25 -98q0 -69 25 -99t78 -30t78 30t25 99zM42 531q0 181 170 181q85 0 127.5 -43.5t42.5 -137.5q0 -183 -170 -183t-170 183z" />
    <glyph glyph-name="guillemotright" unicode="&#xbb;" horiz-adv-x="634" 
d="M387 487l192 -242v-3l-191 -242h-98l192 241l-196 246h101zM168 487l198 -244v-3l-192 -240h-99l194 239l-201 248h100z" />
    <glyph glyph-name="onequarter" unicode="&#xbc;" horiz-adv-x="852" 
d="M162 293h-72v320l-51 -32l-28 57l105 64h46v-409zM556 700l-338 -700h-81l339 700h80zM482 97v51l130 260h72l-126 -247h150v167h67v-167h57v-64h-57v-97h-67v97h-226z" />
    <glyph glyph-name="onehalf" unicode="&#xbd;" horiz-adv-x="827" 
d="M490 0v61l133 119q44 39 62 64t18 52q0 60 -72 60q-37 0 -59 -14.5t-39 -48.5l-50 37q45 88 155 88q65 0 101.5 -29.5t36.5 -85.5q0 -39 -23 -75t-79 -86l-85 -78l203 3v-67h-302zM162 293h-72v320l-51 -32l-28 57l105 64h46v-409zM556 700l-338 -700h-81l339 700h80z
" />
    <glyph glyph-name="threequarters" unicode="&#xbe;" horiz-adv-x="952" 
d="M177 283q-108 0 -152 74l51 39q32 -53 96 -53q87 0 87 68q0 62 -74 62h-53v60h52q30 0 46.5 15t16.5 43q0 59 -74 59q-33 0 -53.5 -12.5t-37.5 -42.5l-49 35q41 81 147 81q66 0 103 -29t37 -85q0 -61 -56 -92q66 -23 66 -93q0 -59 -38.5 -94t-114.5 -35zM681 700
l-338 -700h-81l339 700h80zM582 97v51l130 260h72l-126 -247h150v167h67v-167h57v-64h-57v-97h-67v97h-226z" />
    <glyph glyph-name="questiondown" unicode="&#xbf;" horiz-adv-x="507" 
d="M303 304v-155h-44q-161 0 -161 -150q0 -68 41.5 -103.5t118.5 -35.5q61 0 102 25.5t72 88.5l62 -45q-36 -75 -95.5 -109t-150.5 -34q-108 0 -172.5 55.5t-64.5 151.5q0 95 53 149t153 61v101h86zM320 446q0 -57 -60 -57q-58 0 -58 57q0 27 15.5 42t42.5 15q28 0 44 -15
t16 -42z" />
    <glyph glyph-name="Agrave" unicode="&#xc0;" horiz-adv-x="622" 
d="M518 0l-48 143h-321l-48 -143h-91l245 700h112l245 -700h-94zM308 619l-134 -401h270zM286 789l-115 111v6h111l77 -113v-4h-73z" />
    <glyph glyph-name="Aacute" unicode="&#xc1;" horiz-adv-x="622" 
d="M518 0l-48 143h-321l-48 -143h-91l245 700h112l245 -700h-94zM308 619l-134 -401h270zM462 899l-114 -111h-73v4l76 113h111v-6z" />
    <glyph glyph-name="Acircumflex" unicode="&#xc2;" horiz-adv-x="622" 
d="M518 0l-48 143h-321l-48 -143h-91l245 700h112l245 -700h-94zM308 619l-134 -401h270zM316 857l-70 -69h-93v3l122 114h83l123 -114v-3h-98z" />
    <glyph glyph-name="Atilde" unicode="&#xc3;" horiz-adv-x="622" 
d="M518 0l-48 143h-321l-48 -143h-91l245 700h112l245 -700h-94zM308 619l-134 -401h270zM406 898h65q4 -53 -23 -77t-65 -24q-31 0 -73 20.5t-58 20.5q-29 0 -29 -37h-66q-3 53 23 77t64 24q32 0 75 -20.5t58 -20.5q29 0 29 37z" />
    <glyph glyph-name="Adieresis" unicode="&#xc4;" horiz-adv-x="622" 
d="M518 0l-48 143h-321l-48 -143h-91l245 700h112l245 -700h-94zM308 619l-134 -401h270zM168 851q0 56 60 56q59 0 59 -56q0 -57 -59 -57q-28 0 -44 15t-16 42zM341 851q0 56 60 56q59 0 59 -56q0 -57 -59 -57q-28 0 -44 15t-16 42z" />
    <glyph glyph-name="Aring" unicode="&#xc5;" horiz-adv-x="622" 
d="M518 0l-48 143h-321l-48 -143h-91l245 700h112l245 -700h-94zM308 619l-134 -401h270zM219 855q0 43 27 68.5t70 25.5q42 0 69 -25.5t27 -68.5t-27 -68.5t-70 -25.5q-42 0 -69 25.5t-27 68.5zM267 855q0 -23 13.5 -38t34.5 -15t35 15t14 38t-13.5 37.5t-34.5 14.5
q-22 0 -35.5 -14.5t-13.5 -37.5z" />
    <glyph glyph-name="AE" unicode="&#xc6;" horiz-adv-x="927" 
d="M511 0l-46 143h-316l-48 -143h-91l249 700h618v-76h-474l76 -233h345v-78h-320l77 -237h306v-76h-376zM314 623l-138 -405h266z" />
    <glyph glyph-name="Ccedilla" unicode="&#xc7;" horiz-adv-x="699" 
d="M659 132q-74 -134 -239 -143l-14 -50h3q37 0 62 -22.5t25 -61.5q0 -44 -33 -68t-82 -24q-82 0 -118 59l42 40q29 -46 73 -46q54 0 54 39q0 19 -14.5 30.5t-39.5 11.5q-7 0 -23 -2l-16 15l20 79q-143 8 -212.5 94t-69.5 268q0 192 77.5 276.5t237.5 84.5q96 0 158 -31
t97 -101l-70 -47q-28 59 -72 83t-113 24q-115 0 -170.5 -63t-55.5 -225t56 -227t170 -65q71 0 119.5 27t81.5 90z" />
    <glyph glyph-name="Egrave" unicode="&#xc8;" horiz-adv-x="666" 
d="M110 0v700h506v-76h-419v-233h367v-78h-367v-237h429v-76h-516zM345 789l-115 111v6h111l77 -113v-4h-73z" />
    <glyph glyph-name="Eacute" unicode="&#xc9;" horiz-adv-x="666" 
d="M521 899l-114 -111h-73v4l76 113h111v-6zM110 0v700h506v-76h-419v-233h367v-78h-367v-237h429v-76h-516z" />
    <glyph glyph-name="Ecircumflex" unicode="&#xca;" horiz-adv-x="666" 
d="M375 857l-70 -69h-93v3l122 114h83l123 -114v-3h-98zM110 0v700h506v-76h-419v-233h367v-78h-367v-237h429v-76h-516z" />
    <glyph glyph-name="Edieresis" unicode="&#xcb;" horiz-adv-x="666" 
d="M227 851q0 56 60 56q59 0 59 -56q0 -57 -59 -57q-28 0 -44 15t-16 42zM400 851q0 56 60 56q59 0 59 -56q0 -57 -59 -57q-28 0 -44 15t-16 42zM110 0v700h506v-76h-419v-233h367v-78h-367v-237h429v-76h-516z" />
    <glyph glyph-name="Igrave" unicode="&#xcc;" horiz-adv-x="309" 
d="M110 0v700h89v-700h-89zM125 789l-115 111v6h111l77 -113v-4h-73z" />
    <glyph glyph-name="Iacute" unicode="&#xcd;" horiz-adv-x="309" 
d="M110 0v700h89v-700h-89zM301 899l-114 -111h-73v4l76 113h111v-6z" />
    <glyph glyph-name="Icircumflex" unicode="&#xce;" horiz-adv-x="309" 
d="M110 0v700h89v-700h-89zM155 857l-70 -69h-93v3l122 114h83l123 -114v-3h-98z" />
    <glyph glyph-name="Idieresis" unicode="&#xcf;" horiz-adv-x="309" 
d="M110 0v700h89v-700h-89zM7 851q0 56 60 56q59 0 59 -56q0 -57 -59 -57q-28 0 -44 15t-16 42zM180 851q0 56 60 56q59 0 59 -56q0 -57 -59 -57q-28 0 -44 15t-16 42z" />
    <glyph glyph-name="Eth" unicode="&#xd0;" horiz-adv-x="773" 
d="M393 0h-263v323h-82v71h82v306h264q155 0 229 -83t74 -263q0 -354 -304 -354zM219 76h171q106 0 162 63t56 212q0 147 -53 210t-158 63h-178v-230h160v-71h-160v-247z" />
    <glyph glyph-name="Ntilde" unicode="&#xd1;" horiz-adv-x="783" 
d="M581 0l-388 569l3 -569h-86v700h90l389 -569l-2 569h86v-700h-92zM481 898h65q4 -53 -23 -77t-65 -24q-30 0 -73 20.5t-58 20.5q-29 0 -29 -37h-66q-3 53 23 77t64 24q32 0 75 -20.5t58 -20.5q29 0 29 37z" />
    <glyph glyph-name="Ograve" unicode="&#xd2;" horiz-adv-x="782" 
d="M77 351q0 189 77 275t237 86q165 0 240 -85t75 -276q0 -189 -77.5 -276t-237.5 -87q-162 0 -238 86.5t-76 276.5zM166 350q0 -160 55 -225t170 -65q116 0 171 64.5t55 227.5q0 159 -55.5 223.5t-170.5 64.5q-116 0 -170.5 -63.5t-54.5 -226.5zM362 790l-115 111v6h111
l77 -113v-4h-73z" />
    <glyph glyph-name="Oacute" unicode="&#xd3;" horiz-adv-x="782" 
d="M538 899l-114 -111h-73v4l76 113h111v-6zM77 351q0 189 77 275t237 86q165 0 240 -85t75 -276q0 -189 -77.5 -276t-237.5 -87q-162 0 -238 86.5t-76 276.5zM166 350q0 -160 55 -225t170 -65q116 0 171 64.5t55 227.5q0 159 -55.5 223.5t-170.5 64.5q-116 0 -170.5 -63.5
t-54.5 -226.5z" />
    <glyph glyph-name="Ocircumflex" unicode="&#xd4;" horiz-adv-x="782" 
d="M392 857l-70 -69h-93v3l122 114h83l123 -114v-3h-98zM77 351q0 189 77 275t237 86q165 0 240 -85t75 -276q0 -189 -77.5 -276t-237.5 -87q-162 0 -238 86.5t-76 276.5zM166 350q0 -160 55 -225t170 -65q116 0 171 64.5t55 227.5q0 159 -55.5 223.5t-170.5 64.5
q-116 0 -170.5 -63.5t-54.5 -226.5z" />
    <glyph glyph-name="Otilde" unicode="&#xd5;" horiz-adv-x="782" 
d="M77 351q0 189 77 275t237 86q165 0 240 -85t75 -276q0 -189 -77.5 -276t-237.5 -87q-162 0 -238 86.5t-76 276.5zM166 350q0 -160 55 -225t170 -65q116 0 171 64.5t55 227.5q0 159 -55.5 223.5t-170.5 64.5q-116 0 -170.5 -63.5t-54.5 -226.5zM482 898h65q4 -53 -23 -77
t-65 -24q-31 0 -73 20.5t-58 20.5q-29 0 -29 -37h-66q-3 53 23 77t64 24q32 0 75 -20.5t58 -20.5q29 0 29 37z" />
    <glyph glyph-name="Odieresis" unicode="&#xd6;" horiz-adv-x="782" 
d="M244 851q0 56 60 56q59 0 59 -56q0 -57 -59 -57q-28 0 -44 15t-16 42zM417 851q0 56 60 56q59 0 59 -56q0 -57 -59 -57q-28 0 -44 15t-16 42zM77 351q0 189 77 275t237 86q165 0 240 -85t75 -276q0 -189 -77.5 -276t-237.5 -87q-162 0 -238 86.5t-76 276.5zM166 350
q0 -160 55 -225t170 -65q116 0 171 64.5t55 227.5q0 159 -55.5 223.5t-170.5 64.5q-116 0 -170.5 -63.5t-54.5 -226.5z" />
    <glyph glyph-name="multiply" unicode="&#xd7;" horiz-adv-x="493" 
d="M120 140l-49 49l125 124l-126 127l52 52l126 -127l126 126l48 -48l-126 -126l127 -126l-52 -52l-127 126z" />
    <glyph glyph-name="Oslash" unicode="&#xd8;" horiz-adv-x="792" 
d="M140 0h-95l91 104q-54 87 -54 247q0 189 77 275t237 86q144 0 218 -64l46 52h94l-94 -107q51 -87 51 -242q0 -189 -77.5 -276t-237.5 -87q-139 0 -213 61zM396 60q116 0 171 64.5t55 227.5q0 107 -25 169l-359 -410q51 -51 158 -51zM396 640q-116 0 -170.5 -63.5
t-54.5 -226.5q0 -112 27 -176l361 410q-53 56 -163 56z" />
    <glyph glyph-name="Ugrave" unicode="&#xd9;" horiz-adv-x="752" 
d="M571 271v429h89v-425q0 -140 -74.5 -213.5t-209.5 -73.5q-136 0 -210 73.5t-74 213.5v425h89v-429q0 -211 195 -211t195 211zM349 790l-115 111v6h111l77 -113v-4h-73z" />
    <glyph glyph-name="Uacute" unicode="&#xda;" horiz-adv-x="752" 
d="M524 899l-114 -111h-73v4l76 113h111v-6zM571 271v429h89v-425q0 -140 -74.5 -213.5t-209.5 -73.5q-136 0 -210 73.5t-74 213.5v425h89v-429q0 -211 195 -211t195 211z" />
    <glyph glyph-name="Ucircumflex" unicode="&#xdb;" horiz-adv-x="752" 
d="M378 857l-70 -69h-93v3l122 114h83l123 -114v-3h-98zM571 271v429h89v-425q0 -140 -74.5 -213.5t-209.5 -73.5q-136 0 -210 73.5t-74 213.5v425h89v-429q0 -211 195 -211t195 211z" />
    <glyph glyph-name="Udieresis" unicode="&#xdc;" horiz-adv-x="752" 
d="M231 851q0 56 60 56q59 0 59 -56q0 -57 -59 -57q-28 0 -44 15t-16 42zM404 851q0 56 60 56q59 0 59 -56q0 -57 -59 -57q-28 0 -44 15t-16 42zM571 271v429h89v-425q0 -140 -74.5 -213.5t-209.5 -73.5q-136 0 -210 73.5t-74 213.5v425h89v-429q0 -211 195 -211t195 211z
" />
    <glyph glyph-name="Yacute" unicode="&#xdd;" horiz-adv-x="610" 
d="M261 280l-251 420h96l201 -346l200 346h93l-250 -420v-280h-89v280zM453 899l-114 -111h-73v4l76 113h111v-6z" />
    <glyph glyph-name="Thorn" unicode="&#xde;" horiz-adv-x="653" 
d="M110 0v700h89v-131h186q112 0 168.5 -52.5t56.5 -151.5q0 -107 -61 -162.5t-175 -55.5h-175v-147h-89zM385 492h-186v-269h185q137 0 137 136q0 133 -136 133z" />
    <glyph glyph-name="germandbls" unicode="&#xdf;" horiz-adv-x="622" 
d="M342 342h-51v68h51q55 0 80 31.5t25 83.5q0 116 -131 116q-70 0 -106 -41.5t-36 -119.5v-480h-86v487q0 108 60.5 166.5t166.5 58.5q103 0 160 -48.5t57 -135.5q0 -96 -69 -144q116 -37 116 -174q0 -97 -59 -156t-160 -60q-55 0 -98 17l17 69q39 -14 70 -14
q70 0 107.5 35.5t37.5 105.5q0 135 -152 135z" />
    <glyph glyph-name="agrave" unicode="&#xe0;" horiz-adv-x="572" 
d="M228 -12q-75 0 -121.5 38.5t-46.5 107.5q0 74 51 118.5t163 44.5h126q-1 74 -32.5 103.5t-98.5 29.5q-93 0 -141 -65l-48 52q56 82 197 82q100 0 154.5 -46.5t54.5 -154.5v-298h-74l-7 89q-51 -101 -177 -101zM247 57q69 0 110.5 45.5t42.5 126.5v2h-125
q-69 0 -100 -22.5t-31 -71.5q0 -80 103 -80zM245 574l-115 111v6h111l77 -113v-4h-73z" />
    <glyph glyph-name="aacute" unicode="&#xe1;" horiz-adv-x="572" 
d="M228 -12q-75 0 -121.5 38.5t-46.5 107.5q0 74 51 118.5t163 44.5h126q-1 74 -32.5 103.5t-98.5 29.5q-93 0 -141 -65l-48 52q56 82 197 82q100 0 154.5 -46.5t54.5 -154.5v-298h-74l-7 89q-51 -101 -177 -101zM247 57q69 0 110.5 45.5t42.5 126.5v2h-125
q-69 0 -100 -22.5t-31 -71.5q0 -80 103 -80zM421 685l-114 -111h-73v4l76 113h111v-6z" />
    <glyph glyph-name="acircumflex" unicode="&#xe2;" horiz-adv-x="572" 
d="M228 -12q-75 0 -121.5 38.5t-46.5 107.5q0 74 51 118.5t163 44.5h126q-1 74 -32.5 103.5t-98.5 29.5q-93 0 -141 -65l-48 52q56 82 197 82q100 0 154.5 -46.5t54.5 -154.5v-298h-74l-7 89q-51 -101 -177 -101zM247 57q69 0 110.5 45.5t42.5 126.5v2h-125
q-69 0 -100 -22.5t-31 -71.5q0 -80 103 -80zM275 643l-70 -69h-93v3l122 114h83l123 -114v-3h-98z" />
    <glyph glyph-name="atilde" unicode="&#xe3;" horiz-adv-x="572" 
d="M228 -12q-75 0 -121.5 38.5t-46.5 107.5q0 74 51 118.5t163 44.5h126q-1 74 -32.5 103.5t-98.5 29.5q-93 0 -141 -65l-48 52q56 82 197 82q100 0 154.5 -46.5t54.5 -154.5v-298h-74l-7 89q-51 -101 -177 -101zM247 57q69 0 110.5 45.5t42.5 126.5v2h-125
q-69 0 -100 -22.5t-31 -71.5q0 -80 103 -80zM365 684h65q4 -53 -23 -77t-65 -24q-30 0 -73 20.5t-58 20.5q-29 0 -29 -37h-66q-3 53 23 77t64 24q32 0 75 -20.5t58 -20.5q29 0 29 37z" />
    <glyph glyph-name="adieresis" unicode="&#xe4;" horiz-adv-x="572" 
d="M228 -12q-75 0 -121.5 38.5t-46.5 107.5q0 74 51 118.5t163 44.5h126q-1 74 -32.5 103.5t-98.5 29.5q-93 0 -141 -65l-48 52q56 82 197 82q100 0 154.5 -46.5t54.5 -154.5v-298h-74l-7 89q-51 -101 -177 -101zM247 57q69 0 110.5 45.5t42.5 126.5v2h-125
q-69 0 -100 -22.5t-31 -71.5q0 -80 103 -80zM127 637q0 56 60 56q59 0 59 -56q0 -57 -59 -57q-28 0 -44 15t-16 42zM300 637q0 56 60 56q59 0 59 -56q0 -57 -59 -57q-28 0 -44 15t-16 42z" />
    <glyph glyph-name="aring" unicode="&#xe5;" horiz-adv-x="572" 
d="M228 -12q-75 0 -121.5 38.5t-46.5 107.5q0 74 51 118.5t163 44.5h126q-1 74 -32.5 103.5t-98.5 29.5q-93 0 -141 -65l-48 52q56 82 197 82q100 0 154.5 -46.5t54.5 -154.5v-298h-74l-7 89q-51 -101 -177 -101zM247 57q69 0 110.5 45.5t42.5 126.5v2h-125
q-69 0 -100 -22.5t-31 -71.5q0 -80 103 -80zM178 641q0 43 27 68.5t70 25.5q42 0 69 -25.5t27 -68.5t-27 -68.5t-70 -25.5q-42 0 -69 25.5t-27 68.5zM226 641q0 -23 13.5 -38t34.5 -15t35 15t14 38t-13.5 37.5t-34.5 14.5q-22 0 -35.5 -14.5t-13.5 -37.5z" />
    <glyph glyph-name="ae" unicode="&#xe6;" horiz-adv-x="891" 
d="M228 -12q-75 0 -121.5 38.5t-46.5 107.5q0 71 51 114.5t163 43.5h126q-1 76 -32 107t-99 31q-93 0 -141 -65l-48 52q56 82 197 82q132 0 175 -84q57 84 179 84q103 0 155 -63t52 -165q0 -30 -2 -45h-353q3 -90 39.5 -129.5t108.5 -39.5q55 0 88 18.5t55 66.5l64 -33
q-56 -121 -209 -121q-148 0 -196 114q-25 -54 -77 -84t-128 -30zM247 57q67 0 109.5 45t43.5 124h-125q-69 0 -100 -22.5t-31 -71.5q0 -75 103 -75zM627 431q-128 0 -142 -139h268q-4 74 -35.5 106.5t-90.5 32.5z" />
    <glyph glyph-name="ccedilla" unicode="&#xe7;" horiz-adv-x="532" 
d="M496 109q-48 -108 -175 -119l-14 -51h3q37 0 62 -22.5t25 -61.5q0 -44 -33 -68t-82 -24q-82 0 -118 59l42 40q29 -46 73 -46q54 0 54 39q0 19 -14.5 30.5t-39.5 11.5q-7 0 -23 -2l-16 15l20 79q-203 16 -203 255q0 255 233 255q141 0 200 -109l-62 -40q-41 80 -138 80
q-78 0 -112.5 -42t-34.5 -145q0 -100 35.5 -143t110.5 -43q53 0 86 19.5t56 66.5z" />
    <glyph glyph-name="egrave" unicode="&#xe8;" horiz-adv-x="547" 
d="M287 -12q-230 0 -230 255q0 125 59.5 190.5t172.5 65.5q104 0 156 -64t52 -171q0 -14 -2 -46h-353q4 -86 40.5 -123.5t106.5 -37.5q55 0 88 18.5t55 66.5l64 -33q-56 -121 -209 -121zM285 431q-65 0 -100 -34.5t-42 -112.5h269q-6 147 -127 147zM254 574l-115 111v6h111
l77 -113v-4h-73z" />
    <glyph glyph-name="eacute" unicode="&#xe9;" horiz-adv-x="547" 
d="M430 685l-114 -111h-73v4l76 113h111v-6zM287 -12q-230 0 -230 255q0 125 59.5 190.5t172.5 65.5q104 0 156 -64t52 -171q0 -14 -2 -46h-353q4 -86 40.5 -123.5t106.5 -37.5q55 0 88 18.5t55 66.5l64 -33q-56 -121 -209 -121zM285 431q-65 0 -100 -34.5t-42 -112.5h269
q-6 147 -127 147z" />
    <glyph glyph-name="ecircumflex" unicode="&#xea;" horiz-adv-x="547" 
d="M284 643l-70 -69h-93v3l122 114h83l123 -114v-3h-98zM287 -12q-230 0 -230 255q0 125 59.5 190.5t172.5 65.5q104 0 156 -64t52 -171q0 -14 -2 -46h-353q4 -86 40.5 -123.5t106.5 -37.5q55 0 88 18.5t55 66.5l64 -33q-56 -121 -209 -121zM285 431q-65 0 -100 -34.5
t-42 -112.5h269q-6 147 -127 147z" />
    <glyph glyph-name="edieresis" unicode="&#xeb;" horiz-adv-x="547" 
d="M136 637q0 56 60 56q59 0 59 -56q0 -57 -59 -57q-28 0 -44 15t-16 42zM309 637q0 56 60 56q59 0 59 -56q0 -57 -59 -57q-28 0 -44 15t-16 42zM287 -12q-230 0 -230 255q0 125 59.5 190.5t172.5 65.5q104 0 156 -64t52 -171q0 -14 -2 -46h-353q4 -86 40.5 -123.5
t106.5 -37.5q55 0 88 18.5t55 66.5l64 -33q-56 -121 -209 -121zM285 431q-65 0 -100 -34.5t-42 -112.5h269q-6 147 -127 147z" />
    <glyph glyph-name="igrave" unicode="&#xec;" horiz-adv-x="276" 
d="M95 487h86v-487h-86v487zM109 574l-115 111v6h111l77 -113v-4h-73z" />
    <glyph glyph-name="iacute" unicode="&#xed;" horiz-adv-x="276" 
d="M285 685l-114 -111h-73v4l76 113h111v-6zM95 487h86v-487h-86v487z" />
    <glyph glyph-name="icircumflex" unicode="&#xee;" horiz-adv-x="276" 
d="M139 643l-70 -69h-93v3l122 114h83l123 -114v-3h-98zM95 487h86v-487h-86v487z" />
    <glyph glyph-name="idieresis" unicode="&#xef;" horiz-adv-x="276" 
d="M-9 637q0 56 60 56q59 0 59 -56q0 -57 -59 -57q-28 0 -44 15t-16 42zM164 637q0 56 60 56q59 0 59 -56q0 -57 -59 -57q-28 0 -44 15t-16 42zM95 487h86v-487h-86v487z" />
    <glyph glyph-name="eth" unicode="&#xf0;" horiz-adv-x="592" 
d="M479 718l32 -47l-80 -51q99 -118 99 -366v-12q0 -254 -235 -254q-118 0 -178 61.5t-60 192.5q0 254 238 254q87 0 135 -47q-19 78 -65 130l-83 -53l-31 47l72 47q-52 40 -131 61l28 59q104 -24 170 -80zM444 242q0 100 -35.5 143t-113.5 43q-79 0 -115.5 -43t-36.5 -143
q0 -99 37 -142t115 -43t113.5 42.5t35.5 142.5z" />
    <glyph glyph-name="ntilde" unicode="&#xf1;" horiz-adv-x="630" 
d="M93 487h75l9 -93q51 105 187 105q180 0 180 -195v-304h-86v284q0 74 -30 108t-90 34q-72 0 -114.5 -48t-44.5 -135v-243h-86v487zM422 684h65q4 -53 -23 -77t-65 -24q-31 0 -73 20.5t-58 20.5q-29 0 -29 -37h-66q-3 53 23 77t64 24q32 0 75 -20.5t58 -20.5q29 0 29 37z
" />
    <glyph glyph-name="ograve" unicode="&#xf2;" horiz-adv-x="586" 
d="M443 244q0 101 -36 143.5t-114 42.5q-79 0 -114.5 -42t-35.5 -144q0 -101 36 -144t114 -43t114 43t36 144zM57 245q0 254 236 254q120 0 178 -61t58 -193q0 -257 -236 -257q-117 0 -176.5 62t-59.5 195zM264 574l-115 111v6h111l77 -113v-4h-73z" />
    <glyph glyph-name="oacute" unicode="&#xf3;" horiz-adv-x="586" 
d="M440 685l-114 -111h-73v4l76 113h111v-6zM443 244q0 101 -36 143.5t-114 42.5q-79 0 -114.5 -42t-35.5 -144q0 -101 36 -144t114 -43t114 43t36 144zM57 245q0 254 236 254q120 0 178 -61t58 -193q0 -257 -236 -257q-117 0 -176.5 62t-59.5 195z" />
    <glyph glyph-name="ocircumflex" unicode="&#xf4;" horiz-adv-x="586" 
d="M293 643l-70 -69h-93v3l122 114h83l123 -114v-3h-98zM443 244q0 101 -36 143.5t-114 42.5q-79 0 -114.5 -42t-35.5 -144q0 -101 36 -144t114 -43t114 43t36 144zM57 245q0 254 236 254q120 0 178 -61t58 -193q0 -257 -236 -257q-117 0 -176.5 62t-59.5 195z" />
    <glyph glyph-name="otilde" unicode="&#xf5;" horiz-adv-x="586" 
d="M443 244q0 101 -36 143.5t-114 42.5q-79 0 -114.5 -42t-35.5 -144q0 -101 36 -144t114 -43t114 43t36 144zM57 245q0 254 236 254q120 0 178 -61t58 -193q0 -257 -236 -257q-117 0 -176.5 62t-59.5 195zM383 684h65q4 -53 -23 -77t-65 -24q-30 0 -73 20.5t-58 20.5
q-29 0 -29 -37h-66q-3 53 23 77t64 24q32 0 75 -20.5t58 -20.5q29 0 29 37z" />
    <glyph glyph-name="odieresis" unicode="&#xf6;" horiz-adv-x="586" 
d="M146 637q0 56 60 56q59 0 59 -56q0 -57 -59 -57q-28 0 -44 15t-16 42zM319 637q0 56 60 56q59 0 59 -56q0 -57 -59 -57q-28 0 -44 15t-16 42zM443 244q0 101 -36 143.5t-114 42.5q-79 0 -114.5 -42t-35.5 -144q0 -101 36 -144t114 -43t114 43t36 144zM57 245
q0 254 236 254q120 0 178 -61t58 -193q0 -257 -236 -257q-117 0 -176.5 62t-59.5 195z" />
    <glyph glyph-name="divide" unicode="&#xf7;" horiz-adv-x="506" 
d="M456 345v-71h-406v71h406zM193 147q0 57 59 57q60 0 60 -57q0 -27 -16 -42t-44 -15q-59 0 -59 57zM193 475q0 57 59 57q28 0 44 -15t16 -42t-16 -42t-44 -15t-43.5 15t-15.5 42z" />
    <glyph glyph-name="oslash" unicode="&#xf8;" horiz-adv-x="596" 
d="M580 487l-81 -83q35 -61 35 -159q0 -257 -236 -257q-99 0 -157 46l-33 -34h-87l78 81q-37 59 -37 164q0 254 236 254q102 0 161 -47l34 35h87zM448 244q0 54 -11 95l-243 -250q35 -32 104 -32q78 0 114 43t36 144zM160 144l244 252q-34 34 -106 34q-79 0 -114.5 -42
t-35.5 -144q0 -61 12 -100z" />
    <glyph glyph-name="ugrave" unicode="&#xf9;" horiz-adv-x="626" 
d="M459 0l-7 86q-53 -98 -178 -98q-94 0 -141 52.5t-47 150.5v296h86v-284q0 -145 122 -145q71 0 111 46.5t42 133.5v249h86v-487h-74zM280 574l-115 111v6h111l77 -113v-4h-73z" />
    <glyph glyph-name="uacute" unicode="&#xfa;" horiz-adv-x="626" 
d="M456 685l-114 -111h-73v4l76 113h111v-6zM459 0l-7 86q-53 -98 -178 -98q-94 0 -141 52.5t-47 150.5v296h86v-284q0 -145 122 -145q71 0 111 46.5t42 133.5v249h86v-487h-74z" />
    <glyph glyph-name="ucircumflex" unicode="&#xfb;" horiz-adv-x="626" 
d="M309 643l-70 -69h-93v3l122 114h83l123 -114v-3h-98zM459 0l-7 86q-53 -98 -178 -98q-94 0 -141 52.5t-47 150.5v296h86v-284q0 -145 122 -145q71 0 111 46.5t42 133.5v249h86v-487h-74z" />
    <glyph glyph-name="udieresis" unicode="&#xfc;" horiz-adv-x="626" 
d="M162 637q0 56 60 56q59 0 59 -56q0 -57 -59 -57q-28 0 -44 15t-16 42zM335 637q0 56 60 56q59 0 59 -56q0 -57 -59 -57q-28 0 -44 15t-16 42zM459 0l-7 86q-53 -98 -178 -98q-94 0 -141 52.5t-47 150.5v296h86v-284q0 -145 122 -145q71 0 111 46.5t42 133.5v249h86v-487
h-74z" />
    <glyph glyph-name="yacute" unicode="&#xfd;" horiz-adv-x="502" 
d="M186 -65l20 56l-201 496h91l155 -406l155 406h89l-235 -580q-28 -68 -71 -95.5t-104 -27.5q-38 0 -78 13l14 72q35 -11 65 -11q71 0 100 77zM397 685l-114 -111h-73v4l76 113h111v-6z" />
    <glyph glyph-name="thorn" unicode="&#xfe;" horiz-adv-x="615" 
d="M179 700v-295q50 94 174 94q100 0 152 -65t52 -189t-56.5 -190.5t-161.5 -66.5q-111 0 -160 81v-256h-86v887h86zM179 243q0 -94 39.5 -140t107.5 -46q145 0 145 187q0 186 -141 186q-69 0 -110 -46t-41 -141z" />
    <glyph glyph-name="ydieresis" unicode="&#xff;" horiz-adv-x="502" 
d="M186 -65l20 56l-201 496h91l155 -406l155 406h89l-235 -580q-28 -68 -71 -95.5t-104 -27.5q-38 0 -78 13l14 72q35 -11 65 -11q71 0 100 77zM103 637q0 56 60 56q59 0 59 -56q0 -57 -59 -57q-28 0 -44 15t-16 42zM276 637q0 56 60 56q59 0 59 -56q0 -57 -59 -57
q-28 0 -44 15t-16 42z" />
    <glyph glyph-name="Amacron" unicode="&#x100;" horiz-adv-x="622" 
d="M518 0l-48 143h-321l-48 -143h-91l245 700h112l245 -700h-94zM308 619l-134 -401h270zM442 874v-59h-254v59h254z" />
    <glyph glyph-name="amacron" unicode="&#x101;" horiz-adv-x="572" 
d="M228 -12q-75 0 -121.5 38.5t-46.5 107.5q0 74 51 118.5t163 44.5h126q-1 74 -32.5 103.5t-98.5 29.5q-93 0 -141 -65l-48 52q56 82 197 82q100 0 154.5 -46.5t54.5 -154.5v-298h-74l-7 89q-51 -101 -177 -101zM247 57q69 0 110.5 45.5t42.5 126.5v2h-125
q-69 0 -100 -22.5t-31 -71.5q0 -80 103 -80zM401 660v-59h-254v59h254z" />
    <glyph glyph-name="Abreve" unicode="&#x102;" horiz-adv-x="622" 
d="M518 0l-48 143h-321l-48 -143h-91l245 700h112l245 -700h-94zM308 619l-134 -401h270zM391 905h66q0 -67 -36 -95t-106 -28q-71 0 -107 28t-36 95h66q0 -38 18.5 -53t57.5 -15q40 0 58.5 15t18.5 53z" />
    <glyph glyph-name="abreve" unicode="&#x103;" horiz-adv-x="572" 
d="M228 -12q-75 0 -121.5 38.5t-46.5 107.5q0 74 51 118.5t163 44.5h126q-1 74 -32.5 103.5t-98.5 29.5q-93 0 -141 -65l-48 52q56 82 197 82q100 0 154.5 -46.5t54.5 -154.5v-298h-74l-7 89q-51 -101 -177 -101zM247 57q69 0 110.5 45.5t42.5 126.5v2h-125
q-69 0 -100 -22.5t-31 -71.5q0 -80 103 -80zM350 691h66q0 -67 -36 -95t-106 -28q-71 0 -107 28t-36 95h66q0 -38 18.5 -53t57.5 -15q40 0 58.5 15t18.5 53z" />
    <glyph glyph-name="Aogonek" unicode="&#x104;" horiz-adv-x="622" 
d="M509 24l-40 119h-320l-48 -143h-91l245 700h112l245 -700h-34q-43 -4 -69.5 -34t-26.5 -67q0 -50 58 -50q36 0 66 18l13 -56q-38 -23 -86 -23q-50 0 -83 23.5t-33 77.5q0 48 26 82.5t66 52.5zM309 619l-135 -401h270z" />
    <glyph glyph-name="aogonek" unicode="&#x105;" horiz-adv-x="572" 
d="M440 -212q-50 0 -83 23.5t-33 77.5q0 46 24 80t62 52l-5 68q-51 -101 -177 -101q-75 0 -121.5 38.5t-46.5 107.5q0 74 51 118.5t163 44.5h126q-1 74 -32.5 103.5t-98.5 29.5q-93 0 -141 -65l-48 52q56 82 197 82q100 0 154.5 -46.5t54.5 -154.5v-298h-1q-44 -4 -70 -34
t-26 -67q0 -50 58 -50q36 0 66 18l13 -56q-38 -23 -86 -23zM247 57q69 0 110.5 45.5t42.5 126.5v2h-125q-69 0 -100 -22.5t-31 -71.5q0 -80 103 -80z" />
    <glyph glyph-name="Cacute" unicode="&#x106;" horiz-adv-x="699" 
d="M539 900l-114 -111h-73v4l76 113h111v-6zM392 -12q-160 0 -237.5 85.5t-77.5 277.5t77.5 276.5t237.5 84.5q96 0 158 -31t97 -101l-70 -47q-28 59 -72 83t-113 24q-115 0 -170.5 -63t-55.5 -225t56 -227t170 -65q71 0 119.5 27t81.5 90l66 -45q-42 -76 -107.5 -110
t-159.5 -34z" />
    <glyph glyph-name="cacute" unicode="&#x107;" horiz-adv-x="532" 
d="M436 685l-114 -111h-73v4l76 113h111v-6zM289 -12q-232 0 -232 256q0 255 233 255q141 0 200 -109l-62 -40q-41 80 -138 80q-78 0 -112.5 -42t-34.5 -145q0 -100 35.5 -143t110.5 -43q53 0 86 19.5t56 66.5l65 -34q-54 -121 -207 -121z" />
    <glyph glyph-name="Ccircumflex" unicode="&#x108;" horiz-adv-x="699" 
d="M394 858l-70 -69h-93v3l122 114h83l123 -114v-3h-98zM392 -12q-160 0 -237.5 85.5t-77.5 277.5t77.5 276.5t237.5 84.5q96 0 158 -31t97 -101l-70 -47q-28 59 -72 83t-113 24q-115 0 -170.5 -63t-55.5 -225t56 -227t170 -65q71 0 119.5 27t81.5 90l66 -45
q-42 -76 -107.5 -110t-159.5 -34z" />
    <glyph glyph-name="ccircumflex" unicode="&#x109;" horiz-adv-x="532" 
d="M290 643l-70 -69h-93v3l122 114h83l123 -114v-3h-98zM289 -12q-232 0 -232 256q0 255 233 255q141 0 200 -109l-62 -40q-41 80 -138 80q-78 0 -112.5 -42t-34.5 -145q0 -100 35.5 -143t110.5 -43q53 0 86 19.5t56 66.5l65 -34q-54 -121 -207 -121z" />
    <glyph glyph-name="Cdotaccent" unicode="&#x10a;" horiz-adv-x="699" 
d="M392 -12q-160 0 -237.5 85.5t-77.5 277.5t77.5 276.5t237.5 84.5q96 0 158 -31t97 -101l-70 -47q-28 59 -72 83t-113 24q-115 0 -170.5 -63t-55.5 -225t56 -227t170 -65q71 0 119.5 27t81.5 90l66 -45q-42 -76 -107.5 -110t-159.5 -34zM334 852q0 56 60 56q59 0 59 -56
q0 -57 -59 -57q-28 0 -44 15t-16 42z" />
    <glyph glyph-name="cdotaccent" unicode="&#x10b;" horiz-adv-x="532" 
d="M289 -12q-232 0 -232 256q0 255 233 255q141 0 200 -109l-62 -40q-41 80 -138 80q-78 0 -112.5 -42t-34.5 -145q0 -100 35.5 -143t110.5 -43q53 0 86 19.5t56 66.5l65 -34q-54 -121 -207 -121zM231 637q0 56 60 56q59 0 59 -56q0 -57 -59 -57q-28 0 -44 15t-16 42z" />
    <glyph glyph-name="Ccaron" unicode="&#x10c;" horiz-adv-x="699" 
d="M393 839l71 67h93v-2l-123 -115h-83l-122 115v2h96zM392 -12q-160 0 -237.5 85.5t-77.5 277.5t77.5 276.5t237.5 84.5q96 0 158 -31t97 -101l-70 -47q-28 59 -72 83t-113 24q-115 0 -170.5 -63t-55.5 -225t56 -227t170 -65q71 0 119.5 27t81.5 90l66 -45
q-42 -76 -107.5 -110t-159.5 -34z" />
    <glyph glyph-name="ccaron" unicode="&#x10d;" horiz-adv-x="532" 
d="M290 624l71 67h93v-2l-123 -115h-83l-122 115v2h96zM289 -12q-232 0 -232 256q0 255 233 255q141 0 200 -109l-62 -40q-41 80 -138 80q-78 0 -112.5 -42t-34.5 -145q0 -100 35.5 -143t110.5 -43q53 0 86 19.5t56 66.5l65 -34q-54 -121 -207 -121z" />
    <glyph glyph-name="Dcaron" unicode="&#x10e;" horiz-adv-x="753" 
d="M386 838l71 67h93v-2l-123 -115h-83l-122 115v2h96zM199 76h171q106 0 162 63t56 212q0 147 -53 210t-158 63h-178v-548zM373 0h-263v700h264q155 0 229 -83t74 -263q0 -354 -304 -354z" />
    <glyph glyph-name="dcaron" unicode="&#x10f;" horiz-adv-x="662" 
d="M665 480h-59l7 220h84zM442 0l-5 87q-48 -99 -175 -99q-100 0 -152.5 65.5t-52.5 190.5q0 124 55.5 189.5t160.5 65.5q110 0 162 -82v283h86v-700h-79zM435 245q0 93 -40.5 139t-108.5 46q-73 0 -108 -45.5t-35 -141.5q0 -186 142 -186q68 0 109 46.5t41 141.5z" />
    <glyph glyph-name="Dcroat" unicode="&#x110;" horiz-adv-x="773" 
d="M393 0h-263v323h-82v71h82v306h264q155 0 229 -83t74 -263q0 -354 -304 -354zM219 76h171q106 0 162 63t56 212q0 147 -53 210t-158 63h-178v-230h160v-71h-160v-247z" />
    <glyph glyph-name="dcroat" unicode="&#x111;" horiz-adv-x="631" 
d="M600 615v-58h-79v-557h-79l-5 87q-49 -99 -175 -99q-100 0 -152.5 65.5t-52.5 190.5q0 124 55.5 189.5t160.5 65.5q111 0 162 -81v139h-157v58h157v85h86v-85h79zM435 245q0 93 -41 139.5t-108 46.5q-73 0 -108 -46t-35 -142q0 -186 142 -186q68 0 109 46.5t41 141.5z
" />
    <glyph glyph-name="Emacron" unicode="&#x112;" horiz-adv-x="666" 
d="M110 0v700h506v-76h-419v-233h367v-78h-367v-237h429v-76h-516zM501 874v-59h-254v59h254z" />
    <glyph glyph-name="emacron" unicode="&#x113;" horiz-adv-x="547" 
d="M287 -12q-230 0 -230 255q0 125 59.5 190.5t172.5 65.5q104 0 156 -64t52 -171q0 -14 -2 -46h-353q4 -86 40.5 -123.5t106.5 -37.5q55 0 88 18.5t55 66.5l64 -33q-56 -121 -209 -121zM285 431q-65 0 -100 -34.5t-42 -112.5h269q-6 147 -127 147zM411 660v-59h-254v59h254
z" />
    <glyph glyph-name="Ebreve" unicode="&#x114;" horiz-adv-x="666" 
d="M110 0v700h506v-76h-419v-233h367v-78h-367v-237h429v-76h-516zM450 905h66q0 -67 -36 -95t-106 -28q-71 0 -107 28t-36 95h66q0 -38 18.5 -53t57.5 -15q40 0 58.5 15t18.5 53z" />
    <glyph glyph-name="ebreve" unicode="&#x115;" horiz-adv-x="547" 
d="M287 -12q-230 0 -230 255q0 125 59.5 190.5t172.5 65.5q104 0 156 -64t52 -171q0 -14 -2 -46h-353q4 -86 40.5 -123.5t106.5 -37.5q55 0 88 18.5t55 66.5l64 -33q-56 -121 -209 -121zM285 431q-65 0 -100 -34.5t-42 -112.5h269q-6 147 -127 147zM359 691h66
q0 -67 -36 -95t-106 -28q-71 0 -107 28t-36 95h66q0 -38 18.5 -53t57.5 -15q40 0 58.5 15t18.5 53z" />
    <glyph glyph-name="Edotaccent" unicode="&#x116;" horiz-adv-x="666" 
d="M110 0v700h506v-76h-419v-233h367v-78h-367v-237h429v-76h-516zM316 851q0 56 60 56q59 0 59 -56q0 -57 -59 -57q-28 0 -44 15t-16 42z" />
    <glyph glyph-name="edotaccent" unicode="&#x117;" horiz-adv-x="547" 
d="M287 -12q-230 0 -230 255q0 125 59.5 190.5t172.5 65.5q104 0 156 -64t52 -171q0 -14 -2 -46h-353q4 -86 40.5 -123.5t106.5 -37.5q55 0 88 18.5t55 66.5l64 -33q-56 -121 -209 -121zM285 431q-65 0 -100 -34.5t-42 -112.5h269q-6 147 -127 147zM225 637q0 56 60 56
q59 0 59 -56q0 -57 -59 -57q-28 0 -44 15t-16 42z" />
    <glyph glyph-name="Eogonek" unicode="&#x118;" horiz-adv-x="666" 
d="M110 0v700h506v-75h-418v-234h366v-78h-366v-238h428v-75q-52 -4 -80.5 -33.5t-28.5 -67.5q0 -50 58 -50q36 0 66 18l13 -56q-38 -23 -86 -23q-115 0 -115 101q0 71 53 111h-396z" />
    <glyph glyph-name="eogonek" unicode="&#x119;" horiz-adv-x="547" 
d="M222 -111q0 60 40 100q-205 14 -205 254q0 125 59.5 190.5t172.5 65.5q104 0 156 -64t52 -171q0 -14 -2 -46h-354q4 -86 40.5 -123.5t107.5 -37.5q55 0 88 18.5t55 66.5l64 -33q-41 -89 -133 -112q-35 -9 -55.5 -37.5t-20.5 -60.5q0 -50 58 -50q36 0 66 18l13 -56
q-38 -23 -86 -23q-50 0 -83 23.5t-33 77.5zM285 431q-65 0 -100.5 -35t-42.5 -112h270q-6 147 -127 147z" />
    <glyph glyph-name="Ecaron" unicode="&#x11a;" horiz-adv-x="666" 
d="M374 838l71 67h93v-2l-123 -115h-83l-122 115v2h96zM110 0v700h506v-76h-419v-233h367v-78h-367v-237h429v-76h-516z" />
    <glyph glyph-name="ecaron" unicode="&#x11b;" horiz-adv-x="547" 
d="M284 624l71 67h93v-2l-123 -115h-83l-122 115v2h96zM287 -12q-230 0 -230 255q0 125 59.5 190.5t172.5 65.5q104 0 156 -64t52 -171q0 -14 -2 -46h-353q4 -86 40.5 -123.5t106.5 -37.5q55 0 88 18.5t55 66.5l64 -33q-56 -121 -209 -121zM285 431q-65 0 -100 -34.5
t-42 -112.5h269q-6 147 -127 147z" />
    <glyph glyph-name="Gcircumflex" unicode="&#x11c;" horiz-adv-x="743" 
d="M390 857l-70 -69h-93v3l122 114h83l123 -114v-3h-98zM377 -12q-300 0 -300 363q0 192 77.5 276.5t237.5 84.5q185 0 254 -128l-71 -48q-29 55 -72.5 79.5t-110.5 24.5q-77 0 -124 -23.5t-74.5 -88t-27.5 -177.5q0 -160 55 -225.5t167 -65.5q80 0 137.5 46.5t59.5 151.5
v25h-191v70h273v-353h-74l-6 99q-29 -52 -85 -81.5t-125 -29.5z" />
    <glyph glyph-name="gcircumflex" unicode="&#x11d;" horiz-adv-x="613" 
d="M279 643l-70 -69h-93v3l122 114h83l123 -114v-3h-98zM520 487v-473q0 -117 -66 -173.5t-179 -56.5q-156 0 -210 115l62 44q24 -48 59.5 -68.5t88.5 -20.5q159 0 159 151v88q-47 -92 -170 -92q-99 0 -153 64t-54 186q0 121 53.5 184.5t154.5 63.5q124 0 172 -91l9 79h74z
M434 253q0 91 -41 134.5t-109 43.5q-72 0 -106.5 -43.5t-34.5 -135.5q0 -93 35 -137t106 -44q69 0 109.5 44.5t40.5 137.5z" />
    <glyph glyph-name="Gbreve" unicode="&#x11e;" horiz-adv-x="743" 
d="M377 -12q-300 0 -300 363q0 192 77.5 276.5t237.5 84.5q185 0 254 -128l-71 -48q-29 55 -72.5 79.5t-110.5 24.5q-77 0 -124 -23.5t-74.5 -88t-27.5 -177.5q0 -160 55 -225.5t167 -65.5q80 0 137.5 46.5t59.5 151.5v25h-191v70h273v-353h-74l-6 99q-29 -52 -85 -81.5
t-125 -29.5zM464 905h66q0 -67 -36 -95t-106 -28q-71 0 -107 28t-36 95h66q0 -38 18.5 -53t57.5 -15q40 0 58.5 15t18.5 53z" />
    <glyph glyph-name="gbreve" unicode="&#x11f;" horiz-adv-x="613" 
d="M520 487v-473q0 -117 -66 -173.5t-179 -56.5q-156 0 -210 115l62 44q24 -48 59.5 -68.5t88.5 -20.5q159 0 159 151v88q-47 -92 -170 -92q-99 0 -153 64t-54 186q0 121 53.5 184.5t154.5 63.5q124 0 172 -91l9 79h74zM434 253q0 91 -41 134.5t-109 43.5
q-72 0 -106.5 -43.5t-34.5 -135.5q0 -93 35 -137t106 -44q69 0 109.5 44.5t40.5 137.5zM353 691h66q0 -67 -36 -95t-106 -28q-71 0 -107 28t-36 95h66q0 -38 18.5 -53t57.5 -15q40 0 58.5 15t18.5 53z" />
    <glyph glyph-name="Gdotaccent" unicode="&#x120;" horiz-adv-x="743" 
d="M377 -12q-300 0 -300 363q0 192 77.5 276.5t237.5 84.5q185 0 254 -128l-71 -48q-29 55 -72.5 79.5t-110.5 24.5q-77 0 -124 -23.5t-74.5 -88t-27.5 -177.5q0 -160 55 -225.5t167 -65.5q80 0 137.5 46.5t59.5 151.5v25h-191v70h273v-353h-74l-6 99q-29 -52 -85 -81.5
t-125 -29.5zM330 851q0 56 60 56q59 0 59 -56q0 -57 -59 -57q-28 0 -44 15t-16 42z" />
    <glyph glyph-name="gdotaccent" unicode="&#x121;" horiz-adv-x="613" 
d="M520 487v-473q0 -117 -66 -173.5t-179 -56.5q-156 0 -210 115l62 44q24 -48 59.5 -68.5t88.5 -20.5q159 0 159 151v88q-47 -92 -170 -92q-99 0 -153 64t-54 186q0 121 53.5 184.5t154.5 63.5q124 0 172 -91l9 79h74zM434 253q0 91 -41 134.5t-109 43.5
q-72 0 -106.5 -43.5t-34.5 -135.5q0 -93 35 -137t106 -44q69 0 109.5 44.5t40.5 137.5zM219 637q0 56 60 56q59 0 59 -56q0 -57 -59 -57q-28 0 -44 15t-16 42z" />
    <glyph glyph-name="Gcommaaccent" unicode="&#x122;" horiz-adv-x="743" 
d="M344 -292l-17 40q56 16 63 80h-5q-59 0 -59 55q0 53 56 53q61 0 61 -81q0 -54 -25 -94t-74 -53zM377 -12q-300 0 -300 363q0 192 77.5 276.5t237.5 84.5q185 0 254 -128l-71 -48q-29 55 -72.5 79.5t-110.5 24.5q-77 0 -124 -23.5t-74.5 -88t-27.5 -177.5
q0 -160 55 -225.5t167 -65.5q80 0 137.5 46.5t59.5 151.5v25h-191v70h273v-353h-74l-6 99q-29 -52 -85 -81.5t-125 -29.5z" />
    <glyph glyph-name="gcommaaccent" unicode="&#x123;" horiz-adv-x="613" 
d="M318 792l17 -40q-56 -16 -63 -80h5q59 0 59 -55q0 -53 -56 -53q-61 0 -61 81q0 54 25 94t74 53zM520 487v-473q0 -117 -66 -173.5t-179 -56.5q-156 0 -210 115l62 44q24 -48 59.5 -68.5t88.5 -20.5q159 0 159 151v88q-47 -92 -170 -92q-99 0 -153 64t-54 186
q0 121 53.5 184.5t154.5 63.5q124 0 172 -91l9 79h74zM434 253q0 91 -41 134.5t-109 43.5q-72 0 -106.5 -43.5t-34.5 -135.5q0 -93 35 -137t106 -44q69 0 109.5 44.5t40.5 137.5z" />
    <glyph glyph-name="Hcircumflex" unicode="&#x124;" horiz-adv-x="795" 
d="M399 858l-70 -69h-93v3l122 114h83l123 -114v-3h-98zM596 0v313h-397v-313h-89v700h89v-309h397v309h89v-700h-89z" />
    <glyph glyph-name="hcircumflex" unicode="&#x125;" horiz-adv-x="630" 
d="M143 823l-70 -69h-93v3l122 114h83l123 -114v-3h-98zM179 700v-307q50 106 185 106q180 0 180 -195v-304h-86v282q0 144 -120 144q-73 0 -115.5 -48t-43.5 -135v-243h-86v700h86z" />
    <glyph glyph-name="Hbar" unicode="&#x126;" horiz-adv-x="815" 
d="M606 0v313h-397v-313h-89v490h-72v61h72v149h89v-149h397v149h89v-149h72v-61h-72v-490h-89zM209 391h397v99h-397v-99z" />
    <glyph glyph-name="hbar" unicode="&#x127;" horiz-adv-x="645" 
d="M30 557v58h78v85h86v-85h157v-58h-157v-165q26 55 75 81.5t110 26.5q180 0 180 -196v-304h-86v282q0 143 -120 143q-73 0 -115.5 -47.5t-43.5 -134.5v-243h-86v557h-78z" />
    <glyph glyph-name="Itilde" unicode="&#x128;" horiz-adv-x="309" 
d="M110 0v700h89v-700h-89zM246 898h65q4 -53 -23 -77t-65 -24q-31 0 -73 20.5t-58 20.5q-29 0 -29 -37h-66q-3 53 23 77t64 24q32 0 75 -20.5t58 -20.5q29 0 29 37z" />
    <glyph glyph-name="itilde" unicode="&#x129;" horiz-adv-x="276" 
d="M95 487h86v-487h-86v487zM229 684h65q4 -53 -23 -77t-65 -24q-30 0 -73 20.5t-58 20.5q-29 0 -29 -37h-66q-3 53 23 77t64 24q32 0 75 -20.5t58 -20.5q29 0 29 37z" />
    <glyph glyph-name="Imacron" unicode="&#x12a;" horiz-adv-x="309" 
d="M110 0v700h89v-700h-89zM282 874v-59h-254v59h254z" />
    <glyph glyph-name="imacron" unicode="&#x12b;" horiz-adv-x="276" 
d="M95 487h86v-487h-86v487zM266 660v-59h-254v59h254z" />
    <glyph glyph-name="Ibreve" unicode="&#x12c;" horiz-adv-x="309" 
d="M110 0v700h89v-700h-89zM230 905h66q0 -67 -36 -95t-106 -28q-71 0 -107 28t-36 95h66q0 -38 18.5 -53t57.5 -15q40 0 58.5 15t18.5 53z" />
    <glyph glyph-name="ibreve" unicode="&#x12d;" horiz-adv-x="276" 
d="M95 487h86v-487h-86v487zM214 691h66q0 -67 -36 -95t-106 -28q-71 0 -107 28t-36 95h66q0 -38 18.5 -53t57.5 -15q40 0 58.5 15t18.5 53z" />
    <glyph glyph-name="Iogonek" unicode="&#x12e;" horiz-adv-x="309" 
d="M113 -212q-115 0 -115 101q0 54 32.5 91t79.5 50v670h89v-700h-41q-43 -4 -69.5 -34t-26.5 -67q0 -50 58 -50q36 0 66 18l13 -56q-38 -23 -86 -23z" />
    <glyph glyph-name="iogonek" unicode="&#x12f;" horiz-adv-x="276" 
d="M100 -212q-50 0 -82.5 23.5t-32.5 77.5t31.5 90.5t78.5 50.5v457h86v-487h-35q-44 -4 -70 -34t-26 -67q0 -50 58 -50q35 0 65 18l14 -56q-38 -23 -87 -23zM79 638q0 56 59 56t59 -56q0 -57 -59 -57t-59 57z" />
    <glyph glyph-name="Idotaccent" unicode="&#x130;" horiz-adv-x="309" 
d="M110 0v700h89v-700h-89zM96 851q0 56 60 56q59 0 59 -56q0 -57 -59 -57q-28 0 -44 15t-16 42z" />
    <glyph glyph-name="dotlessi" unicode="&#x131;" horiz-adv-x="276" 
d="M95 487h86v-487h-86v487z" />
    <glyph glyph-name="IJ" unicode="&#x132;" horiz-adv-x="822" 
d="M110 0v700h89v-700h-89zM487 -12q-92 0 -158 49l41 67q51 -42 124 -42q147 0 147 189v449h89v-442q0 -146 -64 -208t-179 -62z" />
    <glyph glyph-name="ij" unicode="&#x133;" horiz-adv-x="551" 
d="M95 487h86v-487h-86v487zM79 638q0 56 59 56t59 -56q0 -57 -59 -57t-59 57zM371 -33v520h86v-531q0 -172 -153 -172q-38 0 -77 13l14 72q28 -11 58 -11q36 0 54 24t18 85zM355 638q0 56 59 56t59 -56q0 -57 -59 -57t-59 57z" />
    <glyph glyph-name="Jcircumflex" unicode="&#x134;" horiz-adv-x="509" 
d="M375 857l-70 -69h-93v3l122 114h83l123 -114v-3h-98zM174 -12q-92 0 -158 49l41 67q51 -42 124 -42q147 0 147 189v449h89v-442q0 -146 -64 -208t-179 -62z" />
    <glyph glyph-name="jcircumflex" unicode="&#x135;" horiz-adv-x="276" 
d="M95 -33v520h86v-531q0 -172 -153 -172q-38 0 -77 13l14 72q28 -11 58 -11q36 0 54 24t18 85zM138 643l-70 -69h-93v3l122 114h83l123 -114v-3h-98z" />
    <glyph glyph-name="Kcommaaccent" unicode="&#x136;" horiz-adv-x="641" 
d="M307 -292l-17 40q56 16 63 80h-5q-59 0 -59 55q0 53 56 53q61 0 61 -81q0 -54 -25 -94t-74 -53zM110 0v700h89v-389l319 389h106l-262 -313l277 -387h-106l-230 322l-104 -123v-199h-89z" />
    <glyph glyph-name="kcommaaccent" unicode="&#x137;" horiz-adv-x="524" 
d="M244 -292l-17 40q56 16 63 80h-5q-59 0 -59 55q0 53 56 53q61 0 61 -81q0 -54 -25 -94t-74 -53zM93 0v700h86v-475l232 262h104l-201 -218l203 -269h-102l-156 211l-80 -85v-126h-86z" />
    <glyph glyph-name="kgreenlandic" unicode="&#x138;" horiz-adv-x="524" 
d="M93 0v487h86v-261l232 261h104l-201 -218l203 -269h-102l-155 211l-81 -85v-126h-86z" />
    <glyph glyph-name="Lacute" unicode="&#x139;" horiz-adv-x="633" 
d="M300 899l-114 -111h-73v4l76 113h111v-6zM199 76h407v-76h-496v700h89v-624z" />
    <glyph glyph-name="lacute" unicode="&#x13a;" horiz-adv-x="275" 
d="M278 900l-114 -111h-73v4l76 113h111v-6zM183 700v-700h-86v700h86z" />
    <glyph glyph-name="Lcommaaccent" unicode="&#x13b;" horiz-adv-x="633" 
d="M319 -292l-17 40q56 16 63 80h-5q-59 0 -59 55q0 53 56 53q61 0 61 -81q0 -54 -25 -94t-74 -53zM199 76h407v-76h-496v700h89v-624z" />
    <glyph glyph-name="lcommaaccent" unicode="&#x13c;" horiz-adv-x="284" 
d="M103 -292l-17 40q56 16 63 80h-5q-59 0 -59 55q0 53 56 53q61 0 61 -81q0 -54 -25 -94t-74 -53zM183 700v-700h-86v700h86z" />
    <glyph glyph-name="Lcaron" unicode="&#x13d;" horiz-adv-x="633" 
d="M454 481h-59l7 220h84zM199 76h407v-76h-496v700h89v-624z" />
    <glyph glyph-name="lcaron" unicode="&#x13e;" horiz-adv-x="322" 
d="M325 481h-59l7 220h84zM183 700v-700h-86v700h86z" />
    <glyph glyph-name="Ldot" unicode="&#x13f;" horiz-adv-x="633" 
d="M199 76h407v-76h-496v700h89v-624zM395 359q0 56 60 56q59 0 59 -56q0 -57 -59 -57q-28 0 -44 15t-16 42z" />
    <glyph glyph-name="ldot" unicode="&#x140;" horiz-adv-x="361" 
d="M183 700v-700h-86v700h86zM253 306q0 56 60 56q59 0 59 -56q0 -57 -59 -57q-28 0 -44 15t-16 42z" />
    <glyph glyph-name="Lslash" unicode="&#x141;" horiz-adv-x="653" 
d="M219 76h407v-76h-496v251l-105 -66v81l105 66v368h89v-312l177 111v-82l-177 -111v-230z" />
    <glyph glyph-name="lslash" unicode="&#x142;" horiz-adv-x="306" 
d="M196 700v-289l108 85v-82l-108 -84v-330h-86v263l-97 -75v81l97 76v355h86z" />
    <glyph glyph-name="Nacute" unicode="&#x143;" horiz-adv-x="783" 
d="M537 899l-114 -111h-73v4l76 113h111v-6zM581 0l-388 569l3 -569h-86v700h90l389 -569l-2 569h86v-700h-92z" />
    <glyph glyph-name="nacute" unicode="&#x144;" horiz-adv-x="630" 
d="M478 685l-114 -111h-73v4l76 113h111v-6zM93 487h75l9 -93q51 105 187 105q180 0 180 -195v-304h-86v284q0 74 -30 108t-90 34q-72 0 -114.5 -48t-44.5 -135v-243h-86v487z" />
    <glyph glyph-name="Ncommaaccent" unicode="&#x145;" horiz-adv-x="783" 
d="M353 -292l-17 40q56 16 63 80h-5q-59 0 -59 55q0 53 56 53q61 0 61 -81q0 -54 -25 -94t-74 -53zM581 0l-388 569l3 -569h-86v700h90l389 -569l-2 569h86v-700h-92z" />
    <glyph glyph-name="ncommaaccent" unicode="&#x146;" horiz-adv-x="630" 
d="M286 -292l-17 40q56 16 63 80h-5q-59 0 -59 55q0 53 56 53q61 0 61 -81q0 -54 -25 -94t-74 -53zM93 487h75l9 -93q51 105 187 105q180 0 180 -195v-304h-86v284q0 74 -30 108t-90 34q-72 0 -114.5 -48t-44.5 -135v-243h-86v487z" />
    <glyph glyph-name="Ncaron" unicode="&#x147;" horiz-adv-x="783" 
d="M391 838l71 67h93v-2l-123 -115h-83l-122 115v2h96zM581 0l-388 569l3 -569h-86v700h90l389 -569l-2 569h86v-700h-92z" />
    <glyph glyph-name="ncaron" unicode="&#x148;" horiz-adv-x="630" 
d="M332 624l71 67h93v-2l-123 -115h-83l-122 115v2h96zM93 487h75l9 -93q51 105 187 105q180 0 180 -195v-304h-86v284q0 74 -30 108t-90 34q-72 0 -114.5 -48t-44.5 -135v-243h-86v487z" />
    <glyph glyph-name="Eng" unicode="&#x14a;" horiz-adv-x="783" 
d="M585 -33v27l-392 575l3 -569h-86v700h90l389 -569l-2 569h86v-744q0 -87 -40 -129.5t-113 -42.5q-38 0 -77 13l14 72q28 -11 57 -11q36 0 53.5 24t17.5 85z" />
    <glyph glyph-name="eng" unicode="&#x14b;" horiz-adv-x="630" 
d="M458 -33v317q0 74 -30 108t-90 34q-72 0 -114.5 -48t-44.5 -135v-243h-86v487h75l10 -91q49 103 186 103q180 0 180 -195v-348q0 -172 -153 -172q-37 0 -76 13l14 72q27 -11 57 -11q36 0 54 24t18 85z" />
    <glyph glyph-name="Omacron" unicode="&#x14c;" horiz-adv-x="782" 
d="M519 874v-59h-254v59h254zM77 351q0 189 77 275t237 86q165 0 240 -85t75 -276q0 -189 -77.5 -276t-237.5 -87q-162 0 -238 86.5t-76 276.5zM166 350q0 -160 55 -225t170 -65q116 0 171 64.5t55 227.5q0 159 -55.5 223.5t-170.5 64.5q-116 0 -170.5 -63.5t-54.5 -226.5z
" />
    <glyph glyph-name="omacron" unicode="&#x14d;" horiz-adv-x="586" 
d="M420 660v-59h-254v59h254zM443 244q0 101 -36 143.5t-114 42.5q-79 0 -114.5 -42t-35.5 -144q0 -101 36 -144t114 -43t114 43t36 144zM57 245q0 254 236 254q120 0 178 -61t58 -193q0 -257 -236 -257q-117 0 -176.5 62t-59.5 195z" />
    <glyph glyph-name="Obreve" unicode="&#x14e;" horiz-adv-x="782" 
d="M77 351q0 189 77 275t237 86q165 0 240 -85t75 -276q0 -189 -77.5 -276t-237.5 -87q-162 0 -238 86.5t-76 276.5zM166 350q0 -160 55 -225t170 -65q116 0 171 64.5t55 227.5q0 159 -55.5 223.5t-170.5 64.5q-116 0 -170.5 -63.5t-54.5 -226.5zM467 905h66q0 -67 -36 -95
t-106 -28q-71 0 -107 28t-36 95h66q0 -38 18.5 -53t57.5 -15q40 0 58.5 15t18.5 53z" />
    <glyph glyph-name="obreve" unicode="&#x14f;" horiz-adv-x="586" 
d="M443 244q0 101 -36 143.5t-114 42.5q-79 0 -114.5 -42t-35.5 -144q0 -101 36 -144t114 -43t114 43t36 144zM57 245q0 254 236 254q120 0 178 -61t58 -193q0 -257 -236 -257q-117 0 -176.5 62t-59.5 195zM368 691h66q0 -67 -36 -95t-106 -28q-71 0 -107 28t-36 95h66
q0 -38 18.5 -53t57.5 -15q40 0 58.5 15t18.5 53z" />
    <glyph glyph-name="Ohungarumlaut" unicode="&#x150;" horiz-adv-x="782" 
d="M444 899l-92 -111h-70v4l62 113h100v-6zM601 899l-120 -111h-70v4l77 113h113v-6zM77 351q0 189 77 275t237 86q165 0 240 -85t75 -276q0 -189 -77.5 -276t-237.5 -87q-162 0 -238 86.5t-76 276.5zM166 350q0 -160 55 -225t170 -65q116 0 171 64.5t55 227.5
q0 159 -55.5 223.5t-170.5 64.5q-116 0 -170.5 -63.5t-54.5 -226.5z" />
    <glyph glyph-name="ohungarumlaut" unicode="&#x151;" horiz-adv-x="586" 
d="M344 685l-92 -111h-70v4l62 113h100v-6zM501 685l-120 -111h-70v4l77 113h113v-6zM443 244q0 101 -36 143.5t-114 42.5q-79 0 -114.5 -42t-35.5 -144q0 -101 36 -144t114 -43t114 43t36 144zM57 245q0 254 236 254q120 0 178 -61t58 -193q0 -257 -236 -257
q-117 0 -176.5 62t-59.5 195z" />
    <glyph glyph-name="OE" unicode="&#x152;" horiz-adv-x="1104" 
d="M1064 0h-681q-156 0 -231.5 87t-75.5 267t75.5 263t233.5 83h669v-76h-411v-233h359v-78h-359v-237h421v-76zM386 76h168v548h-172q-109 0 -163 -62.5t-54 -210.5q0 -150 55.5 -212.5t165.5 -62.5z" />
    <glyph glyph-name="oe" unicode="&#x153;" horiz-adv-x="937" 
d="M57 245q0 254 236 254q143 0 196 -92q56 92 189 92q104 0 156 -64t52 -171q0 -14 -2 -46h-354q4 -86 40.5 -123.5t107.5 -37.5q55 0 88 18.5t55 66.5l64 -33q-56 -121 -209 -121q-135 0 -189 92q-56 -92 -194 -92q-117 0 -176.5 62t-59.5 195zM443 244q0 101 -36 143.5
t-114 42.5q-79 0 -114.5 -42t-35.5 -144q0 -101 36 -144t114 -43t114 43t36 144zM674 431q-65 0 -100.5 -35t-42.5 -112h270q-6 147 -127 147z" />
    <glyph glyph-name="Racute" unicode="&#x154;" horiz-adv-x="676" 
d="M511 899l-114 -111h-73v4l76 113h111v-6zM110 0v700h278q117 0 176 -54t59 -156q0 -163 -138 -210l150 -280h-98l-142 265h-196v-265h-89zM388 624h-189v-282h188q70 0 108.5 36.5t38.5 108.5q0 137 -146 137z" />
    <glyph glyph-name="racute" unicode="&#x155;" horiz-adv-x="381" 
d="M362 685l-114 -111h-73v4l76 113h111v-6zM93 0v487h74l9 -103q25 59 74 87.5t112 23.5v-82q-89 9 -135 -37.5t-48 -141.5v-234h-86z" />
    <glyph glyph-name="Rcommaaccent" unicode="&#x156;" horiz-adv-x="676" 
d="M307 -292l-17 40q56 16 63 80h-5q-59 0 -59 55q0 53 56 53q61 0 61 -81q0 -54 -25 -94t-74 -53zM110 0v700h278q117 0 176 -54t59 -156q0 -163 -138 -210l150 -280h-98l-142 265h-196v-265h-89zM388 624h-189v-282h188q70 0 108.5 36.5t38.5 108.5q0 137 -146 137z" />
    <glyph glyph-name="rcommaaccent" unicode="&#x157;" horiz-adv-x="381" 
d="M96 -292l-17 40q56 16 63 80h-5q-59 0 -59 55q0 53 56 53q61 0 61 -81q0 -54 -25 -94t-74 -53zM93 0v487h74l9 -103q25 59 74 87.5t112 23.5v-82q-89 9 -135 -37.5t-48 -141.5v-234h-86z" />
    <glyph glyph-name="Rcaron" unicode="&#x158;" horiz-adv-x="676" 
d="M365 838l71 67h93v-2l-123 -115h-83l-122 115v2h96zM110 0v700h278q117 0 176 -54t59 -156q0 -163 -138 -210l150 -280h-98l-142 265h-196v-265h-89zM388 624h-189v-282h188q70 0 108.5 36.5t38.5 108.5q0 137 -146 137z" />
    <glyph glyph-name="rcaron" unicode="&#x159;" horiz-adv-x="381" 
d="M226 624l71 67h93v-2l-123 -115h-83l-122 115v2h96zM93 0v487h74l9 -103q25 59 74 87.5t112 23.5v-82q-89 9 -135 -37.5t-48 -141.5v-234h-86z" />
    <glyph glyph-name="Sacute" unicode="&#x15a;" horiz-adv-x="629" 
d="M456 899l-114 -111h-73v4l76 113h111v-6zM552 588l-70 -44q-28 52 -69 75.5t-106 23.5q-158 0 -158 -111q0 -47 30.5 -79t103.5 -49l65 -15q115 -27 168 -74t53 -127q0 -98 -67 -149t-190 -51q-193 0 -274 136l70 44q40 -59 86 -85t116 -26q174 0 174 124q0 52 -31 78
t-118 48l-65 16q-204 50 -204 205q0 84 61.5 134t179.5 50q96 0 152 -30t93 -94z" />
    <glyph glyph-name="sacute" unicode="&#x15b;" horiz-adv-x="511" 
d="M389 685l-114 -111h-73v4l76 113h111v-6zM249 54q114 0 114 75q0 32 -22 48t-75 27l-44 9q-85 19 -122 55t-37 90q0 64 46.5 102.5t139.5 38.5q62 0 103.5 -19t73.5 -59l-55 -53q-27 34 -55 48.5t-73 14.5q-100 0 -100 -67q0 -58 89 -77l55 -12q87 -19 122 -53t35 -87
q0 -64 -45.5 -105.5t-150.5 -41.5q-148 0 -208 99l61 44q26 -42 60.5 -59.5t87.5 -17.5z" />
    <glyph glyph-name="Scircumflex" unicode="&#x15c;" horiz-adv-x="629" 
d="M310 857l-70 -69h-93v3l122 114h83l123 -114v-3h-98zM552 588l-70 -44q-28 52 -69 75.5t-106 23.5q-158 0 -158 -111q0 -47 30.5 -79t103.5 -49l65 -15q115 -27 168 -74t53 -127q0 -98 -67 -149t-190 -51q-193 0 -274 136l70 44q40 -59 86 -85t116 -26q174 0 174 124
q0 52 -31 78t-118 48l-65 16q-204 50 -204 205q0 84 61.5 134t179.5 50q96 0 152 -30t93 -94z" />
    <glyph glyph-name="scircumflex" unicode="&#x15d;" horiz-adv-x="511" 
d="M243 643l-70 -69h-93v3l122 114h83l123 -114v-3h-98zM249 54q114 0 114 75q0 32 -22 48t-75 27l-44 9q-85 19 -122 55t-37 90q0 64 46.5 102.5t139.5 38.5q62 0 103.5 -19t73.5 -59l-55 -53q-27 34 -55 48.5t-73 14.5q-100 0 -100 -67q0 -58 89 -77l55 -12
q87 -19 122 -53t35 -87q0 -64 -45.5 -105.5t-150.5 -41.5q-148 0 -208 99l61 44q26 -42 60.5 -59.5t87.5 -17.5z" />
    <glyph glyph-name="Scedilla" unicode="&#x15e;" horiz-adv-x="629" 
d="M552 588l-70 -44q-28 52 -69 75.5t-106 23.5q-158 0 -158 -111q0 -47 30.5 -79t103.5 -49l65 -15q115 -27 168 -74t53 -127q0 -92 -59.5 -142.5t-168.5 -56.5l-14 -50h3q37 0 62 -22.5t25 -61.5q0 -44 -33 -68t-82 -24q-82 0 -118 59l42 40q29 -46 73 -46q54 0 54 39
q0 19 -14.5 30.5t-39.5 11.5q-7 0 -23 -2l-16 15l20 79q-168 10 -242 135l70 44q40 -59 86 -85t116 -26q174 0 174 124q0 52 -31 78t-118 48l-65 16q-204 50 -204 205q0 84 61.5 134t179.5 50q96 0 152 -30t93 -94z" />
    <glyph glyph-name="scedilla" unicode="&#x15f;" horiz-adv-x="511" 
d="M249 54q114 0 114 75q0 32 -22 48t-75 27l-44 9q-85 19 -122 55t-37 90q0 64 46.5 102.5t139.5 38.5q62 0 103.5 -19t73.5 -59l-55 -53q-27 34 -55 48.5t-73 14.5q-100 0 -100 -67q0 -58 89 -77l55 -12q87 -19 122 -53t35 -87q0 -59 -39 -99.5t-128 -46.5l-14 -50h3
q37 0 62 -22.5t25 -61.5q0 -44 -33 -68t-82 -24q-82 0 -118 59l42 40q29 -46 73 -46q54 0 54 39q0 19 -14.5 30.5t-39.5 11.5q-7 0 -23 -2l-16 15l20 80q-122 8 -176 97l61 44q26 -42 60.5 -59.5t87.5 -17.5z" />
    <glyph glyph-name="Scaron" unicode="&#x160;" horiz-adv-x="629" 
d="M310 838l71 67h93v-2l-123 -115h-83l-122 115v2h96zM552 588l-70 -44q-28 52 -69 75.5t-106 23.5q-158 0 -158 -111q0 -47 30.5 -79t103.5 -49l65 -15q115 -27 168 -74t53 -127q0 -98 -67 -149t-190 -51q-193 0 -274 136l70 44q40 -59 86 -85t116 -26q174 0 174 124
q0 52 -31 78t-118 48l-65 16q-204 50 -204 205q0 84 61.5 134t179.5 50q96 0 152 -30t93 -94z" />
    <glyph glyph-name="scaron" unicode="&#x161;" horiz-adv-x="511" 
d="M243 624l71 67h93v-2l-123 -115h-83l-122 115v2h96zM249 54q114 0 114 75q0 32 -22 48t-75 27l-44 9q-85 19 -122 55t-37 90q0 64 46.5 102.5t139.5 38.5q62 0 103.5 -19t73.5 -59l-55 -53q-27 34 -55 48.5t-73 14.5q-100 0 -100 -67q0 -58 89 -77l55 -12q87 -19 122 -53
t35 -87q0 -64 -45.5 -105.5t-150.5 -41.5q-148 0 -208 99l61 44q26 -42 60.5 -59.5t87.5 -17.5z" />
    <glyph glyph-name="Tcommaaccent" unicode="&#x162;" horiz-adv-x="571" 
d="M246 -292l-17 40q56 16 63 80h-5q-59 0 -59 55q0 53 56 53q61 0 61 -81q0 -54 -25 -94t-74 -53zM12 700h547v-76h-229v-624h-89v624h-229v76z" />
    <glyph glyph-name="tcommaaccent" unicode="&#x163;" horiz-adv-x="352" 
d="M213 -292l-17 40q56 16 63 80h-5q-59 0 -59 55q0 53 56 53q61 0 61 -81q0 -54 -25 -94t-74 -53zM17 487h86v143h84v-143h141v-67h-141v-255q0 -60 21 -81.5t61 -21.5q27 0 59 10l14 -70q-41 -14 -83 -14q-156 0 -156 174v258h-86v67z" />
    <glyph glyph-name="Tcaron" unicode="&#x164;" horiz-adv-x="571" 
d="M285 838l71 67h93v-2l-123 -115h-83l-122 115v2h96zM12 700h547v-76h-229v-624h-89v624h-229v76z" />
    <glyph glyph-name="tcaron" unicode="&#x165;" horiz-adv-x="360" 
d="M317 555h-59l7 195h84zM17 487h86v143h84v-143h141v-67h-141v-255q0 -60 21 -81.5t61 -21.5q27 0 59 10l14 -70q-41 -14 -83 -14q-156 0 -156 174v258h-86v67z" />
    <glyph glyph-name="Tbar" unicode="&#x166;" horiz-adv-x="571" 
d="M13 700h546v-76h-228v-243h180v-60h-180v-321h-90v321h-180v60h180v243h-228v76z" />
    <glyph glyph-name="tbar" unicode="&#x167;" horiz-adv-x="352" 
d="M328 487v-67h-141v-92h141v-58h-141v-105q0 -60 21 -81.5t61 -21.5q27 0 59 10l14 -70q-41 -14 -83 -14q-156 0 -156 174v108h-86v58h86v92h-86v67h86v143h84v-143h141z" />
    <glyph glyph-name="Utilde" unicode="&#x168;" horiz-adv-x="752" 
d="M571 271v429h89v-425q0 -140 -74.5 -213.5t-209.5 -73.5q-136 0 -210 73.5t-74 213.5v425h89v-429q0 -211 195 -211t195 211zM468 898h65q4 -53 -23 -77t-65 -24q-31 0 -73 20.5t-58 20.5q-29 0 -29 -37h-66q-3 53 23 77t64 24q32 0 75 -20.5t58 -20.5q29 0 29 37z" />
    <glyph glyph-name="utilde" unicode="&#x169;" horiz-adv-x="626" 
d="M459 0l-7 86q-53 -98 -178 -98q-94 0 -141 52.5t-47 150.5v296h86v-284q0 -145 122 -145q71 0 111 46.5t42 133.5v249h86v-487h-74zM400 684h65q4 -53 -23 -77t-65 -24q-31 0 -73 20.5t-58 20.5q-29 0 -29 -37h-66q-3 53 23 77t64 24q32 0 75 -20.5t58 -20.5q29 0 29 37z
" />
    <glyph glyph-name="Umacron" unicode="&#x16a;" horiz-adv-x="752" 
d="M571 271v429h89v-425q0 -140 -74.5 -213.5t-209.5 -73.5q-136 0 -210 73.5t-74 213.5v425h89v-429q0 -211 195 -211t195 211zM505 874v-59h-254v59h254z" />
    <glyph glyph-name="umacron" unicode="&#x16b;" horiz-adv-x="626" 
d="M459 0l-7 86q-53 -98 -178 -98q-94 0 -141 52.5t-47 150.5v296h86v-284q0 -145 122 -145q71 0 111 46.5t42 133.5v249h86v-487h-74zM436 660v-59h-254v59h254z" />
    <glyph glyph-name="Ubreve" unicode="&#x16c;" horiz-adv-x="752" 
d="M571 271v429h89v-425q0 -140 -74.5 -213.5t-209.5 -73.5q-136 0 -210 73.5t-74 213.5v425h89v-429q0 -211 195 -211t195 211zM453 905h66q0 -67 -36 -95t-106 -28q-71 0 -107 28t-36 95h66q0 -38 18.5 -53t57.5 -15q40 0 58.5 15t18.5 53z" />
    <glyph glyph-name="ubreve" unicode="&#x16d;" horiz-adv-x="626" 
d="M459 0l-7 86q-53 -98 -178 -98q-94 0 -141 52.5t-47 150.5v296h86v-284q0 -145 122 -145q71 0 111 46.5t42 133.5v249h86v-487h-74zM385 691h66q0 -67 -36 -95t-106 -28q-71 0 -107 28t-36 95h66q0 -38 18.5 -53t57.5 -15q40 0 58.5 15t18.5 53z" />
    <glyph glyph-name="Uring" unicode="&#x16e;" horiz-adv-x="752" 
d="M281 855q0 43 27 68.5t70 25.5q42 0 69 -25.5t27 -68.5t-27 -68.5t-70 -25.5q-42 0 -69 25.5t-27 68.5zM329 855q0 -23 13.5 -38t34.5 -15t35 15t14 38t-13.5 37.5t-34.5 14.5q-22 0 -35.5 -14.5t-13.5 -37.5zM571 271v429h89v-425q0 -140 -74.5 -213.5t-209.5 -73.5
q-136 0 -210 73.5t-74 213.5v425h89v-429q0 -211 195 -211t195 211z" />
    <glyph glyph-name="uring" unicode="&#x16f;" horiz-adv-x="626" 
d="M213 641q0 43 27 68.5t70 25.5q42 0 69 -25.5t27 -68.5t-27 -68.5t-70 -25.5q-42 0 -69 25.5t-27 68.5zM261 641q0 -23 13.5 -38t34.5 -15t35 15t14 38t-13.5 37.5t-34.5 14.5q-22 0 -35.5 -14.5t-13.5 -37.5zM459 0l-7 86q-53 -98 -178 -98q-94 0 -141 52.5t-47 150.5
v296h86v-284q0 -145 122 -145q71 0 111 46.5t42 133.5v249h86v-487h-74z" />
    <glyph glyph-name="Uhungarumlaut" unicode="&#x170;" horiz-adv-x="752" 
d="M571 271v429h89v-425q0 -140 -74.5 -213.5t-209.5 -73.5q-136 0 -210 73.5t-74 213.5v425h89v-429q0 -211 195 -211t195 211zM429 899l-92 -111h-70v4l62 113h100v-6zM586 899l-120 -111h-70v4l77 113h113v-6z" />
    <glyph glyph-name="uhungarumlaut" unicode="&#x171;" horiz-adv-x="626" 
d="M459 0l-7 86q-53 -98 -178 -98q-94 0 -141 52.5t-47 150.5v296h86v-284q0 -145 122 -145q71 0 111 46.5t42 133.5v249h86v-487h-74zM353 685l-92 -111h-70v4l62 113h100v-6zM510 685l-120 -111h-70v4l77 113h113v-6z" />
    <glyph glyph-name="Uogonek" unicode="&#x172;" horiz-adv-x="753" 
d="M337 -99q0 52 33 88h-4q-131 4 -202 76.5t-71 209.5v425h89v-429q0 -210 195 -210t195 210v429h89v-425q0 -221 -193 -277q-31 -9 -49 -34t-18 -53q0 -62 58 -62q36 0 66 18l13 -56q-38 -23 -86 -23q-50 0 -82.5 26.5t-32.5 86.5z" />
    <glyph glyph-name="uogonek" unicode="&#x173;" horiz-adv-x="626" 
d="M487 -212q-50 0 -82.5 23.5t-32.5 77.5q0 90 85 131l-6 66q-51 -98 -177 -98q-188 0 -188 203v296h86v-284q0 -145 122 -145q71 0 111 46.5t42 133.5v249h86v-487q-44 -4 -70 -34t-26 -67q0 -50 58 -50q35 0 65 18l14 -56q-38 -23 -87 -23z" />
    <glyph glyph-name="Wcircumflex" unicode="&#x174;" horiz-adv-x="911" 
d="M457 857l-70 -69h-93v3l122 114h83l123 -114v-3h-98zM413 698h87l158 -569l160 571h86l-205 -700h-85l-159 572l-158 -572h-86l-204 700h91l157 -575z" />
    <glyph glyph-name="wcircumflex" unicode="&#x175;" horiz-adv-x="732" 
d="M368 643l-70 -69h-93v3l122 114h83l123 -114v-3h-98zM324 484h89l115 -387l115 390h82l-155 -487h-91l-113 387l-111 -387h-91l-157 487h86l117 -389z" />
    <glyph glyph-name="Ycircumflex" unicode="&#x176;" horiz-adv-x="610" 
d="M261 280l-251 420h96l201 -346l200 346h93l-250 -420v-280h-89v280zM307 857l-70 -69h-93v3l122 114h83l123 -114v-3h-98z" />
    <glyph glyph-name="ycircumflex" unicode="&#x177;" horiz-adv-x="502" 
d="M186 -65l20 56l-201 496h91l155 -406l155 406h89l-235 -580q-28 -68 -71 -95.5t-104 -27.5q-38 0 -78 13l14 72q35 -11 65 -11q71 0 100 77zM251 643l-70 -69h-93v3l122 114h83l123 -114v-3h-98z" />
    <glyph glyph-name="Ydieresis" unicode="&#x178;" horiz-adv-x="610" 
d="M261 280l-251 420h96l201 -346l200 346h93l-250 -420v-280h-89v280zM159 851q0 56 60 56q59 0 59 -56q0 -57 -59 -57q-28 0 -44 15t-16 42zM332 851q0 56 60 56q59 0 59 -56q0 -57 -59 -57q-28 0 -44 15t-16 42z" />
    <glyph glyph-name="Zacute" unicode="&#x179;" horiz-adv-x="570" 
d="M433 899l-114 -111h-73v4l76 113h111v-6zM20 0v67l423 558l-398 -1v76h504v-67l-426 -558l429 1v-76h-532z" />
    <glyph glyph-name="zacute" unicode="&#x17a;" horiz-adv-x="489" 
d="M390 685l-114 -111h-73v4l76 113h111v-6zM40 0v64l297 354h-292v69h394v-65l-299 -353h307v-69h-407z" />
    <glyph glyph-name="Zdotaccent" unicode="&#x17b;" horiz-adv-x="570" 
d="M20 0v67l423 558l-398 -1v76h504v-67l-426 -558l429 1v-76h-532zM228 851q0 56 60 56q59 0 59 -56q0 -57 -59 -57q-28 0 -44 15t-16 42z" />
    <glyph glyph-name="zdotaccent" unicode="&#x17c;" horiz-adv-x="489" 
d="M40 0v64l297 354h-292v69h394v-65l-299 -353h307v-69h-407zM185 637q0 56 60 56q59 0 59 -56q0 -57 -59 -57q-28 0 -44 15t-16 42z" />
    <glyph glyph-name="Zcaron" unicode="&#x17d;" horiz-adv-x="570" 
d="M286 838l71 67h93v-2l-123 -115h-83l-122 115v2h96zM20 0v67l423 558l-398 -1v76h504v-67l-426 -558l429 1v-76h-532z" />
    <glyph glyph-name="zcaron" unicode="&#x17e;" horiz-adv-x="489" 
d="M244 624l71 67h93v-2l-123 -115h-83l-122 115v2h96zM40 0v64l297 354h-292v69h394v-65l-299 -353h307v-69h-407z" />
    <glyph glyph-name="florin" unicode="&#x192;" horiz-adv-x="380" 
d="M65 -38l54 344h-87l10 66h87l13 76q27 172 178 172q47 0 80 -14l-25 -72q-27 11 -56 11q-38 0 -61 -22.5t-32 -79.5l-12 -71h138l-10 -66h-138l-54 -350q-28 -172 -175 -172q-45 0 -77 13l25 72q27 -11 54 -11q35 0 57 23t31 81z" />
    <glyph glyph-name="Scommaaccent" unicode="&#x218;" horiz-adv-x="629" 
d="M265 -292l-17 40q56 16 63 80h-5q-59 0 -59 55q0 53 56 53q61 0 61 -81q0 -54 -25 -94t-74 -53zM552 588l-70 -44q-28 52 -69 75.5t-106 23.5q-158 0 -158 -111q0 -47 30.5 -79t103.5 -49l65 -15q115 -27 168 -74t53 -127q0 -98 -67 -149t-190 -51q-193 0 -274 136l70 44
q40 -59 86 -85t116 -26q174 0 174 124q0 52 -31 78t-118 48l-65 16q-204 50 -204 205q0 84 61.5 134t179.5 50q96 0 152 -30t93 -94z" />
    <glyph glyph-name="scommaaccent" unicode="&#x219;" horiz-adv-x="511" 
d="M209 -292l-17 40q56 16 63 80h-5q-59 0 -59 55q0 53 56 53q61 0 61 -81q0 -54 -25 -94t-74 -53zM249 54q114 0 114 75q0 32 -22 48t-75 27l-44 9q-85 19 -122 55t-37 90q0 64 46.5 102.5t139.5 38.5q62 0 103.5 -19t73.5 -59l-55 -53q-27 34 -55 48.5t-73 14.5
q-100 0 -100 -67q0 -58 89 -77l55 -12q87 -19 122 -53t35 -87q0 -64 -45.5 -105.5t-150.5 -41.5q-148 0 -208 99l61 44q26 -42 60.5 -59.5t87.5 -17.5z" />
    <glyph glyph-name="dotlessj" unicode="&#x237;" horiz-adv-x="276" 
d="M95 -33v520h86v-531q0 -172 -153 -172q-38 0 -77 13l14 72q28 -11 58 -11q36 0 54 24t18 85z" />
    <glyph glyph-name="circumflex" unicode="&#x2c6;" horiz-adv-x="600" 
d="M298 643l-70 -69h-93v3l122 114h83l123 -114v-3h-98z" />
    <glyph glyph-name="caron" unicode="&#x2c7;" horiz-adv-x="600" 
d="M299 624l71 67h93v-2l-123 -115h-83l-122 115v2h96z" />
    <glyph glyph-name="breve" unicode="&#x2d8;" horiz-adv-x="600" 
d="M376 691h66q0 -67 -36 -95t-106 -28q-71 0 -107 28t-36 95h66q0 -38 18.5 -53t57.5 -15q40 0 58.5 15t18.5 53z" />
    <glyph glyph-name="dotaccent" unicode="&#x2d9;" horiz-adv-x="600" 
d="M242 637q0 56 60 56q59 0 59 -56q0 -57 -59 -57q-28 0 -44 15t-16 42z" />
    <glyph glyph-name="ring" unicode="&#x2da;" horiz-adv-x="600" 
d="M206 641q0 43 27 68.5t70 25.5q42 0 69 -25.5t27 -68.5t-27 -68.5t-70 -25.5q-42 0 -69 25.5t-27 68.5zM254 641q0 -23 13.5 -38t34.5 -15t35 15t14 38t-13.5 37.5t-34.5 14.5q-22 0 -35.5 -14.5t-13.5 -37.5z" />
    <glyph glyph-name="ogonek" unicode="&#x2db;" horiz-adv-x="600" 
d="M308 -212q-50 0 -83 23.5t-33 77.5q0 68 49.5 108.5t107.5 39.5l4 -37q-44 -4 -70 -34t-26 -67q0 -50 58 -50q36 0 66 18l13 -56q-38 -23 -86 -23z" />
    <glyph glyph-name="tilde" unicode="&#x2dc;" horiz-adv-x="600" 
d="M398 684h65q4 -53 -23 -77t-65 -24q-31 0 -73 20.5t-58 20.5q-29 0 -29 -37h-66q-3 53 23 77t64 24q32 0 75 -20.5t58 -20.5q29 0 29 37z" />
    <glyph glyph-name="hungarumlaut" unicode="&#x2dd;" horiz-adv-x="600" 
d="M350 685l-92 -111h-70v4l62 113h100v-6zM507 685l-120 -111h-70v4l77 113h113v-6z" />
    <glyph glyph-name="Wgrave" unicode="&#x1e80;" horiz-adv-x="911" 
d="M413 698h87l158 -569l160 571h86l-205 -700h-85l-159 572l-158 -572h-86l-204 700h91l157 -575zM426 789l-115 111v6h111l77 -113v-4h-73z" />
    <glyph glyph-name="wgrave" unicode="&#x1e81;" horiz-adv-x="732" 
d="M324 484h89l115 -387l115 390h82l-155 -487h-91l-113 387l-111 -387h-91l-157 487h86l117 -389zM337 576l-115 111v6h111l77 -113v-4h-73z" />
    <glyph glyph-name="Wacute" unicode="&#x1e82;" horiz-adv-x="911" 
d="M413 698h87l158 -569l160 571h86l-205 -700h-85l-159 572l-158 -572h-86l-204 700h91l157 -575zM602 898l-114 -111h-73v4l76 113h111v-6z" />
    <glyph glyph-name="wacute" unicode="&#x1e83;" horiz-adv-x="732" 
d="M324 484h89l115 -387l115 390h82l-155 -487h-91l-113 387l-111 -387h-91l-157 487h86l117 -389zM513 685l-114 -111h-73v4l76 113h111v-6z" />
    <glyph glyph-name="Wdieresis" unicode="&#x1e84;" horiz-adv-x="911" 
d="M413 698h87l158 -569l160 571h86l-205 -700h-85l-159 572l-158 -572h-86l-204 700h91l157 -575zM309 850q0 56 60 56q59 0 59 -56q0 -57 -59 -57q-28 0 -44 15t-16 42zM482 850q0 56 60 56q59 0 59 -56q0 -57 -59 -57q-28 0 -44 15t-16 42z" />
    <glyph glyph-name="wdieresis" unicode="&#x1e85;" horiz-adv-x="732" 
d="M324 484h89l115 -387l115 390h82l-155 -487h-91l-113 387l-111 -387h-91l-157 487h86l117 -389zM220 637q0 56 60 56q59 0 59 -56q0 -57 -59 -57q-28 0 -44 15t-16 42zM393 637q0 56 60 56q59 0 59 -56q0 -57 -59 -57q-28 0 -44 15t-16 42z" />
    <glyph glyph-name="enspace" unicode="&#x2002;" horiz-adv-x="500" 
 />
    <glyph glyph-name="emspace" unicode="&#x2003;" horiz-adv-x="1000" 
 />
    <glyph glyph-name="threeperemspace" unicode="&#x2004;" horiz-adv-x="333" 
 />
    <glyph glyph-name="fourperemspace" unicode="&#x2005;" horiz-adv-x="250" 
 />
    <glyph glyph-name="sixperemspace" unicode="&#x2006;" horiz-adv-x="167" 
 />
    <glyph glyph-name="figurespace" unicode="&#x2007;" 
 />
    <glyph glyph-name="punctuationspace" unicode="&#x2008;" horiz-adv-x="230" 
 />
    <glyph glyph-name="thinspace" unicode="&#x2009;" horiz-adv-x="200" 
 />
    <glyph glyph-name="hairspace" unicode="&#x200a;" horiz-adv-x="100" 
 />
    <glyph glyph-name="zerowidthspace" unicode="&#x200b;" horiz-adv-x="0" 
 />
    <glyph glyph-name="figuredash" unicode="&#x2012;" 
d="M556 371v-72h-488v72h488z" />
    <glyph glyph-name="endash" unicode="&#x2013;" horiz-adv-x="588" 
d="M540 371v-72h-491v72h491z" />
    <glyph glyph-name="emdash" unicode="&#x2014;" horiz-adv-x="788" 
d="M740 371v-72h-691v72h691z" />
    <glyph glyph-name="uni2015" unicode="&#x2015;" horiz-adv-x="1085" 
d="M1037 371v-72h-988v72h988z" />
    <glyph glyph-name="doublebar" unicode="&#x2016;" horiz-adv-x="447" 
d="M110 -65v831h78v-831h-78zM260 -65v831h78v-831h-78z" />
    <glyph glyph-name="quoteleft" unicode="&#x2018;" horiz-adv-x="228" 
d="M109 607q4 1 8 1q26 0 41.5 -15t15.5 -41q0 -56 -57 -56q-61 0 -61 83q0 57 26 99.5t76 56.5l17 -39q-60 -20 -66 -89z" />
    <glyph glyph-name="quoteright" unicode="&#x2019;" horiz-adv-x="228" 
d="M122 612q-4 -1 -8 -1q-26 0 -41.5 15t-15.5 41q0 56 57 56q61 0 61 -83q0 -57 -26 -99.5t-76 -56.5l-17 39q60 20 66 89z" />
    <glyph glyph-name="quotesinglbase" unicode="&#x201a;" horiz-adv-x="226" 
d="M120 -1q-4 -1 -8 -1q-26 0 -41 14.5t-15 40.5q0 55 56 55q60 0 60 -82q0 -55 -26 -97t-74 -55l-17 38q59 20 65 87z" />
    <glyph glyph-name="reversequoteleft" unicode="&#x201b;" horiz-adv-x="228" 
d="M109 612q6 -69 66 -89l-17 -39q-50 14 -76 56.5t-26 99.5q0 83 61 83q57 0 57 -56q0 -26 -15.5 -41t-41.5 -15z" />
    <glyph glyph-name="quotedblleft" unicode="&#x201c;" horiz-adv-x="384" 
d="M109 607q4 1 8 1q26 0 41.5 -15t15.5 -41q0 -56 -57 -56q-61 0 -61 83q0 57 26 99.5t76 56.5l17 -39q-60 -20 -66 -89zM265 607q4 1 8 1q26 0 41.5 -15t15.5 -41q0 -56 -57 -56q-61 0 -61 83q0 57 26 99.5t76 56.5l17 -39q-60 -20 -66 -89z" />
    <glyph glyph-name="quotedblright" unicode="&#x201d;" horiz-adv-x="384" 
d="M119 611q-4 -1 -8 -1q-26 0 -41.5 15t-15.5 41q0 56 57 56q61 0 61 -83q0 -57 -26 -99.5t-76 -56.5l-17 39q60 20 66 89zM277 611q-4 -1 -8 -1q-26 0 -41.5 15t-15.5 41q0 56 57 56q61 0 61 -83q0 -57 -26 -99.5t-76 -56.5l-17 39q60 20 66 89z" />
    <glyph glyph-name="quotedblbase" unicode="&#x201e;" horiz-adv-x="382" 
d="M120 -2q-4 -1 -8 -1q-26 0 -41 14.5t-15 40.5q0 55 56 55q60 0 60 -82q0 -55 -26 -97t-74 -55l-17 38q59 20 65 87zM276 -2q-4 -1 -8 -1q-26 0 -41 14.5t-15 40.5q0 55 56 55q60 0 60 -82q0 -55 -26 -97t-74 -55l-17 38q59 20 65 87z" />
    <glyph glyph-name="reversequotedblleft" unicode="&#x201f;" horiz-adv-x="384" 
d="M107 611q6 -69 66 -89l-17 -39q-50 14 -76 56.5t-26 99.5q0 83 61 83q57 0 57 -56q0 -26 -15.5 -41t-41.5 -15zM265 611q6 -69 66 -89l-17 -39q-50 14 -76 56.5t-26 99.5q0 83 61 83q57 0 57 -56q0 -26 -15.5 -41t-41.5 -15z" />
    <glyph glyph-name="dagger" unicode="&#x2020;" horiz-adv-x="308" 
d="M258 527h-68l-1 -231h-71v231h-69v63h68l-3 120h80l-3 -120h67v-63z" />
    <glyph glyph-name="daggerdbl" unicode="&#x2021;" horiz-adv-x="308" 
d="M49 476h70v60h-70v63h68l-3 111h80l-4 -111h68v-63h-69v-60h69v-63h-68l4 -117h-80l3 117h-68v63z" />
    <glyph glyph-name="bullet" unicode="&#x2022;" horiz-adv-x="431" 
d="M60 327q0 70 41.5 111.5t114.5 41.5q72 0 113.5 -41.5t41.5 -111.5t-41.5 -111.5t-113.5 -41.5q-73 0 -114.5 41.5t-41.5 111.5z" />
    <glyph glyph-name="ellipsis" unicode="&#x2026;" horiz-adv-x="691" 
d="M56 52q0 57 60 57q58 0 58 -57q0 -27 -15.5 -42t-42.5 -15q-28 0 -44 15t-16 42zM286 52q0 57 60 57q59 0 59 -57q0 -27 -15.5 -42t-43.5 -15t-44 15t-16 42zM517 52q0 57 59 57t59 -57q0 -27 -15.5 -42t-43.5 -15q-27 0 -43 15t-16 42z" />
    <glyph glyph-name="perthousand" unicode="&#x2030;" horiz-adv-x="1469" 
d="M827 418q88 0 129 -51.5t41 -162.5q0 -110 -41 -162t-129 -52q-89 0 -130.5 51t-41.5 163q0 111 41.5 162.5t130.5 51.5zM827 357q-51 0 -75.5 -34.5t-24.5 -119.5q0 -84 24.5 -118t74.5 -34t74.5 34.5t24.5 118.5t-24 118.5t-74 34.5zM215 711q88 0 129 -51.5t41 -162.5
q0 -110 -41 -162t-129 -52q-89 0 -130.5 51t-41.5 163q0 111 41.5 162.5t130.5 51.5zM215 650q-51 0 -75.5 -34.5t-24.5 -119.5q0 -84 24.5 -118t74.5 -34t74.5 34.5t24.5 118.5t-24 118.5t-74 34.5zM1252 418q88 0 129 -51.5t41 -162.5q0 -110 -41 -162t-129 -52
q-89 0 -130.5 51t-41.5 163q0 111 41.5 162.5t130.5 51.5zM1252 357q-51 0 -75.5 -34.5t-24.5 -119.5q0 -84 24.5 -118t74.5 -34t74.5 34.5t24.5 118.5t-24 118.5t-74 34.5zM726 700l-338 -700h-81l339 700h80z" />
    <glyph glyph-name="guilsinglleft" unicode="&#x2039;" horiz-adv-x="414" 
d="M246 0l-191 242v3l191 242h98l-192 -241l195 -246h-101z" />
    <glyph glyph-name="guilsinglright" unicode="&#x203a;" horiz-adv-x="414" 
d="M168 487l191 -242v-3l-191 -242h-98l192 241l-195 246h101z" />
    <glyph glyph-name="fraction" unicode="&#x2044;" horiz-adv-x="506" 
d="M462 700l-338 -700h-81l339 700h80z" />
    <glyph glyph-name="uni2070" unicode="&#x2070;" horiz-adv-x="432" 
d="M215 712q88 0 129 -51.5t41 -162.5q0 -110 -41 -162t-129 -52q-89 0 -130.5 51t-41.5 163q0 111 41.5 162.5t130.5 51.5zM215 651q-51 0 -75.5 -34.5t-24.5 -119.5q0 -84 24.5 -118t74.5 -34t74.5 34.5t24.5 118.5t-24 118.5t-74 34.5z" />
    <glyph glyph-name="uni2074" unicode="&#x2074;" horiz-adv-x="395" 
d="M25 391v51l130 260h72l-126 -247h150v167h67v-167h57v-64h-57v-97h-67v97h-226z" />
    <glyph glyph-name="uni2075" unicode="&#x2075;" horiz-adv-x="360" 
d="M119 641l-11 -106q38 18 85 18q63 0 101.5 -31.5t38.5 -96.5t-41 -103t-117 -38q-107 0 -150 70q10 10 50 40q31 -50 98 -50q40 0 64 21.5t24 58.5q0 74 -87 74q-49 0 -89 -28l-43 22l20 209h251v-61z" />
    <glyph glyph-name="uni2076" unicode="&#x2076;" horiz-adv-x="408" 
d="M216 284q-173 0 -173 213q0 215 175 215q102 0 139 -69l-49 -39q-26 48 -90 48q-50 0 -77.5 -35.5t-26.5 -121.5v-13q13 31 43 49t70 18q64 0 99.5 -33t35.5 -94q0 -63 -37.5 -100.5t-108.5 -37.5zM128 418q0 -34 22 -54.5t60 -20.5q37 0 60 19.5t23 56.5q0 74 -82 74
q-39 0 -61 -20.5t-22 -54.5z" />
    <glyph glyph-name="uni2077" unicode="&#x2077;" horiz-adv-x="313" 
d="M171 294h-75q0 98 35 190t96 153l-204 -1v65h286v-59q-64 -46 -101 -140.5t-37 -207.5z" />
    <glyph glyph-name="uni2078" unicode="&#x2078;" horiz-adv-x="397" 
d="M197 284q-74 0 -114.5 31.5t-40.5 89.5q0 78 73 101q-58 26 -58 91q0 115 140 115q141 0 141 -114q0 -65 -58 -92q72 -23 72 -101q0 -58 -40 -89.5t-115 -31.5zM280 407q0 32 -21.5 49.5t-60.5 17.5q-40 0 -62.5 -17.5t-22.5 -49.5t22 -49.5t62 -17.5t61.5 17.5
t21.5 49.5zM272 596q0 58 -74 58q-76 0 -76 -58q0 -62 75 -62q36 0 55.5 16.5t19.5 45.5z" />
    <glyph glyph-name="uni2079" unicode="&#x2079;" horiz-adv-x="408" 
d="M185 284q-102 0 -139 66l48 39q28 -45 90 -45q107 0 104 155v12q-12 -31 -42 -50t-70 -19q-64 0 -100 34t-36 96q0 64 38.5 102t110.5 38q171 0 171 -213q0 -215 -175 -215zM275 575q0 36 -22.5 56.5t-60.5 20.5q-37 0 -59.5 -20t-22.5 -57q0 -77 82 -77q39 0 61 21
t22 56z" />
    <glyph glyph-name="uni207A" unicode="&#x207a;" horiz-adv-x="309" 
d="M184 356h-58v92h-92v53h92v93h58v-93h92v-53h-92v-92z" />
    <glyph glyph-name="uni207B" unicode="&#x207b;" horiz-adv-x="309" 
d="M276 501v-53h-242v53h242z" />
    <glyph glyph-name="uni207C" unicode="&#x207c;" horiz-adv-x="309" 
d="M276 458v-55h-242v55h242zM276 545v-55h-242v55h242z" />
    <glyph glyph-name="uni207D" unicode="&#x207d;" horiz-adv-x="219" 
d="M193 287l-6 -58q-81 7 -120 67.5t-39 177.5q0 230 159 243l6 -58q-53 -6 -78 -48t-25 -137q0 -96 25 -137.5t78 -49.5z" />
    <glyph glyph-name="uni207E" unicode="&#x207e;" horiz-adv-x="219" 
d="M29 229l-6 58q53 8 78 49.5t25 137.5q0 95 -25 137t-78 48l7 58q159 -13 159 -243t-160 -245z" />
    <glyph glyph-name="uni2080" unicode="&#x2080;" horiz-adv-x="432" 
d="M215 418q88 0 129 -51.5t41 -162.5q0 -110 -41 -162t-129 -52q-89 0 -130.5 51t-41.5 163q0 111 41.5 162.5t130.5 51.5zM215 357q-51 0 -75.5 -34.5t-24.5 -119.5q0 -84 24.5 -118t74.5 -34t74.5 34.5t24.5 118.5t-24 118.5t-74 34.5z" />
    <glyph glyph-name="uni2081" unicode="&#x2081;" horiz-adv-x="225" 
d="M162 0h-72v320l-51 -32l-28 57l105 64h46v-409z" />
    <glyph glyph-name="uni2082" unicode="&#x2082;" horiz-adv-x="370" 
d="M33 0v61l133 119q44 39 62 64t18 52q0 60 -72 60q-37 0 -59 -14.5t-39 -48.5l-50 37q45 88 155 88q65 0 101.5 -29.5t36.5 -85.5q0 -39 -23 -75t-79 -86l-85 -78l203 3v-67h-302z" />
    <glyph glyph-name="uni2083" unicode="&#x2083;" horiz-adv-x="372" 
d="M177 -10q-108 0 -152 74l51 39q32 -53 96 -53q87 0 87 68q0 62 -74 62h-53v60h52q30 0 46.5 15t16.5 43q0 59 -74 59q-33 0 -53.5 -12.5t-37.5 -42.5l-49 35q41 81 147 81q66 0 103 -29t37 -85q0 -61 -56 -92q66 -23 66 -93q0 -59 -38.5 -94t-114.5 -35z" />
    <glyph glyph-name="uni2084" unicode="&#x2084;" horiz-adv-x="395" 
d="M25 97v51l130 260h72l-126 -247h150v167h67v-167h57v-64h-57v-97h-67v97h-226z" />
    <glyph glyph-name="uni2085" unicode="&#x2085;" horiz-adv-x="360" 
d="M119 347l-11 -106q38 18 85 18q63 0 101.5 -31.5t38.5 -96.5t-41 -103t-117 -38q-107 0 -150 70q10 10 50 40q31 -50 98 -50q40 0 64 21.5t24 58.5q0 74 -87 74q-49 0 -89 -28l-43 22l20 209h251v-61z" />
    <glyph glyph-name="uni2086" unicode="&#x2086;" horiz-adv-x="408" 
d="M216 -10q-173 0 -173 213q0 215 175 215q102 0 139 -69l-49 -39q-26 48 -90 48q-50 0 -77.5 -35.5t-26.5 -121.5v-13q13 31 43 49t70 18q64 0 99.5 -33t35.5 -94q0 -63 -37.5 -100.5t-108.5 -37.5zM128 124q0 -34 22 -54.5t60 -20.5q37 0 60 19.5t23 56.5q0 74 -82 74
q-39 0 -61 -20.5t-22 -54.5z" />
    <glyph glyph-name="uni2087" unicode="&#x2087;" horiz-adv-x="313" 
d="M171 0h-75q0 98 35 190t96 153l-204 -1v65h286v-59q-64 -46 -101 -140.5t-37 -207.5z" />
    <glyph glyph-name="uni2088" unicode="&#x2088;" horiz-adv-x="397" 
d="M197 -10q-74 0 -114.5 31.5t-40.5 89.5q0 78 73 101q-58 26 -58 91q0 115 140 115q141 0 141 -114q0 -65 -58 -92q72 -23 72 -101q0 -58 -40 -89.5t-115 -31.5zM280 113q0 32 -21.5 49.5t-60.5 17.5q-40 0 -62.5 -17.5t-22.5 -49.5t22 -49.5t62 -17.5t61.5 17.5
t21.5 49.5zM272 302q0 58 -74 58q-76 0 -76 -58q0 -62 75 -62q36 0 55.5 16.5t19.5 45.5z" />
    <glyph glyph-name="uni2089" unicode="&#x2089;" horiz-adv-x="408" 
d="M185 -10q-102 0 -139 66l48 39q28 -45 90 -45q107 0 104 155v12q-12 -31 -42 -50t-70 -19q-64 0 -100 34t-36 96q0 64 38.5 102t110.5 38q171 0 171 -213q0 -215 -175 -215zM275 281q0 36 -22.5 56.5t-60.5 20.5q-37 0 -59.5 -20t-22.5 -57q0 -77 82 -77q39 0 61 21
t22 56z" />
    <glyph glyph-name="uni208A" unicode="&#x208a;" horiz-adv-x="309" 
d="M184 62h-58v92h-92v53h92v93h58v-93h92v-53h-92v-92z" />
    <glyph glyph-name="uni208B" unicode="&#x208b;" horiz-adv-x="309" 
d="M276 207v-53h-242v53h242z" />
    <glyph glyph-name="uni208C" unicode="&#x208c;" horiz-adv-x="309" 
d="M276 164v-55h-242v55h242zM276 251v-55h-242v55h242z" />
    <glyph glyph-name="uni208D" unicode="&#x208d;" horiz-adv-x="216" 
d="M193 -7l-6 -58q-81 7 -120 67.5t-39 177.5q0 230 159 243l6 -58q-53 -6 -78 -48t-25 -137q0 -96 25 -137.5t78 -49.5z" />
    <glyph glyph-name="uni208E" unicode="&#x208e;" horiz-adv-x="216" 
d="M29 -65l-6 58q53 8 78 49.5t25 137.5q0 95 -25 137t-78 48l7 58q159 -13 159 -243t-160 -245z" />
    <glyph glyph-name="Euro" unicode="&#x20ac;" horiz-adv-x="682" 
d="M390 -12q-129 0 -202 60.5t-93 192.5h-90v68h84q-1 13 -1 42v14h-83v68h87q15 146 88.5 212.5t209.5 66.5q93 0 152.5 -32.5t94.5 -105.5l-70 -48q-28 63 -69.5 89t-107.5 26q-94 0 -145.5 -46.5t-63.5 -161.5h315l-17 -68h-302v-13q0 -30 1 -43h287l-17 -68h-263
q17 -99 67 -139.5t138 -40.5q65 0 110 25t76 83l67 -44q-40 -72 -102 -104.5t-151 -32.5z" />
    <glyph glyph-name="trademark" unicode="&#x2122;" horiz-adv-x="686" 
d="M312 406v294h60l104 -236l106 236h59v-294h-53v198l-89 -198h-46l-89 194l2 -194h-54zM24 700h250v-47h-98v-247h-54v247h-98v47z" />
    <glyph glyph-name="uni2153" unicode="&#x2153;" horiz-adv-x="829" 
d="M634 -10q-108 0 -152 74l51 39q32 -53 96 -53q87 0 87 68q0 62 -74 62h-53v60h52q30 0 46.5 15t16.5 43q0 59 -74 59q-33 0 -53.5 -12.5t-37.5 -42.5l-49 35q41 81 147 81q66 0 103 -29t37 -85q0 -61 -56 -92q66 -23 66 -93q0 -59 -38.5 -94t-114.5 -35zM162 293h-72v320
l-51 -32l-28 57l105 64h46v-409zM556 700l-338 -700h-81l339 700h80z" />
    <glyph glyph-name="uni2154" unicode="&#x2154;" horiz-adv-x="954" 
d="M759 -10q-108 0 -152 74l51 39q32 -53 96 -53q87 0 87 68q0 62 -74 62h-53v60h52q30 0 46.5 15t16.5 43q0 59 -74 59q-33 0 -53.5 -12.5t-37.5 -42.5l-49 35q41 81 147 81q66 0 103 -29t37 -85q0 -61 -56 -92q66 -23 66 -93q0 -59 -38.5 -94t-114.5 -35zM33 293v61
l133 119q44 39 62 64t18 52q0 60 -72 60q-37 0 -59 -14.5t-39 -48.5l-50 37q45 88 155 88q65 0 101.5 -29.5t36.5 -85.5q0 -39 -23 -75t-79 -86l-85 -78l203 3v-67h-302zM681 700l-338 -700h-81l339 700h80z" />
    <glyph glyph-name="uni2155" unicode="&#x2155;" horiz-adv-x="817" 
d="M162 293h-72v320l-51 -32l-28 57l105 64h46v-409zM576 347l-11 -106q37 18 85 18q63 0 101.5 -31.5t38.5 -96.5t-41 -103t-117 -38q-107 0 -150 70q10 10 50 40q31 -50 98 -50q40 0 64 21.5t24 58.5q0 74 -87 74q-49 0 -89 -28l-43 22l20 209h251v-61zM556 700l-338 -700
h-81l339 700h80z" />
    <glyph glyph-name="uni2156" unicode="&#x2156;" horiz-adv-x="942" 
d="M33 293v61l133 119q44 39 62 64t18 52q0 60 -72 60q-37 0 -59 -14.5t-39 -48.5l-50 37q45 88 155 88q65 0 101.5 -29.5t36.5 -85.5q0 -39 -23 -75t-79 -86l-85 -78l203 3v-67h-302zM701 347l-11 -106q38 18 85 18q63 0 101.5 -31.5t38.5 -96.5t-41 -103t-117 -38
q-107 0 -150 70q10 10 50 40q31 -50 98 -50q40 0 64 21.5t24 58.5q0 74 -87 74q-49 0 -89 -28l-43 22l20 209h251v-61zM681 700l-338 -700h-81l339 700h80z" />
    <glyph glyph-name="uni2157" unicode="&#x2157;" horiz-adv-x="942" 
d="M177 283q-108 0 -152 74l51 39q32 -53 96 -53q87 0 87 68q0 62 -74 62h-53v60h52q30 0 46.5 15t16.5 43q0 59 -74 59q-33 0 -53.5 -12.5t-37.5 -42.5l-49 35q41 81 147 81q66 0 103 -29t37 -85q0 -61 -56 -92q66 -23 66 -93q0 -59 -38.5 -94t-114.5 -35zM701 347
l-11 -106q38 18 85 18q63 0 101.5 -31.5t38.5 -96.5t-41 -103t-117 -38q-107 0 -150 70q10 10 50 40q31 -50 98 -50q40 0 64 21.5t24 58.5q0 74 -87 74q-49 0 -89 -28l-43 22l20 209h251v-61zM681 700l-338 -700h-81l339 700h80z" />
    <glyph glyph-name="uni2158" unicode="&#x2158;" horiz-adv-x="967" 
d="M726 347l-11 -106q37 18 85 18q63 0 101.5 -31.5t38.5 -96.5t-41 -103t-117 -38q-107 0 -150 70q10 10 50 40q31 -50 98 -50q40 0 64 21.5t24 58.5q0 74 -87 74q-49 0 -89 -28l-43 22l20 209h251v-61zM706 700l-338 -700h-81l339 700h80zM25 390v51l130 260h72l-126 -247
h150v167h67v-167h57v-64h-57v-97h-67v97h-226z" />
    <glyph glyph-name="uni2159" unicode="&#x2159;" horiz-adv-x="865" 
d="M162 293h-72v320l-51 -32l-28 57l105 64h46v-409zM673 -10q-173 0 -173 213q0 215 175 215q101 0 139 -69l-49 -39q-26 48 -90 48q-50 0 -77.5 -35.5t-26.5 -121.5v-13q13 31 43 49t70 18q64 0 99.5 -33t35.5 -94q0 -63 -37.5 -100.5t-108.5 -37.5zM585 124
q0 -34 22 -54.5t60 -20.5q37 0 60 19.5t23 56.5q0 74 -82 74q-39 0 -61 -20.5t-22 -54.5zM556 700l-338 -700h-81l339 700h80z" />
    <glyph glyph-name="uni215A" unicode="&#x215a;" horiz-adv-x="990" 
d="M119 640l-11 -106q38 18 85 18q63 0 101.5 -31.5t38.5 -96.5t-41 -103t-117 -38q-107 0 -150 70q10 10 50 40q31 -50 98 -50q40 0 64 21.5t24 58.5q0 74 -87 74q-49 0 -89 -28l-43 22l20 209h251v-61zM798 -10q-173 0 -173 213q0 215 175 215q102 0 139 -69l-49 -39
q-26 48 -90 48q-50 0 -77.5 -35.5t-26.5 -121.5v-13q13 31 43 49t70 18q64 0 99.5 -33t35.5 -94q0 -63 -37.5 -100.5t-108.5 -37.5zM710 124q0 -34 22 -54.5t60 -20.5q37 0 60 19.5t23 56.5q0 74 -82 74q-39 0 -61 -20.5t-22 -54.5zM681 700l-338 -700h-81l339 700h80z" />
    <glyph glyph-name="uni215B" unicode="&#x215b;" horiz-adv-x="854" 
d="M162 293h-72v320l-51 -32l-28 57l105 64h46v-409zM654 -10q-74 0 -114.5 31.5t-40.5 89.5q0 78 73 101q-58 26 -58 91q0 115 140 115q141 0 141 -114q0 -65 -58 -92q72 -23 72 -101q0 -58 -40 -89.5t-115 -31.5zM737 113q0 32 -21.5 49.5t-60.5 17.5q-40 0 -62.5 -17.5
t-22.5 -49.5t22 -49.5t62 -17.5t61.5 17.5t21.5 49.5zM729 302q0 58 -74 58q-76 0 -76 -58q0 -62 75 -62q36 0 55.5 16.5t19.5 45.5zM556 700l-338 -700h-81l339 700h80z" />
    <glyph glyph-name="uni215C" unicode="&#x215c;" horiz-adv-x="979" 
d="M177 283q-108 0 -152 74l51 39q32 -53 96 -53q87 0 87 68q0 62 -74 62h-53v60h52q30 0 46.5 15t16.5 43q0 59 -74 59q-33 0 -53.5 -12.5t-37.5 -42.5l-49 35q41 81 147 81q66 0 103 -29t37 -85q0 -61 -56 -92q66 -23 66 -93q0 -59 -38.5 -94t-114.5 -35zM779 -10
q-74 0 -114.5 31.5t-40.5 89.5q0 78 73 101q-58 26 -58 91q0 115 140 115q141 0 141 -114q0 -65 -58 -92q72 -23 72 -101q0 -58 -40 -89.5t-115 -31.5zM862 113q0 32 -21.5 49.5t-60.5 17.5q-40 0 -62.5 -17.5t-22.5 -49.5t22 -49.5t62 -17.5t61.5 17.5t21.5 49.5zM854 302
q0 58 -74 58q-76 0 -76 -58q0 -62 75 -62q36 0 55.5 16.5t19.5 45.5zM681 700l-338 -700h-81l339 700h80z" />
    <glyph glyph-name="uni215D" unicode="&#x215d;" horiz-adv-x="979" 
d="M779 -10q-74 0 -114.5 31.5t-40.5 89.5q0 78 73 101q-58 26 -58 91q0 115 140 115q141 0 141 -114q0 -65 -58 -92q72 -23 72 -101q0 -58 -40 -89.5t-115 -31.5zM862 113q0 32 -21.5 49.5t-60.5 17.5q-40 0 -62.5 -17.5t-22.5 -49.5t22 -49.5t62 -17.5t61.5 17.5
t21.5 49.5zM854 302q0 58 -74 58q-76 0 -76 -58q0 -62 75 -62q36 0 55.5 16.5t19.5 45.5zM119 640l-11 -106q38 18 85 18q63 0 101.5 -31.5t38.5 -96.5t-41 -103t-117 -38q-107 0 -150 70q10 10 50 40q31 -50 98 -50q40 0 64 21.5t24 58.5q0 74 -87 74q-49 0 -89 -28l-43 22
l20 209h251v-61zM681 700l-338 -700h-81l339 700h80z" />
    <glyph glyph-name="uni215E" unicode="&#x215e;" horiz-adv-x="909" 
d="M709 -10q-74 0 -114.5 31.5t-40.5 89.5q0 78 73 101q-58 26 -58 91q0 115 140 115q141 0 141 -114q0 -65 -58 -92q72 -23 72 -101q0 -58 -40 -89.5t-115 -31.5zM792 113q0 32 -21.5 49.5t-60.5 17.5q-40 0 -62.5 -17.5t-22.5 -49.5t22 -49.5t62 -17.5t61.5 17.5
t21.5 49.5zM784 302q0 58 -74 58q-76 0 -76 -58q0 -62 75 -62q36 0 55.5 16.5t19.5 45.5zM171 293h-75q0 98 35 190t96 153l-204 -1v65h286v-59q-64 -46 -101 -140.5t-37 -207.5zM611 700l-338 -700h-81l339 700h80z" />
    <glyph glyph-name="uni215F" unicode="&#x215f;" horiz-adv-x="831" 
d="M162 293h-72v320l-51 -32l-28 57l105 64h46v-409zM556 700l-338 -700h-81l339 700h80z" />
    <glyph glyph-name="minus" unicode="&#x2212;" horiz-adv-x="506" 
d="M456 345v-71h-406v71h406z" />
    <glyph glyph-name="approxequal" unicode="&#x2248;" horiz-adv-x="506" 
d="M347 398q66 0 109 29v-72q-44 -26 -117 -26q-37 0 -91 17t-86 17q-68 0 -112 -28v72q44 25 115 25q38 0 93.5 -17t88.5 -17zM347 248q66 0 109 29v-72q-44 -26 -117 -26q-37 0 -91 17t-86 17q-68 0 -112 -28v72q44 25 115 25q38 0 93.5 -17t88.5 -17z" />
    <glyph glyph-name="notequal" unicode="&#x2260;" horiz-adv-x="506" 
d="M50 346v71h243l62 85h76l-62 -85h87v-71h-138l-53 -73h191v-71h-243l-59 -83h-77l60 83h-87v71h138l54 73h-192z" />
    <glyph glyph-name="lessequal" unicode="&#x2264;" horiz-adv-x="510" 
d="M375 523l37 -56l-204 -134l205 -133l-38 -60l-273 172v39zM86 0v71h335v-71h-335z" />
    <glyph glyph-name="greaterequal" unicode="&#x2265;" horiz-adv-x="510" 
d="M139 140l-36 57l204 134l-205 134l38 58l273 -171v-38zM421 71v-71h-335v71h335z" />
    <glyph glyph-name="aogonek.school" unicode="&#xe150;" horiz-adv-x="611" 
d="M440 18l-5 67q-48 -97 -173 -97q-100 0 -152.5 65.5t-52.5 190.5t55 190t160 65q118 0 164 -93l9 81h73v-487q-43 -4 -69.5 -34t-26.5 -67q0 -50 58 -50q36 0 66 18l13 -56q-38 -23 -86 -23q-50 0 -83 23.5t-33 77.5q0 88 83 129zM432 245q0 93 -40 139t-107 46
q-73 0 -107.5 -45.5t-34.5 -141.5q0 -186 142 -186q67 0 107 46.5t40 141.5z" />
    <glyph glyph-name="a.school" unicode="&#xe151;" horiz-adv-x="611" 
d="M439 0l-5 87q-48 -99 -172 -99q-100 0 -152.5 65.5t-52.5 190.5q0 124 55.5 189.5t160.5 65.5q115 0 163 -94l9 82h73v-487h-79zM432 245q0 93 -40.5 139t-105.5 46q-73 0 -108 -45.5t-35 -141.5q0 -186 142 -186q66 0 106.5 46.5t40.5 141.5z" />
    <glyph glyph-name="agrave.school" unicode="&#xe152;" horiz-adv-x="611" 
d="M439 0l-5 87q-48 -99 -172 -99q-100 0 -152.5 65.5t-52.5 190.5q0 124 55.5 189.5t160.5 65.5q115 0 163 -94l9 82h73v-487h-79zM432 245q0 93 -40.5 139t-105.5 46q-73 0 -108 -45.5t-35 -141.5q0 -186 142 -186q66 0 106.5 46.5t40.5 141.5zM255 576l-115 111v6h111
l77 -113v-4h-73z" />
    <glyph glyph-name="aacute.school" unicode="&#xe153;" horiz-adv-x="611" 
d="M439 0l-5 87q-48 -99 -172 -99q-100 0 -152.5 65.5t-52.5 190.5q0 124 55.5 189.5t160.5 65.5q115 0 163 -94l9 82h73v-487h-79zM432 245q0 93 -40.5 139t-105.5 46q-73 0 -108 -45.5t-35 -141.5q0 -186 142 -186q66 0 106.5 46.5t40.5 141.5zM430 685l-114 -111h-73v4
l76 113h111v-6z" />
    <glyph glyph-name="acircumflex.school" unicode="&#xe154;" horiz-adv-x="611" 
d="M285 643l-70 -69h-93v3l122 114h83l123 -114v-3h-98zM439 0l-5 87q-48 -99 -172 -99q-100 0 -152.5 65.5t-52.5 190.5q0 124 55.5 189.5t160.5 65.5q115 0 163 -94l9 82h73v-487h-79zM432 245q0 93 -40.5 139t-105.5 46q-73 0 -108 -45.5t-35 -141.5q0 -186 142 -186
q66 0 106.5 46.5t40.5 141.5z" />
    <glyph glyph-name="adieresis.school" unicode="&#xe155;" horiz-adv-x="611" 
d="M137 637q0 56 60 56q59 0 59 -56q0 -57 -59 -57q-28 0 -44 15t-16 42zM310 637q0 56 60 56q59 0 59 -56q0 -57 -59 -57q-28 0 -44 15t-16 42zM439 0l-5 87q-48 -99 -172 -99q-100 0 -152.5 65.5t-52.5 190.5q0 124 55.5 189.5t160.5 65.5q115 0 163 -94l9 82h73v-487h-79
zM432 245q0 93 -40.5 139t-105.5 46q-73 0 -108 -45.5t-35 -141.5q0 -186 142 -186q66 0 106.5 46.5t40.5 141.5z" />
    <glyph glyph-name="atilde.school" unicode="&#xe156;" horiz-adv-x="611" 
d="M439 0l-5 87q-48 -99 -172 -99q-100 0 -152.5 65.5t-52.5 190.5q0 124 55.5 189.5t160.5 65.5q115 0 163 -94l9 82h73v-487h-79zM432 245q0 93 -40.5 139t-105.5 46q-73 0 -108 -45.5t-35 -141.5q0 -186 142 -186q66 0 106.5 46.5t40.5 141.5zM375 684h65q4 -53 -23 -77
t-65 -24q-30 0 -72.5 20.5t-58.5 20.5q-29 0 -29 -37h-66q-3 53 23 77t64 24q32 0 75 -20.5t58 -20.5q29 0 29 37z" />
    <glyph glyph-name="aring.school" unicode="&#xe157;" horiz-adv-x="611" 
d="M439 0l-5 87q-48 -99 -172 -99q-100 0 -152.5 65.5t-52.5 190.5q0 124 55.5 189.5t160.5 65.5q115 0 163 -94l9 82h73v-487h-79zM432 245q0 93 -40.5 139t-105.5 46q-73 0 -108 -45.5t-35 -141.5q0 -186 142 -186q66 0 106.5 46.5t40.5 141.5zM187 641q0 43 27 68.5
t70 25.5q42 0 69 -25.5t27 -68.5t-27 -68.5t-70 -25.5q-42 0 -69 25.5t-27 68.5zM235 641q0 -23 13.5 -38t34.5 -15t35 15t14 38t-13.5 37.5t-34.5 14.5q-22 0 -35.5 -14.5t-13.5 -37.5z" />
    <glyph glyph-name="amacron.school" unicode="&#xe159;" horiz-adv-x="611" 
d="M439 0l-5 87q-48 -99 -172 -99q-100 0 -152.5 65.5t-52.5 190.5q0 124 55.5 189.5t160.5 65.5q115 0 163 -94l9 82h73v-487h-79zM432 245q0 93 -40.5 139t-105.5 46q-73 0 -108 -45.5t-35 -141.5q0 -186 142 -186q66 0 106.5 46.5t40.5 141.5zM412 660v-59h-254v59h254z
" />
    <glyph glyph-name="abreve.school" unicode="&#xe15a;" horiz-adv-x="611" 
d="M439 0l-5 87q-48 -99 -172 -99q-100 0 -152.5 65.5t-52.5 190.5q0 124 55.5 189.5t160.5 65.5q115 0 163 -94l9 82h73v-487h-79zM432 245q0 93 -40.5 139t-105.5 46q-73 0 -108 -45.5t-35 -141.5q0 -186 142 -186q66 0 106.5 46.5t40.5 141.5zM359 691h66q0 -67 -36 -95
t-106 -28q-71 0 -107 28t-36 95h66q0 -38 18.5 -53t57.5 -15q40 0 58.5 15t18.5 53z" />
    <glyph glyph-name="y.school" unicode="&#xe16b;" horiz-adv-x="613" 
d="M275 -216q-156 0 -210 115l62 44q24 -48 59.5 -68.5t88.5 -20.5q159 0 159 151v81q-49 -87 -161 -87q-93 0 -139.5 52.5t-46.5 150.5v285h86v-273q0 -145 117 -145q66 0 104 47t39 133v238h86v-473q0 -117 -65.5 -173.5t-178.5 -56.5z" />
    <glyph glyph-name="yacute.school" unicode="&#xe16d;" horiz-adv-x="613" 
d="M275 -216q-156 0 -210 115l62 44q24 -48 59.5 -68.5t88.5 -20.5q159 0 159 151v81q-49 -87 -161 -87q-93 0 -139.5 52.5t-46.5 150.5v285h86v-273q0 -145 117 -145q66 0 104 47t39 133v238h86v-473q0 -117 -65.5 -173.5t-178.5 -56.5zM417 685l-114 -111h-73v4l76 113
h111v-6z" />
    <glyph glyph-name="ycircumflex.school" unicode="&#xe16e;" horiz-adv-x="613" 
d="M308 643l-70 -69h-93v3l122 114h83l123 -114v-3h-98zM275 -216q-156 0 -210 115l62 44q24 -48 59.5 -68.5t88.5 -20.5q159 0 159 151v81q-49 -87 -161 -87q-93 0 -139.5 52.5t-46.5 150.5v285h86v-273q0 -145 117 -145q66 0 104 47t39 133v238h86v-473
q0 -117 -65.5 -173.5t-178.5 -56.5z" />
    <glyph glyph-name="ydieresis.school" unicode="&#xe16f;" horiz-adv-x="613" 
d="M162 637q0 56 60 56q59 0 59 -56q0 -57 -59 -57q-28 0 -44 15t-16 42zM335 637q0 56 60 56q59 0 59 -56q0 -57 -59 -57q-28 0 -44 15t-16 42zM275 -216q-156 0 -210 115l62 44q24 -48 59.5 -68.5t88.5 -20.5q159 0 159 151v81q-49 -87 -161 -87q-93 0 -139.5 52.5
t-46.5 150.5v285h86v-273q0 -145 117 -145q66 0 104 47t39 133v238h86v-473q0 -117 -65.5 -173.5t-178.5 -56.5z" />
    <glyph glyph-name="cordinal" unicode="&#xe181;" horiz-adv-x="394" 
d="M209 348q-166 0 -166 183q0 181 167 181q101 0 142 -77l-48 -33q-28 57 -94 57q-53 0 -77 -29.5t-24 -99.5q0 -68 24.5 -97.5t76.5 -29.5q37 0 59 13t37 45l51 -26q-39 -87 -148 -87z" />
    <glyph glyph-name="ordfeminine.school" unicode="&#xe182;" horiz-adv-x="441" 
d="M311 359l-4 57q-33 -68 -120 -68q-70 0 -107.5 46.5t-37.5 135.5t39.5 135.5t113.5 46.5q81 0 114 -66l7 55h56v-342h-61zM305 531q0 64 -27 95.5t-71 31.5q-98 0 -98 -128q0 -127 97 -127q46 0 72.5 31.5t26.5 96.5z" />
    <glyph glyph-name="caronSlovak" unicode="&#xe413;" horiz-adv-x="600" 
d="M318 481h-59l7 220h84z" />
    <glyph glyph-name="commaaccent" unicode="&#xe414;" horiz-adv-x="600" 
d="M258 -292l-17 40q56 16 63 80h-5q-59 0 -59 55q0 53 56 53q61 0 61 -81q0 -54 -25 -94t-74 -53z" />
    <glyph glyph-name="commaaccent" unicode="&#xf6c3;" horiz-adv-x="600" 
d="M258 -292l-17 40q56 16 63 80h-5q-59 0 -59 55q0 53 56 53q61 0 61 -81q0 -54 -25 -94t-74 -53z" />
    <glyph glyph-name="exclamdown.cap" unicode="&#xe441;" horiz-adv-x="231" 
d="M70 0l12 506h71l12 -506h-95zM176 648q0 -57 -59 -57t-59 57q0 27 16 42t43 15q28 0 43.5 -15t15.5 -42z" />
    <glyph glyph-name="questiondown.cap" unicode="&#xe444;" horiz-adv-x="503" 
d="M294 510v-155h-44q-161 0 -161 -150q0 -68 41.5 -103.5t118.5 -35.5q61 0 102 25.5t72 88.5l62 -45q-36 -75 -95.5 -109t-150.5 -34q-108 0 -172.5 55.5t-64.5 151.5q0 95 53 149t153 61v101h86zM311 652q0 -57 -60 -57q-58 0 -58 57q0 27 15.5 42t42.5 15q28 0 44 -15
t16 -42z" />
    <glyph glyph-name="onethirdemdash" unicode="&#xe471;" horiz-adv-x="380" 
d="M332 371v-72h-283v72h283z" />
    <glyph glyph-name="threequarteremdash" unicode="&#xe472;" horiz-adv-x="693" 
d="M645 371v-72h-596v72h596z" />
    <glyph glyph-name="G.alt" unicode="&#xe486;" horiz-adv-x="743" 
d="M376 -12q-299 0 -299 363q0 192 77 276.5t237 84.5q184 0 254 -128l-71 -49q-29 55 -73 80t-110 25q-77 0 -124 -23.5t-74 -88t-27 -177.5q0 -161 54 -226t166 -65q200 0 193 223h-186v70h275v-63q-1 -156 -74.5 -229t-217.5 -73z" />
    <glyph glyph-name="G.alt" unicode="&#xe970;" horiz-adv-x="743" 
d="M376 -12q-299 0 -299 363q0 192 77 276.5t237 84.5q184 0 254 -128l-71 -49q-29 55 -73 80t-110 25q-77 0 -124 -23.5t-74 -88t-27 -177.5q0 -161 54 -226t166 -65q200 0 193 223h-186v70h275v-63q-1 -156 -74.5 -229t-217.5 -73z" />
    <glyph glyph-name="K.alt" unicode="&#xe48a;" horiz-adv-x="638" 
d="M109 0v700h91v-700h-91zM523 0l-305 341v3l300 356h103l-300 -346l317 -354h-115z" />
    <glyph glyph-name="k.alt" unicode="&#xe4ca;" horiz-adv-x="532" 
d="M94 0v700h86v-700h-86zM415 -1l-222 238v3l217 247h98l-219 -242l229 -245z" />
    <glyph glyph-name="k.alt" unicode="&#xea89;" horiz-adv-x="532" 
d="M94 0v700h86v-700h-86zM415 -1l-222 238v3l217 247h98l-219 -242l229 -245z" />
    <glyph glyph-name="at.cap" unicode="&#xe513;" horiz-adv-x="818" 
d="M683 106q-94 -99 -264 -99q-162 0 -254.5 93.5t-92.5 249.5t92.5 248.5t254.5 92.5q156 0 241 -84.5t85 -227.5q0 -89 -40 -139.5t-113 -50.5q-83 0 -98 65q-33 -73 -124 -73q-51 0 -83 26.5t-32 75.5t37 78t115 29h82q-1 50 -23 69.5t-68 19.5q-66 0 -96 -43l-32 35
q38 58 134 58q144 0 144 -140v-94q0 -66 58 -66q43 0 69.5 38.5t26.5 109.5q0 134 -76.5 204.5t-206.5 70.5q-139 0 -221 -78t-82 -224q0 -147 82 -225t222 -78q155 0 237 88zM383 229q46 0 75 31t30 84v1h-83q-91 0 -91 -60q0 -56 69 -56z" />
    <glyph glyph-name="zero.LP" unicode="&#xe534;" horiz-adv-x="727" 
d="M362 712q146 0 212.5 -85.5t66.5 -276.5q0 -188 -67.5 -275t-211.5 -87t-210.5 85.5t-66.5 276.5t66.5 276.5t210.5 85.5zM362 641q-96 0 -142.5 -65.5t-46.5 -226.5t46.5 -226t142.5 -65q98 0 144.5 65t46.5 228q0 157 -47 223.5t-144 66.5z" />
    <glyph glyph-name="one.LP" unicode="&#xe536;" horiz-adv-x="337" 
d="M230 0h-87v589l-95 -64l-38 69l163 106h57v-700z" />
    <glyph glyph-name="two.LP" unicode="&#xe537;" horiz-adv-x="596" 
d="M51 0v83l232 214q82 75 116 124.5t34 101.5q0 119 -140 119q-68 0 -110.5 -29.5t-72.5 -92.5l-64 46q38 76 99 111t155 35q108 0 164 -48t56 -137q0 -66 -40.5 -129t-140.5 -158l-178 -167l393 1v-74h-503z" />
    <glyph glyph-name="three.LP" unicode="&#xe538;" horiz-adv-x="615" 
d="M289 -12q-175 0 -246 119l62 49q56 -98 181 -98q170 0 170 144q0 126 -138 126h-99v76h96q55 0 88.5 32t33.5 88q0 118 -149 118q-60 0 -100 -24t-71 -81l-62 47q37 66 95 97t146 31q108 0 168 -46t60 -139q0 -50 -25 -92t-71 -66q56 -16 86 -58t30 -103q0 -100 -64 -160
t-191 -60z" />
    <glyph glyph-name="four.LP" unicode="&#xe539;" horiz-adv-x="639" 
d="M36 183v60l234 457h91l-230 -441h293v319h87v-319h106v-76h-106v-183h-87v183h-388z" />
    <glyph glyph-name="five.LP" unicode="&#xe53a;" horiz-adv-x="592" 
d="M177 624l-21 -219q64 40 159 40q102 0 169 -53.5t67 -163.5q0 -109 -69 -174.5t-196 -65.5q-171 0 -240 120l63 50q59 -101 178 -101q83 0 130 45.5t47 123.5q0 75 -43.5 112.5t-123.5 37.5q-99 0 -176 -61l-49 26l35 359h407v-76h-337z" />
    <glyph glyph-name="six.LP" unicode="&#xe53b;" horiz-adv-x="677" 
d="M365 -12q-130 0 -204.5 88.5t-74.5 271.5q0 364 283 364q166 0 226 -114l-65 -47q-51 91 -165 91q-91 0 -142 -68.5t-51 -233.5v-26q21 58 76 91.5t126 33.5q111 0 173 -57t62 -161q0 -107 -63 -170t-181 -63zM196 209q0 -68 44.5 -110t120.5 -42q74 0 117.5 39.5
t43.5 116.5q0 75 -41 115.5t-122 40.5q-73 0 -118 -44.5t-45 -115.5z" />
    <glyph glyph-name="seven.LP" unicode="&#xe53c;" horiz-adv-x="498" 
d="M163 0q0 171 61.5 343.5t168.5 280.5h-358v76h469v-77q-115 -68 -184 -245.5t-70 -377.5h-87z" />
    <glyph glyph-name="eight.LP" unicode="&#xe53d;" horiz-adv-x="652" 
d="M325 -12q-119 0 -186 54.5t-67 149.5q0 70 37 114t98 58q-52 18 -81.5 59t-29.5 101q0 93 58.5 140.5t170.5 47.5t171 -47.5t59 -139.5q0 -60 -29.5 -101.5t-80.5 -59.5q60 -15 97 -58.5t37 -113.5q0 -95 -67 -149.5t-187 -54.5zM493 195q0 64 -44.5 98.5t-122.5 34.5
t-123 -34.5t-45 -98.5q0 -67 43.5 -102t123.5 -35t124 35t44 102zM471 524q0 60 -37.5 90.5t-108.5 30.5q-145 0 -145 -121q0 -57 37 -90t108 -33q72 0 109 33t37 90z" />
    <glyph glyph-name="nine.LP" unicode="&#xe53e;" horiz-adv-x="676" 
d="M310 -12q-166 0 -226 114l65 47q51 -91 165 -91q91 0 142 68.5t51 233.5v26q-21 -60 -76 -95t-126 -35q-111 0 -173 58.5t-62 164.5q0 107 63 170t181 63q130 0 204.5 -88.5t74.5 -271.5q0 -364 -283 -364zM483 491q0 68 -44.5 110t-120.5 42q-74 0 -117.5 -40.5
t-43.5 -120.5q0 -75 41 -115.5t122 -40.5q73 0 118 45.5t45 119.5z" />
    <glyph glyph-name="zero.LT" unicode="&#xe53f;" 
d="M311 712q146 0 212.5 -85.5t66.5 -276.5q0 -188 -67.5 -275t-211.5 -87t-210.5 85.5t-66.5 276.5t66.5 276.5t210.5 85.5zM311 641q-96 0 -142.5 -65.5t-46.5 -226.5t46.5 -226t142.5 -65q98 0 144.5 65t46.5 228q0 157 -47 223.5t-144 66.5z" />
    <glyph glyph-name="one.LT" unicode="&#xe541;" 
d="M89 0v78h174v511l-94 -64l-38 69l163 106h55v-622h186v-78h-446z" />
    <glyph glyph-name="two.LT" unicode="&#xe542;" 
d="M63 0v83l232 214q82 75 116 124.5t34 101.5q0 119 -140 119q-68 0 -110.5 -29.5t-72.5 -92.5l-64 46q38 76 99 111t155 35q108 0 164 -48t56 -137q0 -66 -40 -129t-140 -158l-177 -167l391 1v-74h-503z" />
    <glyph glyph-name="three.LT" unicode="&#xe543;" 
d="M308 -12q-175 0 -246 119l62 49q56 -98 181 -98q170 0 170 144q0 126 -138 126h-99v76h96q55 0 88.5 32t33.5 88q0 118 -149 118q-60 0 -100 -24t-71 -81l-62 47q37 66 95 97t146 31q108 0 168 -46t60 -139q0 -50 -25 -92t-71 -66q56 -16 86 -58t30 -103q0 -100 -64 -160
t-191 -60z" />
    <glyph glyph-name="four.LT" unicode="&#xe544;" 
d="M22 183v60l234 457h91l-230 -441h293v319h87v-319h106v-76h-106v-183h-87v183h-388z" />
    <glyph glyph-name="five.LT" unicode="&#xe545;" 
d="M191 624l-21 -219q64 40 159 40q102 0 169 -53.5t67 -163.5q0 -109 -69 -174.5t-196 -65.5q-171 0 -240 120l63 50q59 -101 178 -101q83 0 130 45.5t47 123.5q0 75 -43.5 112.5t-123.5 37.5q-99 0 -176 -61l-49 26l35 359h407v-76h-337z" />
    <glyph glyph-name="six.LT" unicode="&#xe546;" 
d="M330 -12q-130 0 -204.5 88.5t-74.5 271.5q0 364 283 364q166 0 226 -114l-65 -47q-51 91 -165 91q-91 0 -142 -68.5t-51 -233.5v-26q21 58 76 91.5t126 33.5q111 0 173 -57t62 -161q0 -107 -63 -170t-181 -63zM161 209q0 -68 44.5 -110t120.5 -42q74 0 117.5 39.5
t43.5 116.5q0 75 -41 115.5t-122 40.5q-73 0 -118 -44.5t-45 -115.5z" />
    <glyph glyph-name="seven.LT" unicode="&#xe547;" 
d="M206 0q0 171 61.5 343.5t168.5 280.5h-358v76h469v-77q-115 -68 -184 -245.5t-70 -377.5h-87z" />
    <glyph glyph-name="eight.LT" unicode="&#xe548;" 
d="M312 -12q-119 0 -186 54.5t-67 149.5q0 70 37 114t98 58q-52 18 -81.5 59t-29.5 101q0 93 58.5 140.5t170.5 47.5t171 -47.5t59 -139.5q0 -60 -29.5 -101.5t-80.5 -59.5q60 -15 97 -58.5t37 -113.5q0 -95 -67 -149.5t-187 -54.5zM480 195q0 64 -44.5 98.5t-122.5 34.5
t-123 -34.5t-45 -98.5q0 -67 43.5 -102t123.5 -35t124 35t44 102zM458 524q0 60 -37.5 90.5t-108.5 30.5q-145 0 -145 -121q0 -57 37 -90t108 -33q72 0 109 33t37 90z" />
    <glyph glyph-name="nine.LT" unicode="&#xe549;" 
d="M291 -12q-166 0 -226 114l65 47q51 -91 165 -91q91 0 142 68.5t51 233.5v26q-21 -60 -76 -95t-126 -35q-111 0 -173 58.5t-62 164.5q0 107 63 170t181 63q130 0 204.5 -88.5t74.5 -271.5q0 -364 -283 -364zM464 491q0 68 -44.5 110t-120.5 42q-74 0 -117.5 -40.5
t-43.5 -120.5q0 -75 41 -115.5t122 -40.5q73 0 118 45.5t45 119.5z" />
    <glyph glyph-name="zero.OT" unicode="&#xe555;" 
d="M312 612q135 0 202.5 -75t67.5 -238q0 -160 -68 -235.5t-202 -75.5t-201.5 75t-67.5 237q0 163 67.5 237.5t201.5 74.5zM312 542q-93 0 -138 -53.5t-45 -188.5q0 -134 45 -188t138 -54q94 0 139 53.5t45 188.5q0 133 -45.5 187.5t-138.5 54.5z" />
    <glyph glyph-name="one.OT" unicode="&#xe557;" 
d="M102 0v78h163v411l-87 -64l-37 69l155 106h55v-522h172v-78h-421z" />
    <glyph glyph-name="two.OT" unicode="&#xe558;" 
d="M93 0v83l200 169q86 73 116.5 111t30.5 83q0 95 -126 95q-58 0 -96.5 -26t-64.5 -82l-62 44q69 135 228 135q103 1 155.5 -41t52.5 -120q0 -60 -37.5 -112.5t-138.5 -138.5l-150 -127l355 1v-74h-463z" />
    <glyph glyph-name="three.OT" unicode="&#xe559;" 
d="M308 -112q-175 0 -246 119l62 49q56 -98 181 -98q170 0 170 144q0 126 -138 126h-99v76h96q55 0 88.5 32t33.5 88q0 118 -149 118q-60 0 -100 -24t-71 -81l-62 47q37 66 95 97t146 31q108 0 168 -46t60 -139q0 -50 -25 -92t-71 -66q56 -16 86 -58t30 -103
q0 -100 -64 -160t-191 -60z" />
    <glyph glyph-name="four.OT" unicode="&#xe55a;" 
d="M22 83v60l234 457h91l-230 -441h293v319h87v-319h106v-76h-106v-183h-87v183h-388z" />
    <glyph glyph-name="five.OT" unicode="&#xe55b;" 
d="M191 524l-21 -219q64 40 159 40q102 0 169 -53.5t67 -163.5q0 -109 -69 -174.5t-196 -65.5q-171 0 -240 120l63 50q59 -101 178 -101q83 0 130 45.5t47 123.5q0 75 -43.5 112.5t-123.5 37.5q-99 0 -176 -61l-49 26l35 359h407v-76h-337z" />
    <glyph glyph-name="six.OT" unicode="&#xe55c;" 
d="M330 -12q-130 0 -204.5 88.5t-74.5 271.5q0 364 283 364q166 0 226 -114l-65 -47q-51 91 -165 91q-91 0 -142 -68.5t-51 -233.5v-26q21 58 76 91.5t126 33.5q111 0 173 -57t62 -161q0 -107 -63 -170t-181 -63zM161 209q0 -68 44.5 -110t120.5 -42q74 0 117.5 39.5
t43.5 116.5q0 75 -41 115.5t-122 40.5q-73 0 -118 -44.5t-45 -115.5z" />
    <glyph glyph-name="seven.OT" unicode="&#xe55d;" 
d="M206 -100q0 171 61.5 343.5t168.5 280.5h-358v76h469v-77q-115 -68 -184 -245.5t-70 -377.5h-87z" />
    <glyph glyph-name="eight.OT" unicode="&#xe55e;" 
d="M312 -12q-119 0 -186 54.5t-67 149.5q0 70 37 114t98 58q-52 18 -81.5 59t-29.5 101q0 93 58.5 140.5t170.5 47.5t171 -47.5t59 -139.5q0 -60 -29.5 -101.5t-80.5 -59.5q60 -15 97 -58.5t37 -113.5q0 -95 -67 -149.5t-187 -54.5zM480 195q0 64 -44.5 98.5t-122.5 34.5
t-123 -34.5t-45 -98.5q0 -67 43.5 -102t123.5 -35t124 35t44 102zM458 524q0 60 -37.5 90.5t-108.5 30.5q-145 0 -145 -121q0 -57 37 -90t108 -33q72 0 109 33t37 90z" />
    <glyph glyph-name="nine.OT" unicode="&#xe55f;" 
d="M291 -112q-166 0 -226 114l65 47q51 -91 165 -91q91 0 142 68.5t51 233.5v26q-21 -60 -76 -95t-126 -35q-111 0 -173 58.5t-62 164.5q0 107 63 170t181 63q130 0 204.5 -88.5t74.5 -271.5q0 -364 -283 -364zM464 391q0 68 -44.5 110t-120.5 42q-74 0 -117.5 -40.5
t-43.5 -120.5q0 -75 41 -115.5t122 -40.5q73 0 118 45.5t45 119.5z" />
    <glyph glyph-name="zero.inf" unicode="&#xe571;" horiz-adv-x="432" 
d="M215 218q88 0 129 -51.5t41 -162.5q0 -110 -41 -162t-129 -52q-89 0 -130.5 51t-41.5 163q0 111 41.5 162.5t130.5 51.5zM215 157q-51 0 -75.5 -34.5t-24.5 -119.5q0 -84 24.5 -118t74.5 -34t74.5 34.5t24.5 118.5t-24 118.5t-74 34.5z" />
    <glyph glyph-name="one.inf" unicode="&#xe572;" horiz-adv-x="225" 
d="M162 -200h-72v320l-51 -32l-28 57l105 64h46v-409z" />
    <glyph glyph-name="two.inf" unicode="&#xe573;" horiz-adv-x="370" 
d="M33 -200v61l133 119q44 39 62 64t18 52q0 60 -72 60q-37 0 -59 -14.5t-39 -48.5l-50 37q45 88 155 88q65 0 101.5 -29.5t36.5 -85.5q0 -39 -23 -75t-79 -86l-85 -78l203 3v-67h-302z" />
    <glyph glyph-name="three.inf" unicode="&#xe574;" horiz-adv-x="372" 
d="M177 -210q-108 0 -152 74l51 39q32 -53 96 -53q87 0 87 68q0 62 -74 62h-53v60h52q30 0 46.5 15t16.5 43q0 59 -74 59q-33 0 -53.5 -12.5t-37.5 -42.5l-49 35q41 81 147 81q66 0 103 -29t37 -85q0 -61 -56 -92q66 -23 66 -93q0 -59 -38.5 -94t-114.5 -35z" />
    <glyph glyph-name="four.inf" unicode="&#xe575;" horiz-adv-x="395" 
d="M25 -103v51l130 260h72l-126 -247h150v167h67v-167h57v-64h-57v-97h-67v97h-226z" />
    <glyph glyph-name="five.inf" unicode="&#xe576;" horiz-adv-x="360" 
d="M119 147l-11 -106q38 18 85 18q63 0 101.5 -31.5t38.5 -96.5t-41 -103t-117 -38q-107 0 -150 70q10 10 50 40q31 -50 98 -50q40 0 64 21.5t24 58.5q0 74 -87 74q-49 0 -89 -28l-43 22l20 209h251v-61z" />
    <glyph glyph-name="six.inf" unicode="&#xe577;" horiz-adv-x="408" 
d="M216 -210q-173 0 -173 213q0 215 175 215q102 0 139 -69l-49 -39q-26 48 -90 48q-50 0 -77.5 -35.5t-26.5 -121.5v-13q13 31 43 49t70 18q64 0 99.5 -33t35.5 -94q0 -63 -37.5 -100.5t-108.5 -37.5zM128 -76q0 -34 22 -54.5t60 -20.5q37 0 60 19.5t23 56.5q0 74 -82 74
q-39 0 -61 -20.5t-22 -54.5z" />
    <glyph glyph-name="seven.inf" unicode="&#xe578;" horiz-adv-x="313" 
d="M171 -200h-75q0 98 35 190t96 153l-204 -1v65h286v-59q-64 -46 -101 -140.5t-37 -207.5z" />
    <glyph glyph-name="eight.inf" unicode="&#xe579;" horiz-adv-x="397" 
d="M197 -210q-74 0 -114.5 31.5t-40.5 89.5q0 78 73 101q-58 26 -58 91q0 115 140 115q141 0 141 -114q0 -65 -58 -92q72 -23 72 -101q0 -58 -40 -89.5t-115 -31.5zM280 -87q0 32 -21.5 49.5t-60.5 17.5q-40 0 -62.5 -17.5t-22.5 -49.5t22 -49.5t62 -17.5t61.5 17.5
t21.5 49.5zM272 102q0 58 -74 58q-76 0 -76 -58q0 -62 75 -62q36 0 55.5 16.5t19.5 45.5z" />
    <glyph glyph-name="nine.inf" unicode="&#xe57a;" horiz-adv-x="408" 
d="M185 -210q-102 0 -139 66l48 39q28 -45 90 -45q107 0 104 155v12q-12 -31 -42 -50t-70 -19q-64 0 -100 34t-36 96q0 64 38.5 102t110.5 38q171 0 171 -213q0 -215 -175 -215zM275 81q0 36 -22.5 56.5t-60.5 20.5q-37 0 -59.5 -20t-22.5 -57q0 -77 82 -77q39 0 61 21
t22 56z" />
    <glyph glyph-name="plus.inf" unicode="&#xe57b;" horiz-adv-x="309" 
d="M184 -138h-58v92h-92v53h92v93h58v-93h92v-53h-92v-92z" />
    <glyph glyph-name="minus.inf" unicode="&#xe57c;" horiz-adv-x="309" 
d="M276 7v-53h-242v53h242z" />
    <glyph glyph-name="equal.inf" unicode="&#xe57d;" horiz-adv-x="309" 
d="M276 -36v-55h-242v55h242zM276 51v-55h-242v55h242z" />
    <glyph glyph-name="parenleft.inf" unicode="&#xe57e;" horiz-adv-x="216" 
d="M193 -207l-6 -58q-81 7 -120 67.5t-39 177.5q0 230 159 243l6 -58q-53 -6 -78 -48t-25 -137q0 -96 25 -137.5t78 -49.5z" />
    <glyph glyph-name="parenright.inf" unicode="&#xe57f;" horiz-adv-x="216" 
d="M29 -265l-6 58q53 8 78 49.5t25 137.5q0 95 -25 137t-78 48l7 58q159 -13 159 -243t-160 -245z" />
    <glyph glyph-name="idotaccent" unicode="&#xe785;" horiz-adv-x="276" 
d="M95 487h86v-487h-86v487zM79 638q0 56 59 56t59 -56q0 -57 -59 -57t-59 57z" />
    <glyph glyph-name="kcommaaccent.alt" unicode="&#xe915;" horiz-adv-x="532" 
d="M246 -292l-17 40q56 16 63 80h-5q-59 0 -59 55q0 53 56 53q61 0 61 -81q0 -54 -25 -94t-74 -53zM94 0v700h86v-700h-86zM415 -1l-222 238v3l217 247h98l-219 -242l229 -245z" />
    <glyph glyph-name="Gbreve.alt" unicode="&#xe971;" horiz-adv-x="743" 
d="M376 -12q-299 0 -299 363q0 192 77 276.5t237 84.5q184 0 254 -128l-71 -49q-29 55 -73 80t-110 25q-77 0 -124 -23.5t-74 -88t-27 -177.5q0 -161 54 -226t166 -65q200 0 193 223h-186v70h275v-63q-1 -156 -74.5 -229t-217.5 -73zM464 905h66q0 -67 -36 -95t-106 -28
q-71 0 -107 28t-36 95h66q0 -38 18.5 -53t57.5 -15q40 0 58.5 15t18.5 53z" />
    <glyph glyph-name="Gcircumflex.alt" unicode="&#xe972;" horiz-adv-x="743" 
d="M376 -12q-299 0 -299 363q0 192 77 276.5t237 84.5q184 0 254 -128l-71 -49q-29 55 -73 80t-110 25q-77 0 -124 -23.5t-74 -88t-27 -177.5q0 -161 54 -226t166 -65q200 0 193 223h-186v70h275v-63q-1 -156 -74.5 -229t-217.5 -73zM390 857l-70 -69h-93v3l122 114h83
l123 -114v-3h-98z" />
    <glyph glyph-name="Gcommaaccent.alt" unicode="&#xe973;" horiz-adv-x="743" 
d="M376 -12q-299 0 -299 363q0 192 77 276.5t237 84.5q184 0 254 -128l-71 -49q-29 55 -73 80t-110 25q-77 0 -124 -23.5t-74 -88t-27 -177.5q0 -161 54 -226t166 -65q200 0 193 223h-186v70h275v-63q-1 -156 -74.5 -229t-217.5 -73zM344 -292l-17 40q56 16 63 80h-5
q-59 0 -59 55q0 53 56 53q61 0 61 -81q0 -54 -25 -94t-74 -53z" />
    <glyph glyph-name="Gdotaccent.alt" unicode="&#xe974;" horiz-adv-x="743" 
d="M376 -12q-299 0 -299 363q0 192 77 276.5t237 84.5q184 0 254 -128l-71 -49q-29 55 -73 80t-110 25q-77 0 -124 -23.5t-74 -88t-27 -177.5q0 -161 54 -226t166 -65q200 0 193 223h-186v70h275v-63q-1 -156 -74.5 -229t-217.5 -73zM330 851q0 56 60 56q59 0 59 -56
q0 -57 -59 -57q-28 0 -44 15t-16 42z" />
    <glyph glyph-name="Kcommaaccent.alt" unicode="&#xeba9;" horiz-adv-x="638" 
d="M307 -292l-17 40q56 16 63 80h-5q-59 0 -59 55q0 53 56 53q61 0 61 -81q0 -54 -25 -94t-74 -53zM109 0v700h91v-700h-91zM523 0l-305 341v3l300 356h103l-300 -346l317 -354h-115z" />
    </font>
</defs>
</svg>
